<svg width="32" height="15" viewBox="0 0 32 15" fill="none" xmlns="http://www.w3.org/2000/svg">
    <path d="M1.84863 5.95243C1.84863 3.38024 3.93432 1.29688 6.5071 1.29688H9.04787C11.6608 1.29688 13.7785 3.41515 13.7785 6.02808C13.7785 7.75064 12.8433 9.33353 11.3367 10.1657L6.64967 12.7612V10.6138H6.61068C3.99775 10.672 1.84863 8.57118 1.84863 5.95243ZM6.5071 2.46076C4.57679 2.46076 3.01252 4.02619 3.01252 5.95243C3.01252 7.91358 4.62451 9.49065 6.5845 9.44992L6.78876 9.4441H7.81356V10.7826L10.7739 9.14731C11.9093 8.51881 12.6146 7.32582 12.6146 6.02808C12.6146 4.05529 11.0177 2.46076 9.04787 2.46076H6.5071Z" fill="#536471"/>
    <path d="M22.9333 9.61523V4.22371H21.8187V3.3411C22.0474 3.3411 22.2525 3.31756 22.434 3.27049C22.6156 3.22005 22.7703 3.13768 22.898 3.02336C23.0292 2.90904 23.1283 2.75269 23.1956 2.55431H24.0984V9.61523H22.9333ZM26.0616 9.61523C26.0616 9.11761 26.1255 8.67882 26.2532 8.29888C26.381 7.91557 26.5542 7.57933 26.7727 7.29017C26.9946 7.00101 27.2468 6.74715 27.5292 6.5286C27.815 6.30669 28.1143 6.10663 28.427 5.92842C28.6354 5.80402 28.8321 5.67457 29.0171 5.54007C29.202 5.40558 29.3516 5.25427 29.4659 5.08615C29.5836 4.91804 29.6425 4.72302 29.6425 4.50111C29.6425 4.21531 29.5416 3.98162 29.3399 3.80006C29.1381 3.61513 28.8675 3.52266 28.5279 3.52266C28.1815 3.52266 27.9025 3.60504 27.6906 3.7698C27.4788 3.93119 27.3174 4.14806 27.2065 4.42041L26.1725 3.95136C26.344 3.49745 26.6416 3.13095 27.0652 2.85188C27.4889 2.5728 27.9781 2.43326 28.5329 2.43326C29.0104 2.43326 29.4189 2.52237 29.7585 2.70057C30.1014 2.87877 30.362 3.12423 30.5402 3.43692C30.7218 3.74626 30.8126 4.09762 30.8126 4.49102C30.8126 4.90123 30.7319 5.24755 30.5705 5.52998C30.4124 5.80906 30.2006 6.05283 29.935 6.26129C29.6694 6.4664 29.3768 6.66309 29.0574 6.85139C28.7582 7.02623 28.4976 7.19603 28.2757 7.36078C28.0538 7.52217 27.8705 7.69365 27.7259 7.87522C27.5814 8.05679 27.4771 8.26189 27.4132 8.49053H30.8731V9.61523H26.0616Z" fill="#536471"/>
    </svg>
    