<svg width="34" height="15" viewBox="0 0 34 15" fill="none" xmlns="http://www.w3.org/2000/svg">
    <path d="M10.2781 3.33276C9.56698 3.29784 8.71909 3.62955 8.01435 4.58976L7.54589 5.22408L7.07684 4.58976C6.37152 3.62955 5.52305 3.29784 4.81191 3.33276C4.08855 3.3735 3.44492 3.78668 3.11845 4.44427C2.79722 5.09605 2.75008 6.06208 3.3972 7.24925C4.02221 8.39568 5.2926 9.73415 7.54589 11.0959C9.79801 9.73415 11.0678 8.39568 11.6928 7.24925C12.3394 6.06208 12.2922 5.09605 11.9704 4.44427C11.6439 3.78668 11.0009 3.3735 10.2781 3.33276ZM12.7147 7.80791C11.9285 9.25114 10.3864 10.7875 7.8386 12.2714L7.54589 12.446L7.25259 12.2714C4.70425 10.7875 3.1621 9.25114 2.37473 7.80791C1.58328 6.35305 1.55419 4.97966 2.07561 3.92634C2.59179 2.88466 3.61602 2.23289 4.75313 2.17469C5.71392 2.12232 6.71312 2.50058 7.5453 3.3444C8.3769 2.50058 9.3761 2.12232 10.3363 2.17469C11.4734 2.23289 12.4977 2.88466 13.0138 3.92634C13.5353 4.97966 13.5062 6.35305 12.7147 7.80791Z" fill="#536471"/>
    <path d="M24.236 9.73628C23.8258 9.73628 23.4643 9.66735 23.1516 9.52949C22.8423 9.39164 22.5817 9.19998 22.3699 8.95453C22.1614 8.70572 22.0034 8.41656 21.8958 8.08705C21.7915 7.75754 21.7394 7.39945 21.7394 7.01278C21.7394 6.27979 21.8857 5.59555 22.1782 4.96007C22.4741 4.32458 22.9163 3.78493 23.5047 3.3411C24.0931 2.89727 24.8294 2.59466 25.7137 2.43326V3.50249C25.3405 3.57982 24.9774 3.71264 24.6243 3.90093C24.2746 4.08586 23.967 4.3229 23.7014 4.61206C23.4391 4.90123 23.2491 5.2341 23.1314 5.61068C23.2727 5.47955 23.4542 5.37363 23.6761 5.29294C23.8981 5.20888 24.1519 5.16685 24.4377 5.16685C24.8647 5.16685 25.248 5.26604 25.5876 5.46442C25.9272 5.6628 26.1945 5.93347 26.3896 6.27642C26.5846 6.61602 26.6821 6.99933 26.6821 7.42635C26.6821 7.8769 26.5762 8.27702 26.3643 8.6267C26.1525 8.97303 25.8617 9.24538 25.4918 9.44375C25.1253 9.63877 24.7067 9.73628 24.236 9.73628ZM24.2309 8.63679C24.4831 8.63679 24.7067 8.58972 24.9017 8.49557C25.0967 8.39807 25.2497 8.26021 25.3607 8.082C25.4716 7.9038 25.5271 7.69533 25.5271 7.45661C25.5271 7.09348 25.4061 6.80263 25.164 6.58408C24.9253 6.36553 24.6142 6.25625 24.2309 6.25625C23.9788 6.25625 23.7535 6.30669 23.5551 6.40756C23.3601 6.50843 23.2054 6.64965 23.0911 6.83121C22.9801 7.00942 22.9247 7.21788 22.9247 7.45661C22.9247 7.69533 22.9818 7.9038 23.0961 8.082C23.2105 8.26021 23.3651 8.39807 23.5601 8.49557C23.7585 8.58972 23.9821 8.63679 24.2309 8.63679ZM30.3729 9.73628C29.9627 9.73628 29.6013 9.66735 29.2886 9.52949C28.9792 9.39164 28.7186 9.19998 28.5068 8.95453C28.2983 8.70572 28.1403 8.41656 28.0327 8.08705C27.9285 7.75754 27.8764 7.39945 27.8764 7.01278C27.8764 6.27979 28.0226 5.59555 28.3152 4.96007C28.611 4.32458 29.0532 3.78493 29.6416 3.3411C30.23 2.89727 30.9664 2.59466 31.8507 2.43326V3.50249C31.4774 3.57982 31.1143 3.71264 30.7613 3.90093C30.4116 4.08586 30.1039 4.3229 29.8383 4.61206C29.576 4.90123 29.3861 5.2341 29.2684 5.61068C29.4096 5.47955 29.5912 5.37363 29.8131 5.29294C30.035 5.20888 30.2888 5.16685 30.5746 5.16685C31.0017 5.16685 31.385 5.26604 31.7246 5.46442C32.0642 5.6628 32.3315 5.93347 32.5265 6.27642C32.7215 6.61602 32.819 6.99933 32.819 7.42635C32.819 7.8769 32.7131 8.27702 32.5013 8.6267C32.2894 8.97303 31.9986 9.24538 31.6287 9.44375C31.2622 9.63877 30.8436 9.73628 30.3729 9.73628ZM30.3679 8.63679C30.62 8.63679 30.8436 8.58972 31.0387 8.49557C31.2337 8.39807 31.3867 8.26021 31.4976 8.082C31.6086 7.9038 31.664 7.69533 31.664 7.45661C31.664 7.09348 31.543 6.80263 31.3009 6.58408C31.0622 6.36553 30.7512 6.25625 30.3679 6.25625C30.1157 6.25625 29.8904 6.30669 29.692 6.40756C29.497 6.50843 29.3423 6.64965 29.228 6.83121C29.1171 7.00942 29.0616 7.21788 29.0616 7.45661C29.0616 7.69533 29.1188 7.9038 29.2331 8.082C29.3474 8.26021 29.5021 8.39807 29.6971 8.49557C29.8955 8.58972 30.1191 8.63679 30.3679 8.63679Z" fill="#536471"/>
    </svg>
    