<svg width="28" height="15" viewBox="0 0 28 15" fill="none" xmlns="http://www.w3.org/2000/svg">
    <g clip-path="url(#clip0_730_49867)">
    <path d="M3.31404 2.39062L5.89322 4.79988L5.09945 5.64951L3.89599 4.52636V9.44379C3.89599 10.0839 4.41741 10.6077 5.05987 10.6077H8.26057V11.7716H5.05987C3.77436 11.7716 2.7321 10.7299 2.7321 9.44379V4.52636L1.52864 5.64951L0.734863 4.79988L3.31404 2.39062ZM10.2974 3.62435H7.09668V2.46046H10.2974C11.5829 2.46046 12.6252 3.50214 12.6252 4.78824V9.70567L13.8286 8.58251L14.6224 9.43215L12.0432 11.8414L9.46403 9.43215L10.2578 8.58251L11.4613 9.70567V4.78824C11.4613 4.1481 10.9398 3.62435 10.2974 3.62435Z" fill="#536471"/>
    </g>
    <path d="M24.1419 9.73628C23.7787 9.73628 23.4526 9.69761 23.1634 9.62028C22.8743 9.54631 22.6238 9.45384 22.4119 9.34288C22.2035 9.22856 22.0337 9.11088 21.9025 8.98984L22.5431 8.08705C22.6708 8.18456 22.8104 8.27702 22.9617 8.36444C23.113 8.4485 23.2845 8.51743 23.4761 8.57123C23.6678 8.62502 23.888 8.65192 24.1368 8.65192C24.4293 8.65192 24.6882 8.59476 24.9135 8.48044C25.1388 8.36612 25.3136 8.20809 25.438 8.00635C25.5658 7.80125 25.6297 7.5642 25.6297 7.29522C25.6297 7.05313 25.5826 6.83962 25.4885 6.65469C25.3977 6.4664 25.2632 6.32014 25.085 6.2159C24.9102 6.11167 24.7017 6.05955 24.4596 6.05955C24.1637 6.05955 23.9132 6.11167 23.7081 6.2159C23.503 6.32014 23.3299 6.44959 23.1886 6.60425L22.1295 6.13521L22.4321 2.55431H26.356V3.65884H23.4812L23.3046 5.29294C23.4728 5.18871 23.6594 5.10633 23.8645 5.04581C24.0696 4.98528 24.2864 4.95502 24.5151 4.95502C24.9993 4.95502 25.4111 5.05926 25.7507 5.26772C26.0937 5.47282 26.356 5.75022 26.5375 6.0999C26.7191 6.44959 26.8099 6.83962 26.8099 7.27C26.8099 7.74745 26.6972 8.17279 26.472 8.54601C26.25 8.91587 25.9374 9.20671 25.5339 9.41854C25.1338 9.63036 24.6697 9.73628 24.1419 9.73628Z" fill="#536471"/>
    <defs>
    <clipPath id="clip0_730_49867">
    <rect width="13.9667" height="13.9667" fill="white" transform="translate(0.695801 0.132812)"/>
    </clipPath>
    </defs>
    </svg>
    