<svg width="24" height="24" viewBox="0 0 24 24" fill="none" xmlns="http://www.w3.org/2000/svg">
<g id="vuesax/bulk/magicpen">
<g id="magicpen">
<path id="Vector" d="M19.4998 7.50086L18.0098 8.99086L15.0098 5.99086L16.4998 4.50086C16.9198 4.08086 17.4598 3.88086 17.9998 3.88086C18.5398 3.88086 19.0798 4.08086 19.4998 4.50086C20.3298 5.33086 20.3298 6.67086 19.4998 7.50086Z" fill="white"/>
<path id="Vector_2" opacity="0.4" d="M18.0104 8.99023L6.50043 20.5002C5.67043 21.3302 4.33043 21.3302 3.50043 20.5002C2.67043 19.6702 2.67043 18.3302 3.50043 17.5002L15.0104 5.99023L18.0104 8.99023Z" fill="white"/>
<path id="Vector_3" d="M9.94953 3.50051L10.3595 2.11051C10.3995 1.98051 10.3595 1.84051 10.2695 1.74051C10.1795 1.64051 10.0195 1.60051 9.88953 1.64051L8.49953 2.05051L7.10953 1.64051C6.97953 1.60051 6.83953 1.64051 6.73953 1.73051C6.63953 1.83051 6.60953 1.97051 6.64953 2.10051L7.04953 3.50051L6.63953 4.89051C6.59953 5.0205 6.63953 5.16051 6.72953 5.26051C6.82953 5.36051 6.96953 5.39051 7.09953 5.35051L8.49953 4.95051L9.88953 5.36051C9.92953 5.37051 9.95953 5.38051 9.99953 5.38051C10.0995 5.38051 10.1895 5.34051 10.2695 5.27051C10.3695 5.17051 10.3995 5.03051 10.3595 4.90051L9.94953 3.50051Z" fill="white"/>
<path id="Vector_4" d="M5.94953 9.50051L6.35953 8.1105C6.39953 7.9805 6.35953 7.84051 6.26953 7.74051C6.16953 7.64051 6.02953 7.61051 5.89953 7.65051L4.49953 8.05051L3.10953 7.64051C2.97953 7.60051 2.83953 7.64051 2.73953 7.73051C2.63953 7.83051 2.60953 7.97051 2.64953 8.10051L3.04953 9.50051L2.63953 10.8905C2.59953 11.0205 2.63953 11.1605 2.72953 11.2605C2.82953 11.3605 2.96953 11.3905 3.09953 11.3505L4.48953 10.9405L5.87953 11.3505C5.90953 11.3605 5.94953 11.3605 5.98953 11.3605C6.08953 11.3605 6.17953 11.3205 6.25953 11.2505C6.35953 11.1505 6.38953 11.0105 6.34953 10.8805L5.94953 9.50051Z" fill="white"/>
<path id="Vector_5" d="M20.9497 14.5L21.3597 13.11C21.3997 12.98 21.3597 12.84 21.2697 12.74C21.1697 12.64 21.0297 12.61 20.8997 12.65L19.5097 13.06L18.1197 12.65C17.9897 12.61 17.8497 12.65 17.7497 12.74C17.6497 12.84 17.6197 12.98 17.6597 13.11L18.0697 14.5L17.6597 15.89C17.6197 16.02 17.6597 16.16 17.7497 16.26C17.8497 16.36 17.9897 16.39 18.1197 16.35L19.5097 15.94L20.8997 16.35C20.9297 16.36 20.9697 16.36 21.0097 16.36C21.1097 16.36 21.1997 16.32 21.2797 16.25C21.3797 16.15 21.4097 16.01 21.3697 15.88L20.9497 14.5Z" fill="white"/>
</g>
</g>
</svg>
