<svg width="32" height="33" viewBox="0 0 32 33" fill="none" xmlns="http://www.w3.org/2000/svg">
<g filter="url(#filter0_i_1121_44111)">
<path d="M21.0635 12.5685C21.0635 12.4094 21.1267 12.2568 21.2392 12.1442C21.3517 12.0317 21.5043 11.9685 21.6635 11.9685H26.3615C26.5206 11.9685 26.6732 12.0317 26.7857 12.1442C26.8983 12.2568 26.9615 12.4094 26.9615 12.5685V13.6565H21.0635V12.5685Z" fill="url(#paint0_linear_1121_44111)"/>
<path d="M21.0635 12.5685C21.0635 12.4094 21.1267 12.2568 21.2392 12.1442C21.3517 12.0317 21.5043 11.9685 21.6635 11.9685H26.3615C26.5206 11.9685 26.6732 12.0317 26.7857 12.1442C26.8983 12.2568 26.9615 12.4094 26.9615 12.5685V13.6565H21.0635V12.5685Z" fill="url(#paint1_radial_1121_44111)"/>
</g>
<g filter="url(#filter1_i_1121_44111)">
<path d="M5.07812 12.5185C5.07812 12.3726 5.13607 12.2327 5.23922 12.1296C5.34236 12.0265 5.48226 11.9685 5.62812 11.9685H8.49712C8.64299 11.9685 8.78289 12.0265 8.88603 12.1296C8.98918 12.2327 9.04712 12.3726 9.04712 12.5185V13.6565H5.07812V12.5175V12.5185Z" fill="url(#paint2_linear_1121_44111)"/>
<path d="M5.07812 12.5185C5.07812 12.3726 5.13607 12.2327 5.23922 12.1296C5.34236 12.0265 5.48226 11.9685 5.62812 11.9685H8.49712C8.64299 11.9685 8.78289 12.0265 8.88603 12.1296C8.98918 12.2327 9.04712 12.3726 9.04712 12.5185V13.6565H5.07812V12.5175V12.5185Z" fill="url(#paint3_radial_1121_44111)"/>
</g>
<g filter="url(#filter2_i_1121_44111)">
<path d="M2.03127 14.9605C2.03127 14.4301 2.24199 13.9214 2.61706 13.5463C2.99213 13.1712 3.50084 12.9605 4.03127 12.9605H27.9703C28.5007 12.9605 29.0094 13.1712 29.3845 13.5463C29.7596 13.9214 29.9703 14.4301 29.9703 14.9605V16.6255C29.9703 16.6918 29.9439 16.7554 29.897 16.8023C29.8502 16.8492 29.7866 16.8755 29.7203 16.8755H2.28027C2.21397 16.8755 2.15038 16.8492 2.1035 16.8023C2.05661 16.7554 2.03027 16.6918 2.03027 16.6255L2.03127 14.9605Z" fill="#DAD4E6"/>
<path d="M2.03127 14.9605C2.03127 14.4301 2.24199 13.9214 2.61706 13.5463C2.99213 13.1712 3.50084 12.9605 4.03127 12.9605H27.9703C28.5007 12.9605 29.0094 13.1712 29.3845 13.5463C29.7596 13.9214 29.9703 14.4301 29.9703 14.9605V16.6255C29.9703 16.6918 29.9439 16.7554 29.897 16.8023C29.8502 16.8492 29.7866 16.8755 29.7203 16.8755H2.28027C2.21397 16.8755 2.15038 16.8492 2.1035 16.8023C2.05661 16.7554 2.03027 16.6918 2.03027 16.6255L2.03127 14.9605Z" fill="url(#paint4_linear_1121_44111)"/>
<path d="M2.03127 14.9605C2.03127 14.4301 2.24199 13.9214 2.61706 13.5463C2.99213 13.1712 3.50084 12.9605 4.03127 12.9605H27.9703C28.5007 12.9605 29.0094 13.1712 29.3845 13.5463C29.7596 13.9214 29.9703 14.4301 29.9703 14.9605V16.6255C29.9703 16.6918 29.9439 16.7554 29.897 16.8023C29.8502 16.8492 29.7866 16.8755 29.7203 16.8755H2.28027C2.21397 16.8755 2.15038 16.8492 2.1035 16.8023C2.05661 16.7554 2.03027 16.6918 2.03027 16.6255L2.03127 14.9605Z" fill="url(#paint5_linear_1121_44111)"/>
<path d="M2.03127 14.9605C2.03127 14.4301 2.24199 13.9214 2.61706 13.5463C2.99213 13.1712 3.50084 12.9605 4.03127 12.9605H27.9703C28.5007 12.9605 29.0094 13.1712 29.3845 13.5463C29.7596 13.9214 29.9703 14.4301 29.9703 14.9605V16.6255C29.9703 16.6918 29.9439 16.7554 29.897 16.8023C29.8502 16.8492 29.7866 16.8755 29.7203 16.8755H2.28027C2.21397 16.8755 2.15038 16.8492 2.1035 16.8023C2.05661 16.7554 2.03027 16.6918 2.03027 16.6255L2.03127 14.9605Z" fill="url(#paint6_linear_1121_44111)"/>
<path d="M2.03127 14.9605C2.03127 14.4301 2.24199 13.9214 2.61706 13.5463C2.99213 13.1712 3.50084 12.9605 4.03127 12.9605H27.9703C28.5007 12.9605 29.0094 13.1712 29.3845 13.5463C29.7596 13.9214 29.9703 14.4301 29.9703 14.9605V16.6255C29.9703 16.6918 29.9439 16.7554 29.897 16.8023C29.8502 16.8492 29.7866 16.8755 29.7203 16.8755H2.28027C2.21397 16.8755 2.15038 16.8492 2.1035 16.8023C2.05661 16.7554 2.03027 16.6918 2.03027 16.6255L2.03127 14.9605Z" fill="url(#paint7_radial_1121_44111)"/>
<path d="M2.03127 14.9605C2.03127 14.4301 2.24199 13.9214 2.61706 13.5463C2.99213 13.1712 3.50084 12.9605 4.03127 12.9605H27.9703C28.5007 12.9605 29.0094 13.1712 29.3845 13.5463C29.7596 13.9214 29.9703 14.4301 29.9703 14.9605V16.6255C29.9703 16.6918 29.9439 16.7554 29.897 16.8023C29.8502 16.8492 29.7866 16.8755 29.7203 16.8755H2.28027C2.21397 16.8755 2.15038 16.8492 2.1035 16.8023C2.05661 16.7554 2.03027 16.6918 2.03027 16.6255L2.03127 14.9605Z" fill="url(#paint8_linear_1121_44111)"/>
</g>
<path d="M2.03125 29.0785C2.03125 30.0535 2.82125 30.8435 3.79625 30.8435H28.2043C29.1782 30.8435 29.9692 30.0535 29.9692 29.0785C29.9692 29.0618 29.9626 29.0458 29.9508 29.034C29.939 29.0221 29.923 29.0155 29.9062 29.0155H2.09425C2.07754 29.0155 2.06152 29.0221 2.0497 29.034C2.03789 29.0458 2.03125 29.0618 2.03125 29.0785Z" fill="url(#paint9_linear_1121_44111)"/>
<path d="M2.03125 29.0785C2.03125 30.0535 2.82125 30.8435 3.79625 30.8435H28.2043C29.1782 30.8435 29.9692 30.0535 29.9692 29.0785C29.9692 29.0618 29.9626 29.0458 29.9508 29.034C29.939 29.0221 29.923 29.0155 29.9062 29.0155H2.09425C2.07754 29.0155 2.06152 29.0221 2.0497 29.034C2.03789 29.0458 2.03125 29.0618 2.03125 29.0785Z" fill="url(#paint10_linear_1121_44111)"/>
<path d="M2.03125 29.0785C2.03125 30.0535 2.82125 30.8435 3.79625 30.8435H28.2043C29.1782 30.8435 29.9692 30.0535 29.9692 29.0785C29.9692 29.0618 29.9626 29.0458 29.9508 29.034C29.939 29.0221 29.923 29.0155 29.9062 29.0155H2.09425C2.07754 29.0155 2.06152 29.0221 2.0497 29.034C2.03789 29.0458 2.03125 29.0618 2.03125 29.0785Z" fill="url(#paint11_linear_1121_44111)"/>
<path d="M2.03125 29.0785C2.03125 30.0535 2.82125 30.8435 3.79625 30.8435H28.2043C29.1782 30.8435 29.9692 30.0535 29.9692 29.0785C29.9692 29.0618 29.9626 29.0458 29.9508 29.034C29.939 29.0221 29.923 29.0155 29.9062 29.0155H2.09425C2.07754 29.0155 2.06152 29.0221 2.0497 29.034C2.03789 29.0458 2.03125 29.0618 2.03125 29.0785Z" fill="url(#paint12_radial_1121_44111)"/>
<path d="M2.03125 29.0785C2.03125 30.0535 2.82125 30.8435 3.79625 30.8435H28.2043C29.1782 30.8435 29.9692 30.0535 29.9692 29.0785C29.9692 29.0618 29.9626 29.0458 29.9508 29.034C29.939 29.0221 29.923 29.0155 29.9062 29.0155H2.09425C2.07754 29.0155 2.06152 29.0221 2.0497 29.034C2.03789 29.0458 2.03125 29.0618 2.03125 29.0785Z" fill="url(#paint13_radial_1121_44111)"/>
<path d="M2.03127 17.1255C2.03127 17.0592 2.05761 16.9956 2.1045 16.9487C2.15138 16.9018 2.21497 16.8755 2.28127 16.8755H29.7203C29.7866 16.8755 29.8502 16.9018 29.897 16.9487C29.9439 16.9956 29.9703 17.0592 29.9703 17.1255V28.7655C29.9703 28.8318 29.9439 28.8954 29.897 28.9423C29.8502 28.9892 29.7866 29.0155 29.7203 29.0155H2.28027C2.21397 29.0155 2.15038 28.9892 2.1035 28.9423C2.05661 28.8954 2.03027 28.8318 2.03027 28.7655L2.03127 17.1255Z" fill="url(#paint14_linear_1121_44111)"/>
<path d="M2.03127 17.1255C2.03127 17.0592 2.05761 16.9956 2.1045 16.9487C2.15138 16.9018 2.21497 16.8755 2.28127 16.8755H29.7203C29.7866 16.8755 29.8502 16.9018 29.897 16.9487C29.9439 16.9956 29.9703 17.0592 29.9703 17.1255V28.7655C29.9703 28.8318 29.9439 28.8954 29.897 28.9423C29.8502 28.9892 29.7866 29.0155 29.7203 29.0155H2.28027C2.21397 29.0155 2.15038 28.9892 2.1035 28.9423C2.05661 28.8954 2.03027 28.8318 2.03027 28.7655L2.03127 17.1255Z" fill="url(#paint15_linear_1121_44111)"/>
<path d="M2.03127 17.1255C2.03127 17.0592 2.05761 16.9956 2.1045 16.9487C2.15138 16.9018 2.21497 16.8755 2.28127 16.8755H29.7203C29.7866 16.8755 29.8502 16.9018 29.897 16.9487C29.9439 16.9956 29.9703 17.0592 29.9703 17.1255V28.7655C29.9703 28.8318 29.9439 28.8954 29.897 28.9423C29.8502 28.9892 29.7866 29.0155 29.7203 29.0155H2.28027C2.21397 29.0155 2.15038 28.9892 2.1035 28.9423C2.05661 28.8954 2.03027 28.8318 2.03027 28.7655L2.03127 17.1255Z" fill="url(#paint16_linear_1121_44111)"/>
<path d="M2.03127 17.1255C2.03127 17.0592 2.05761 16.9956 2.1045 16.9487C2.15138 16.9018 2.21497 16.8755 2.28127 16.8755H29.7203C29.7866 16.8755 29.8502 16.9018 29.897 16.9487C29.9439 16.9956 29.9703 17.0592 29.9703 17.1255V28.7655C29.9703 28.8318 29.9439 28.8954 29.897 28.9423C29.8502 28.9892 29.7866 29.0155 29.7203 29.0155H2.28027C2.21397 29.0155 2.15038 28.9892 2.1035 28.9423C2.05661 28.8954 2.03027 28.8318 2.03027 28.7655L2.03127 17.1255Z" fill="url(#paint17_linear_1121_44111)"/>
<path d="M2.03127 17.1255C2.03127 17.0592 2.05761 16.9956 2.1045 16.9487C2.15138 16.9018 2.21497 16.8755 2.28127 16.8755H29.7203C29.7866 16.8755 29.8502 16.9018 29.897 16.9487C29.9439 16.9956 29.9703 17.0592 29.9703 17.1255V28.7655C29.9703 28.8318 29.9439 28.8954 29.897 28.9423C29.8502 28.9892 29.7866 29.0155 29.7203 29.0155H2.28027C2.21397 29.0155 2.15038 28.9892 2.1035 28.9423C2.05661 28.8954 2.03027 28.8318 2.03027 28.7655L2.03127 17.1255Z" fill="url(#paint18_linear_1121_44111)"/>
<path d="M2.03127 17.1255C2.03127 17.0592 2.05761 16.9956 2.1045 16.9487C2.15138 16.9018 2.21497 16.8755 2.28127 16.8755H29.7203C29.7866 16.8755 29.8502 16.9018 29.897 16.9487C29.9439 16.9956 29.9703 17.0592 29.9703 17.1255V28.7655C29.9703 28.8318 29.9439 28.8954 29.897 28.9423C29.8502 28.9892 29.7866 29.0155 29.7203 29.0155H2.28027C2.21397 29.0155 2.15038 28.9892 2.1035 28.9423C2.05661 28.8954 2.03027 28.8318 2.03027 28.7655L2.03127 17.1255Z" fill="url(#paint19_linear_1121_44111)"/>
<path d="M2.03127 17.1255C2.03127 17.0592 2.05761 16.9956 2.1045 16.9487C2.15138 16.9018 2.21497 16.8755 2.28127 16.8755H29.7203C29.7866 16.8755 29.8502 16.9018 29.897 16.9487C29.9439 16.9956 29.9703 17.0592 29.9703 17.1255V28.7655C29.9703 28.8318 29.9439 28.8954 29.897 28.9423C29.8502 28.9892 29.7866 29.0155 29.7203 29.0155H2.28027C2.21397 29.0155 2.15038 28.9892 2.1035 28.9423C2.05661 28.8954 2.03027 28.8318 2.03027 28.7655L2.03127 17.1255Z" fill="url(#paint20_radial_1121_44111)"/>
<g filter="url(#filter3_iiii_1121_44111)">
<path d="M16.0004 29.9305C19.8752 29.9305 23.0164 26.7893 23.0164 22.9145C23.0164 19.0397 19.8752 15.8985 16.0004 15.8985C12.1255 15.8985 8.98438 19.0397 8.98438 22.9145C8.98438 26.7893 12.1255 29.9305 16.0004 29.9305Z" fill="url(#paint21_radial_1121_44111)"/>
</g>
<g filter="url(#filter4_f_1121_44111)">
<path d="M16.0002 27.8835C18.7446 27.8835 20.9692 25.6588 20.9692 22.9145C20.9692 20.1702 18.7446 17.9455 16.0002 17.9455C13.2559 17.9455 11.0312 20.1702 11.0312 22.9145C11.0312 25.6588 13.2559 27.8835 16.0002 27.8835Z" stroke="url(#paint22_linear_1121_44111)" stroke-width="0.3"/>
<path d="M16.0002 27.8835C18.7446 27.8835 20.9692 25.6588 20.9692 22.9145C20.9692 20.1702 18.7446 17.9455 16.0002 17.9455C13.2559 17.9455 11.0312 20.1702 11.0312 22.9145C11.0312 25.6588 13.2559 27.8835 16.0002 27.8835Z" stroke="url(#paint23_linear_1121_44111)" stroke-width="0.3"/>
</g>
<path d="M16.0002 27.8835C18.7446 27.8835 20.9692 25.6588 20.9692 22.9145C20.9692 20.1702 18.7446 17.9455 16.0002 17.9455C13.2559 17.9455 11.0312 20.1702 11.0312 22.9145C11.0312 25.6588 13.2559 27.8835 16.0002 27.8835Z" fill="url(#paint24_radial_1121_44111)"/>
<path d="M16.0002 27.8835C18.7446 27.8835 20.9692 25.6588 20.9692 22.9145C20.9692 20.1702 18.7446 17.9455 16.0002 17.9455C13.2559 17.9455 11.0312 20.1702 11.0312 22.9145C11.0312 25.6588 13.2559 27.8835 16.0002 27.8835Z" fill="url(#paint25_linear_1121_44111)"/>
<g filter="url(#filter5_f_1121_44111)">
<path d="M16.0004 27.2665C18.404 27.2665 20.3524 25.318 20.3524 22.9145C20.3524 20.511 18.404 18.5625 16.0004 18.5625C13.5969 18.5625 11.6484 20.511 11.6484 22.9145C11.6484 25.318 13.5969 27.2665 16.0004 27.2665Z" fill="url(#paint26_radial_1121_44111)"/>
<path d="M16.0004 27.2665C18.404 27.2665 20.3524 25.318 20.3524 22.9145C20.3524 20.511 18.404 18.5625 16.0004 18.5625C13.5969 18.5625 11.6484 20.511 11.6484 22.9145C11.6484 25.318 13.5969 27.2665 16.0004 27.2665Z" fill="url(#paint27_radial_1121_44111)"/>
</g>
<path d="M15.9999 25.3675C17.3546 25.3675 18.4529 24.2693 18.4529 22.9145C18.4529 21.5597 17.3546 20.4615 15.9999 20.4615C14.6451 20.4615 13.5469 21.5597 13.5469 22.9145C13.5469 24.2693 14.6451 25.3675 15.9999 25.3675Z" fill="url(#paint28_linear_1121_44111)"/>
<path d="M15.9999 25.3675C17.3546 25.3675 18.4529 24.2693 18.4529 22.9145C18.4529 21.5597 17.3546 20.4615 15.9999 20.4615C14.6451 20.4615 13.5469 21.5597 13.5469 22.9145C13.5469 24.2693 14.6451 25.3675 15.9999 25.3675Z" fill="url(#paint29_radial_1121_44111)"/>
<path d="M15.9999 25.3675C17.3546 25.3675 18.4529 24.2693 18.4529 22.9145C18.4529 21.5597 17.3546 20.4615 15.9999 20.4615C14.6451 20.4615 13.5469 21.5597 13.5469 22.9145C13.5469 24.2693 14.6451 25.3675 15.9999 25.3675Z" fill="url(#paint30_radial_1121_44111)"/>
<path d="M18.6333 21.7763C19.0121 21.5114 19.0518 20.9143 18.7219 20.4427C18.392 19.9712 17.8176 19.8037 17.4388 20.0687C17.06 20.3336 17.0203 20.9307 17.3502 21.4023C17.6801 21.8738 18.2546 22.0413 18.6333 21.7763Z" fill="url(#paint31_linear_1121_44111)"/>
<g filter="url(#filter6_f_1121_44111)">
<path d="M29.0166 17.1955H29.4856V28.6955H29.0166V17.1955Z" fill="#8D8D92"/>
</g>
<defs>
<filter id="filter0_i_1121_44111" x="21.0635" y="11.9685" width="5.89844" height="1.838" filterUnits="userSpaceOnUse" color-interpolation-filters="sRGB">
<feFlood flood-opacity="0" result="BackgroundImageFix"/>
<feBlend mode="normal" in="SourceGraphic" in2="BackgroundImageFix" result="shape"/>
<feColorMatrix in="SourceAlpha" type="matrix" values="0 0 0 0 0 0 0 0 0 0 0 0 0 0 0 0 0 0 127 0" result="hardAlpha"/>
<feOffset dy="0.15"/>
<feGaussianBlur stdDeviation="0.2"/>
<feComposite in2="hardAlpha" operator="arithmetic" k2="-1" k3="1"/>
<feColorMatrix type="matrix" values="0 0 0 0 0.701961 0 0 0 0 0.709804 0 0 0 0 0.713726 0 0 0 1 0"/>
<feBlend mode="normal" in2="shape" result="effect1_innerShadow_1121_44111"/>
</filter>
<filter id="filter1_i_1121_44111" x="5.07812" y="11.9685" width="3.96875" height="1.838" filterUnits="userSpaceOnUse" color-interpolation-filters="sRGB">
<feFlood flood-opacity="0" result="BackgroundImageFix"/>
<feBlend mode="normal" in="SourceGraphic" in2="BackgroundImageFix" result="shape"/>
<feColorMatrix in="SourceAlpha" type="matrix" values="0 0 0 0 0 0 0 0 0 0 0 0 0 0 0 0 0 0 127 0" result="hardAlpha"/>
<feOffset dy="0.15"/>
<feGaussianBlur stdDeviation="0.2"/>
<feComposite in2="hardAlpha" operator="arithmetic" k2="-1" k3="1"/>
<feColorMatrix type="matrix" values="0 0 0 0 0.701961 0 0 0 0 0.709804 0 0 0 0 0.713726 0 0 0 1 0"/>
<feBlend mode="normal" in2="shape" result="effect1_innerShadow_1121_44111"/>
</filter>
<filter id="filter2_i_1121_44111" x="2.03027" y="12.9605" width="27.9404" height="4.01499" filterUnits="userSpaceOnUse" color-interpolation-filters="sRGB">
<feFlood flood-opacity="0" result="BackgroundImageFix"/>
<feBlend mode="normal" in="SourceGraphic" in2="BackgroundImageFix" result="shape"/>
<feColorMatrix in="SourceAlpha" type="matrix" values="0 0 0 0 0 0 0 0 0 0 0 0 0 0 0 0 0 0 127 0" result="hardAlpha"/>
<feOffset dy="0.1"/>
<feGaussianBlur stdDeviation="0.15"/>
<feComposite in2="hardAlpha" operator="arithmetic" k2="-1" k3="1"/>
<feColorMatrix type="matrix" values="0 0 0 0 0.796078 0 0 0 0 0.8 0 0 0 0 0.803922 0 0 0 1 0"/>
<feBlend mode="normal" in2="shape" result="effect1_innerShadow_1121_44111"/>
</filter>
<filter id="filter3_iiii_1121_44111" x="8.83437" y="15.7485" width="14.3322" height="14.332" filterUnits="userSpaceOnUse" color-interpolation-filters="sRGB">
<feFlood flood-opacity="0" result="BackgroundImageFix"/>
<feBlend mode="normal" in="SourceGraphic" in2="BackgroundImageFix" result="shape"/>
<feColorMatrix in="SourceAlpha" type="matrix" values="0 0 0 0 0 0 0 0 0 0 0 0 0 0 0 0 0 0 127 0" result="hardAlpha"/>
<feOffset dy="-0.15"/>
<feGaussianBlur stdDeviation="0.075"/>
<feComposite in2="hardAlpha" operator="arithmetic" k2="-1" k3="1"/>
<feColorMatrix type="matrix" values="0 0 0 0 0.545098 0 0 0 0 0.529412 0 0 0 0 0.580392 0 0 0 1 0"/>
<feBlend mode="normal" in2="shape" result="effect1_innerShadow_1121_44111"/>
<feColorMatrix in="SourceAlpha" type="matrix" values="0 0 0 0 0 0 0 0 0 0 0 0 0 0 0 0 0 0 127 0" result="hardAlpha"/>
<feOffset dx="0.15"/>
<feGaussianBlur stdDeviation="0.075"/>
<feComposite in2="hardAlpha" operator="arithmetic" k2="-1" k3="1"/>
<feColorMatrix type="matrix" values="0 0 0 0 0.564706 0 0 0 0 0.54902 0 0 0 0 0.6 0 0 0 1 0"/>
<feBlend mode="normal" in2="effect1_innerShadow_1121_44111" result="effect2_innerShadow_1121_44111"/>
<feColorMatrix in="SourceAlpha" type="matrix" values="0 0 0 0 0 0 0 0 0 0 0 0 0 0 0 0 0 0 127 0" result="hardAlpha"/>
<feOffset dy="0.15"/>
<feGaussianBlur stdDeviation="0.075"/>
<feComposite in2="hardAlpha" operator="arithmetic" k2="-1" k3="1"/>
<feColorMatrix type="matrix" values="0 0 0 0 0.619608 0 0 0 0 0.623529 0 0 0 0 0.631373 0 0 0 1 0"/>
<feBlend mode="normal" in2="effect2_innerShadow_1121_44111" result="effect3_innerShadow_1121_44111"/>
<feColorMatrix in="SourceAlpha" type="matrix" values="0 0 0 0 0 0 0 0 0 0 0 0 0 0 0 0 0 0 127 0" result="hardAlpha"/>
<feOffset dx="-0.15" dy="0.1"/>
<feGaussianBlur stdDeviation="0.125"/>
<feComposite in2="hardAlpha" operator="arithmetic" k2="-1" k3="1"/>
<feColorMatrix type="matrix" values="0 0 0 0 0.803922 0 0 0 0 0.803922 0 0 0 0 0.823529 0 0 0 1 0"/>
<feBlend mode="normal" in2="effect3_innerShadow_1121_44111" result="effect4_innerShadow_1121_44111"/>
</filter>
<filter id="filter4_f_1121_44111" x="10.4809" y="17.3955" width="11.0383" height="11.038" filterUnits="userSpaceOnUse" color-interpolation-filters="sRGB">
<feFlood flood-opacity="0" result="BackgroundImageFix"/>
<feBlend mode="normal" in="SourceGraphic" in2="BackgroundImageFix" result="shape"/>
<feGaussianBlur stdDeviation="0.2" result="effect1_foregroundBlur_1121_44111"/>
</filter>
<filter id="filter5_f_1121_44111" x="10.8984" y="17.8125" width="10.2041" height="10.204" filterUnits="userSpaceOnUse" color-interpolation-filters="sRGB">
<feFlood flood-opacity="0" result="BackgroundImageFix"/>
<feBlend mode="normal" in="SourceGraphic" in2="BackgroundImageFix" result="shape"/>
<feGaussianBlur stdDeviation="0.375" result="effect1_foregroundBlur_1121_44111"/>
</filter>
<filter id="filter6_f_1121_44111" x="28.3666" y="16.5455" width="1.76875" height="12.8" filterUnits="userSpaceOnUse" color-interpolation-filters="sRGB">
<feFlood flood-opacity="0" result="BackgroundImageFix"/>
<feBlend mode="normal" in="SourceGraphic" in2="BackgroundImageFix" result="shape"/>
<feGaussianBlur stdDeviation="0.325" result="effect1_foregroundBlur_1121_44111"/>
</filter>
<linearGradient id="paint0_linear_1121_44111" x1="21.4065" y1="12.8125" x2="27.4385" y2="12.8125" gradientUnits="userSpaceOnUse">
<stop offset="0.197" stop-color="#949597"/>
<stop offset="0.624" stop-color="#C1C2C4"/>
</linearGradient>
<radialGradient id="paint1_radial_1121_44111" cx="0" cy="0" r="1" gradientUnits="userSpaceOnUse" gradientTransform="translate(25.4385 12.4065) rotate(90) scale(0.21875 1.6875)">
<stop stop-color="#CFD0D2"/>
<stop offset="1" stop-color="#CFD0D2" stop-opacity="0"/>
</radialGradient>
<linearGradient id="paint2_linear_1121_44111" x1="5.30912" y1="12.8125" x2="9.36812" y2="12.8125" gradientUnits="userSpaceOnUse">
<stop offset="0.197" stop-color="#949597"/>
<stop offset="0.624" stop-color="#C1C2C4"/>
</linearGradient>
<radialGradient id="paint3_radial_1121_44111" cx="0" cy="0" r="1" gradientUnits="userSpaceOnUse" gradientTransform="translate(8.02212 12.4065) rotate(90) scale(0.21875 1.13543)">
<stop stop-color="#CFD0D2"/>
<stop offset="1" stop-color="#CFD0D2" stop-opacity="0"/>
</radialGradient>
<linearGradient id="paint4_linear_1121_44111" x1="16.0003" y1="12.9605" x2="16.0003" y2="14.5935" gradientUnits="userSpaceOnUse">
<stop stop-color="#D8D8DC"/>
<stop offset="1" stop-color="#D8D8DC" stop-opacity="0"/>
</linearGradient>
<linearGradient id="paint5_linear_1121_44111" x1="2.03127" y1="16.2815" x2="3.59427" y2="16.2815" gradientUnits="userSpaceOnUse">
<stop offset="0.22" stop-color="#C6C3CC"/>
<stop offset="1" stop-color="#C6C3CC" stop-opacity="0"/>
</linearGradient>
<linearGradient id="paint6_linear_1121_44111" x1="29.9693" y1="16.5315" x2="27.4063" y2="16.5315" gradientUnits="userSpaceOnUse">
<stop offset="0.15" stop-color="#F9F7FE"/>
<stop offset="1" stop-color="#D3CDDD" stop-opacity="0"/>
</linearGradient>
<radialGradient id="paint7_radial_1121_44111" cx="0" cy="0" r="1" gradientUnits="userSpaceOnUse" gradientTransform="translate(29.9685 13.7199) rotate(135.463) scale(1.70982 2.07599)">
<stop offset="0.15" stop-color="#F9F7FE"/>
<stop offset="1" stop-color="#F9F7FE" stop-opacity="0"/>
</radialGradient>
<linearGradient id="paint8_linear_1121_44111" x1="17.6253" y1="16.8755" x2="17.6253" y2="16.5315" gradientUnits="userSpaceOnUse">
<stop stop-color="#B6ADC6"/>
<stop offset="1" stop-color="#B6ADC6" stop-opacity="0"/>
</linearGradient>
<linearGradient id="paint9_linear_1121_44111" x1="16.0002" y1="29.0155" x2="16.0002" y2="30.8435" gradientUnits="userSpaceOnUse">
<stop stop-color="#CFC6DE"/>
<stop offset="1" stop-color="#C3B4D7"/>
</linearGradient>
<linearGradient id="paint10_linear_1121_44111" x1="17.3753" y1="30.8435" x2="17.3753" y2="29.4375" gradientUnits="userSpaceOnUse">
<stop stop-color="#AC91C9"/>
<stop offset="1" stop-color="#C2B3D6" stop-opacity="0"/>
</linearGradient>
<linearGradient id="paint11_linear_1121_44111" x1="16.0002" y1="29.0155" x2="16.0002" y2="29.5315" gradientUnits="userSpaceOnUse">
<stop stop-color="#CFCBD7"/>
<stop offset="1" stop-color="#CFCBD7" stop-opacity="0"/>
</linearGradient>
<radialGradient id="paint12_radial_1121_44111" cx="0" cy="0" r="1" gradientUnits="userSpaceOnUse" gradientTransform="translate(29.2812 28.6255) rotate(90) scale(1.93749 1.25528)">
<stop offset="0.242" stop-color="#F7F4FE"/>
<stop offset="1" stop-color="#C8BCDB" stop-opacity="0"/>
</radialGradient>
<radialGradient id="paint13_radial_1121_44111" cx="0" cy="0" r="1" gradientUnits="userSpaceOnUse" gradientTransform="translate(14.2502 26.2505) rotate(90) scale(4.59375 6.48312)">
<stop offset="0.645" stop-color="#9884AF"/>
<stop offset="1" stop-color="#9884AF" stop-opacity="0"/>
</radialGradient>
<linearGradient id="paint14_linear_1121_44111" x1="20.2813" y1="22.9455" x2="29.2813" y2="22.9455" gradientUnits="userSpaceOnUse">
<stop stop-color="#66636F"/>
<stop offset="1" stop-color="#6B6873"/>
</linearGradient>
<linearGradient id="paint15_linear_1121_44111" x1="2.03127" y1="24.6255" x2="4.71927" y2="24.6565" gradientUnits="userSpaceOnUse">
<stop offset="0.342" stop-color="#5E5C64"/>
<stop offset="1" stop-color="#5E5C64" stop-opacity="0"/>
</linearGradient>
<linearGradient id="paint16_linear_1121_44111" x1="1.68827" y1="23.1255" x2="2.84427" y2="23.1255" gradientUnits="userSpaceOnUse">
<stop stop-color="#8F8F91"/>
<stop offset="1" stop-color="#6D6C71" stop-opacity="0"/>
</linearGradient>
<linearGradient id="paint17_linear_1121_44111" x1="16.0003" y1="16.8755" x2="16.0003" y2="17.6255" gradientUnits="userSpaceOnUse">
<stop stop-color="#706F76"/>
<stop offset="1" stop-color="#706F76" stop-opacity="0"/>
</linearGradient>
<linearGradient id="paint18_linear_1121_44111" x1="16.0003" y1="16.8755" x2="16.0003" y2="17.2035" gradientUnits="userSpaceOnUse">
<stop stop-color="#5F5E65"/>
<stop offset="1" stop-color="#5F5E65" stop-opacity="0"/>
</linearGradient>
<linearGradient id="paint19_linear_1121_44111" x1="19.3133" y1="29.0155" x2="19.3133" y2="28.4065" gradientUnits="userSpaceOnUse">
<stop stop-color="#5C536A"/>
<stop offset="1" stop-color="#5C536A" stop-opacity="0"/>
</linearGradient>
<radialGradient id="paint20_radial_1121_44111" cx="0" cy="0" r="1" gradientUnits="userSpaceOnUse" gradientTransform="translate(13.6257 24.8433) rotate(53.678) scale(8.49414 8.46172)">
<stop offset="0.597" stop-color="#4B4357"/>
<stop offset="1" stop-color="#524C5D" stop-opacity="0"/>
</radialGradient>
<radialGradient id="paint21_radial_1121_44111" cx="0" cy="0" r="1" gradientUnits="userSpaceOnUse" gradientTransform="translate(21.3443 19.625) rotate(143.867) scale(11.1822)">
<stop stop-color="#A6A2AE"/>
<stop offset="1" stop-color="#A6A2AF"/>
</radialGradient>
<linearGradient id="paint22_linear_1121_44111" x1="19.2813" y1="17.7185" x2="16.0003" y2="27.8825" gradientUnits="userSpaceOnUse">
<stop stop-color="#6A6375"/>
<stop offset="1" stop-color="#6A6375" stop-opacity="0"/>
</linearGradient>
<linearGradient id="paint23_linear_1121_44111" x1="12.8442" y1="26.7505" x2="14.6562" y2="24.2815" gradientUnits="userSpaceOnUse">
<stop offset="0.363" stop-color="#B7B6BD"/>
<stop offset="1" stop-color="#B7B6BD" stop-opacity="0"/>
</linearGradient>
<radialGradient id="paint24_radial_1121_44111" cx="0" cy="0" r="1" gradientUnits="userSpaceOnUse" gradientTransform="translate(18.7194 21.5932) rotate(143.911) scale(6.41935 5.9978)">
<stop offset="0.068" stop-color="#67616D"/>
<stop offset="1" stop-color="#4D3E5C"/>
</radialGradient>
<linearGradient id="paint25_linear_1121_44111" x1="19.4382" y1="17.9455" x2="12.5003" y2="26.8125" gradientUnits="userSpaceOnUse">
<stop stop-color="#2C2634"/>
<stop offset="0.599" stop-color="#40344C"/>
</linearGradient>
<radialGradient id="paint26_radial_1121_44111" cx="0" cy="0" r="1" gradientUnits="userSpaceOnUse" gradientTransform="translate(18.3814 21.7575) rotate(143.911) scale(5.62198 5.25279)">
<stop offset="0.068" stop-color="#67616D"/>
<stop offset="1" stop-color="#4D3E5C"/>
</radialGradient>
<radialGradient id="paint27_radial_1121_44111" cx="0" cy="0" r="1" gradientUnits="userSpaceOnUse" gradientTransform="translate(18.3751 21.0938) rotate(147.397) scale(7.30776 7.07082)">
<stop offset="0.78" stop-color="#554863" stop-opacity="0"/>
<stop offset="0.985" stop-color="#554863"/>
</radialGradient>
<linearGradient id="paint28_linear_1121_44111" x1="17.2809" y1="25.1875" x2="14.0629" y2="20.9065" gradientUnits="userSpaceOnUse">
<stop stop-color="#463755"/>
<stop offset="1" stop-color="#473F51"/>
</linearGradient>
<radialGradient id="paint29_radial_1121_44111" cx="0" cy="0" r="1" gradientUnits="userSpaceOnUse" gradientTransform="translate(14.3747 24.7498) rotate(-48.614) scale(4.20681 2.88478)">
<stop stop-color="#544E5C"/>
<stop offset="1" stop-color="#544E5C" stop-opacity="0"/>
</radialGradient>
<radialGradient id="paint30_radial_1121_44111" cx="0" cy="0" r="1" gradientUnits="userSpaceOnUse" gradientTransform="translate(18.453 20.8433) rotate(146.088) scale(2.24049)">
<stop stop-color="#544E5C"/>
<stop offset="1" stop-color="#544E5C" stop-opacity="0"/>
</radialGradient>
<linearGradient id="paint31_linear_1121_44111" x1="18.0358" y1="20.1563" x2="18.4054" y2="21.9687" gradientUnits="userSpaceOnUse">
<stop offset="0.051" stop-color="#F3F2F4"/>
<stop offset="1" stop-color="#F3F2F4" stop-opacity="0"/>
</linearGradient>
</defs>
</svg>
