<svg width="32" height="33" viewBox="0 0 32 33" fill="none" xmlns="http://www.w3.org/2000/svg">
<g filter="url(#filter0_i_1121_44070)">
<path d="M7.45666 12.1945C8.13061 11.1123 9.19253 10.3283 10.4253 10.003C11.658 9.67775 12.9685 9.83567 14.0887 10.4445L16.9687 12.0095L12.6627 19.0895L11.2487 15.5495L6.93166 23.0685C6.76472 23.3599 6.54154 23.6153 6.27508 23.8197C6.00862 24.0242 5.70419 24.1736 5.37948 24.2594C5.05477 24.3452 4.71625 24.3656 4.38359 24.3194C4.05092 24.2733 3.73075 24.1615 3.44166 23.9905L3.32566 23.9215C3.03718 23.7511 2.78535 23.5252 2.58473 23.2568C2.38411 22.9884 2.23868 22.683 2.15685 22.3581C2.07501 22.0332 2.0584 21.6952 2.10798 21.3639C2.15755 21.0325 2.27232 20.7142 2.44566 20.4275L6.06566 14.4415L6.06066 14.4375L6.34066 13.9865L6.92466 13.0225C7.09466 12.7395 7.26266 12.4665 7.45666 12.1945Z" fill="url(#paint0_linear_1121_44070)"/>
<path d="M7.45666 12.1945C8.13061 11.1123 9.19253 10.3283 10.4253 10.003C11.658 9.67775 12.9685 9.83567 14.0887 10.4445L16.9687 12.0095L12.6627 19.0895L11.2487 15.5495L6.93166 23.0685C6.76472 23.3599 6.54154 23.6153 6.27508 23.8197C6.00862 24.0242 5.70419 24.1736 5.37948 24.2594C5.05477 24.3452 4.71625 24.3656 4.38359 24.3194C4.05092 24.2733 3.73075 24.1615 3.44166 23.9905L3.32566 23.9215C3.03718 23.7511 2.78535 23.5252 2.58473 23.2568C2.38411 22.9884 2.23868 22.683 2.15685 22.3581C2.07501 22.0332 2.0584 21.6952 2.10798 21.3639C2.15755 21.0325 2.27232 20.7142 2.44566 20.4275L6.06566 14.4415L6.06066 14.4375L6.34066 13.9865L6.92466 13.0225C7.09466 12.7395 7.26266 12.4665 7.45666 12.1945Z" fill="url(#paint1_radial_1121_44070)"/>
<path d="M7.45666 12.1945C8.13061 11.1123 9.19253 10.3283 10.4253 10.003C11.658 9.67775 12.9685 9.83567 14.0887 10.4445L16.9687 12.0095L12.6627 19.0895L11.2487 15.5495L6.93166 23.0685C6.76472 23.3599 6.54154 23.6153 6.27508 23.8197C6.00862 24.0242 5.70419 24.1736 5.37948 24.2594C5.05477 24.3452 4.71625 24.3656 4.38359 24.3194C4.05092 24.2733 3.73075 24.1615 3.44166 23.9905L3.32566 23.9215C3.03718 23.7511 2.78535 23.5252 2.58473 23.2568C2.38411 22.9884 2.23868 22.683 2.15685 22.3581C2.07501 22.0332 2.0584 21.6952 2.10798 21.3639C2.15755 21.0325 2.27232 20.7142 2.44566 20.4275L6.06566 14.4415L6.06066 14.4375L6.34066 13.9865L6.92466 13.0225C7.09466 12.7395 7.26266 12.4665 7.45666 12.1945Z" fill="url(#paint2_linear_1121_44070)"/>
</g>
<path d="M15.173 28.0535L14.502 26.3295L15.854 24.3435H29.884V28.9225C29.884 29.4529 29.6732 29.9616 29.2982 30.3367C28.9231 30.7118 28.4144 30.9225 27.884 30.9225H19.367C18.4602 30.9225 17.5746 30.6486 16.8262 30.1366C16.0779 29.6247 15.5016 28.8986 15.173 28.0535Z" fill="url(#paint3_linear_1121_44070)"/>
<path d="M15.173 28.0535L14.502 26.3295L15.854 24.3435H29.884V28.9225C29.884 29.4529 29.6732 29.9616 29.2982 30.3367C28.9231 30.7118 28.4144 30.9225 27.884 30.9225H19.367C18.4602 30.9225 17.5746 30.6486 16.8262 30.1366C16.0779 29.6247 15.5016 28.8986 15.173 28.0535Z" fill="url(#paint4_linear_1121_44070)"/>
<path d="M15.173 28.0535L14.502 26.3295L15.854 24.3435H29.884V28.9225C29.884 29.4529 29.6732 29.9616 29.2982 30.3367C28.9231 30.7118 28.4144 30.9225 27.884 30.9225H19.367C18.4602 30.9225 17.5746 30.6486 16.8262 30.1366C16.0779 29.6247 15.5016 28.8986 15.173 28.0535Z" fill="url(#paint5_radial_1121_44070)"/>
<path d="M14.7646 26.2455C14.7646 24.9112 13.6829 23.8295 12.3486 23.8295C11.0143 23.8295 9.93262 24.9112 9.93262 26.2455V28.3985C9.93262 29.7328 11.0143 30.8145 12.3486 30.8145C13.6829 30.8145 14.7646 29.7328 14.7646 28.3985V26.2455Z" fill="url(#paint6_radial_1121_44070)"/>
<path d="M14.7646 26.2455C14.7646 24.9112 13.6829 23.8295 12.3486 23.8295C11.0143 23.8295 9.93262 24.9112 9.93262 26.2455V28.3985C9.93262 29.7328 11.0143 30.8145 12.3486 30.8145C13.6829 30.8145 14.7646 29.7328 14.7646 28.3985V26.2455Z" fill="url(#paint7_radial_1121_44070)"/>
<path d="M14.7646 26.2455C14.7646 24.9112 13.6829 23.8295 12.3486 23.8295C11.0143 23.8295 9.93262 24.9112 9.93262 26.2455V28.3985C9.93262 29.7328 11.0143 30.8145 12.3486 30.8145C13.6829 30.8145 14.7646 29.7328 14.7646 28.3985V26.2455Z" fill="url(#paint8_linear_1121_44070)"/>
<path d="M18.1394 3.2035C18.1722 3.14642 18.2159 3.09637 18.268 3.05622C18.3201 3.01606 18.3797 2.98659 18.4432 2.9695C18.5068 2.9524 18.573 2.94802 18.6383 2.9566C18.7035 2.96518 18.7664 2.98656 18.8234 3.0195L21.7864 4.7295C21.9009 4.79563 21.9845 4.9044 22.019 5.03202C22.0535 5.15964 22.036 5.29572 21.9704 5.4105L8.42941 29.0575C8.38028 29.1432 8.30686 29.2125 8.21841 29.2565L5.04241 30.8315C4.88041 30.9115 4.74441 30.8315 4.73641 30.6515L4.51041 27.1105C4.50557 27.0152 4.52813 26.9204 4.57541 26.8375L18.1394 3.2035Z" fill="url(#paint9_radial_1121_44070)"/>
<path d="M18.1394 3.2035C18.1722 3.14642 18.2159 3.09637 18.268 3.05622C18.3201 3.01606 18.3797 2.98659 18.4432 2.9695C18.5068 2.9524 18.573 2.94802 18.6383 2.9566C18.7035 2.96518 18.7664 2.98656 18.8234 3.0195L21.7864 4.7295C21.9009 4.79563 21.9845 4.9044 22.019 5.03202C22.0535 5.15964 22.036 5.29572 21.9704 5.4105L8.42941 29.0575C8.38028 29.1432 8.30686 29.2125 8.21841 29.2565L5.04241 30.8315C4.88041 30.9115 4.74441 30.8315 4.73641 30.6515L4.51041 27.1105C4.50557 27.0152 4.52813 26.9204 4.57541 26.8375L18.1394 3.2035Z" fill="url(#paint10_radial_1121_44070)"/>
<g filter="url(#filter1_f_1121_44070)">
<path d="M17.2405 9.3195L8.18945 25.2565" stroke="url(#paint11_linear_1121_44070)" stroke-linecap="round"/>
</g>
<g filter="url(#filter2_i_1121_44070)">
<path d="M9.93225 22.9675C8.68125 23.8425 8.27925 25.6015 9.09425 26.8915C9.93025 28.2125 11.7682 28.6005 13.0992 27.7815L16.6292 25.6075C16.7324 25.544 16.8472 25.5018 16.9669 25.4832C17.0866 25.4646 17.2088 25.47 17.3264 25.4991C17.444 25.5283 17.5546 25.5805 17.6517 25.6529C17.7489 25.7252 17.8306 25.8162 17.8922 25.9205C18.5581 27.0459 19.5325 27.9568 20.7001 28.5454C21.8677 29.134 23.1796 29.3756 24.4802 29.2415L28.3122 28.8475C28.743 28.803 29.1419 28.6003 29.4319 28.2788C29.7218 27.9572 29.8823 27.5395 29.8822 27.1065V19.9765C29.8799 19.4225 29.7139 18.8815 29.405 18.4216C29.0962 17.9616 28.6582 17.6033 28.1462 17.3915C25.9192 16.4635 21.8642 14.7025 17.8512 12.6065L13.1102 20.8865L9.93225 22.9675Z" fill="url(#paint12_linear_1121_44070)"/>
<path d="M9.93225 22.9675C8.68125 23.8425 8.27925 25.6015 9.09425 26.8915C9.93025 28.2125 11.7682 28.6005 13.0992 27.7815L16.6292 25.6075C16.7324 25.544 16.8472 25.5018 16.9669 25.4832C17.0866 25.4646 17.2088 25.47 17.3264 25.4991C17.444 25.5283 17.5546 25.5805 17.6517 25.6529C17.7489 25.7252 17.8306 25.8162 17.8922 25.9205C18.5581 27.0459 19.5325 27.9568 20.7001 28.5454C21.8677 29.134 23.1796 29.3756 24.4802 29.2415L28.3122 28.8475C28.743 28.803 29.1419 28.6003 29.4319 28.2788C29.7218 27.9572 29.8823 27.5395 29.8822 27.1065V19.9765C29.8799 19.4225 29.7139 18.8815 29.405 18.4216C29.0962 17.9616 28.6582 17.6033 28.1462 17.3915C25.9192 16.4635 21.8642 14.7025 17.8512 12.6065L13.1102 20.8865L9.93225 22.9675Z" fill="url(#paint13_radial_1121_44070)"/>
<path d="M9.93225 22.9675C8.68125 23.8425 8.27925 25.6015 9.09425 26.8915C9.93025 28.2125 11.7682 28.6005 13.0992 27.7815L16.6292 25.6075C16.7324 25.544 16.8472 25.5018 16.9669 25.4832C17.0866 25.4646 17.2088 25.47 17.3264 25.4991C17.444 25.5283 17.5546 25.5805 17.6517 25.6529C17.7489 25.7252 17.8306 25.8162 17.8922 25.9205C18.5581 27.0459 19.5325 27.9568 20.7001 28.5454C21.8677 29.134 23.1796 29.3756 24.4802 29.2415L28.3122 28.8475C28.743 28.803 29.1419 28.6003 29.4319 28.2788C29.7218 27.9572 29.8823 27.5395 29.8822 27.1065V19.9765C29.8799 19.4225 29.7139 18.8815 29.405 18.4216C29.0962 17.9616 28.6582 17.6033 28.1462 17.3915C25.9192 16.4635 21.8642 14.7025 17.8512 12.6065L13.1102 20.8865L9.93225 22.9675Z" fill="url(#paint14_radial_1121_44070)"/>
<path d="M9.93225 22.9675C8.68125 23.8425 8.27925 25.6015 9.09425 26.8915C9.93025 28.2125 11.7682 28.6005 13.0992 27.7815L16.6292 25.6075C16.7324 25.544 16.8472 25.5018 16.9669 25.4832C17.0866 25.4646 17.2088 25.47 17.3264 25.4991C17.444 25.5283 17.5546 25.5805 17.6517 25.6529C17.7489 25.7252 17.8306 25.8162 17.8922 25.9205C18.5581 27.0459 19.5325 27.9568 20.7001 28.5454C21.8677 29.134 23.1796 29.3756 24.4802 29.2415L28.3122 28.8475C28.743 28.803 29.1419 28.6003 29.4319 28.2788C29.7218 27.9572 29.8823 27.5395 29.8822 27.1065V19.9765C29.8799 19.4225 29.7139 18.8815 29.405 18.4216C29.0962 17.9616 28.6582 17.6033 28.1462 17.3915C25.9192 16.4635 21.8642 14.7025 17.8512 12.6065L13.1102 20.8865L9.93225 22.9675Z" fill="url(#paint15_linear_1121_44070)"/>
</g>
<path d="M9.93225 22.9675C8.68125 23.8425 8.27925 25.6015 9.09425 26.8915C9.93025 28.2125 11.7682 28.6005 13.0992 27.7815L16.6292 25.6075C16.7324 25.544 16.8472 25.5018 16.9669 25.4832C17.0866 25.4646 17.2088 25.47 17.3264 25.4991C17.444 25.5283 17.5546 25.5805 17.6517 25.6529C17.7489 25.7252 17.8306 25.8162 17.8922 25.9205C18.5581 27.0459 19.5325 27.9568 20.7001 28.5454C21.8677 29.134 23.1796 29.3756 24.4802 29.2415L28.3122 28.8475C28.743 28.803 29.1419 28.6003 29.4319 28.2788C29.7218 27.9572 29.8823 27.5395 29.8822 27.1065V19.9765C29.8799 19.4225 29.7139 18.8815 29.405 18.4216C29.0962 17.9616 28.6582 17.6033 28.1462 17.3915C25.9192 16.4635 21.8642 14.7025 17.8512 12.6065L13.1102 20.8865L9.93225 22.9675Z" fill="url(#paint16_linear_1121_44070)"/>
<path d="M9.93225 22.9675C8.68125 23.8425 8.27925 25.6015 9.09425 26.8915C9.93025 28.2125 11.7682 28.6005 13.0992 27.7815L16.6292 25.6075C16.7324 25.544 16.8472 25.5018 16.9669 25.4832C17.0866 25.4646 17.2088 25.47 17.3264 25.4991C17.444 25.5283 17.5546 25.5805 17.6517 25.6529C17.7489 25.7252 17.8306 25.8162 17.8922 25.9205C18.5581 27.0459 19.5325 27.9568 20.7001 28.5454C21.8677 29.134 23.1796 29.3756 24.4802 29.2415L28.3122 28.8475C28.743 28.803 29.1419 28.6003 29.4319 28.2788C29.7218 27.9572 29.8823 27.5395 29.8822 27.1065V19.9765C29.8799 19.4225 29.7139 18.8815 29.405 18.4216C29.0962 17.9616 28.6582 17.6033 28.1462 17.3915C25.9192 16.4635 21.8642 14.7025 17.8512 12.6065L13.1102 20.8865L9.93225 22.9675Z" fill="url(#paint17_linear_1121_44070)"/>
<path d="M16.9242 14.2245L13.1172 20.8745L14.8752 19.7705C15.9165 19.1163 17.1545 18.8483 18.3732 19.0135L20.8042 19.3435L16.9242 14.2245Z" fill="url(#paint18_radial_1121_44070)"/>
<path d="M16 6.93251L17.073 5.06351L20.896 7.28851L19.826 9.15851L16 6.93251Z" fill="url(#paint19_linear_1121_44070)"/>
<path d="M16 6.93251L17.073 5.06351L20.896 7.28851L19.826 9.15851L16 6.93251Z" fill="url(#paint20_linear_1121_44070)"/>
<path d="M8.3855 29.1195C8.34008 29.1765 8.28274 29.223 8.2175 29.2555L5.0415 30.8305C4.8795 30.9105 4.7435 30.8305 4.7355 30.6505L4.5095 27.1095C4.50646 27.0524 4.51322 26.9953 4.5295 26.9405L8.3855 29.1195Z" fill="url(#paint21_linear_1121_44070)"/>
<path d="M8.3855 29.1195C8.34008 29.1765 8.28274 29.223 8.2175 29.2555L5.0415 30.8305C4.8795 30.9105 4.7435 30.8305 4.7355 30.6505L4.5095 27.1095C4.50646 27.0524 4.51322 26.9953 4.5295 26.9405L8.3855 29.1195Z" fill="url(#paint22_linear_1121_44070)"/>
<path d="M8.3855 29.1195C8.34008 29.1765 8.28274 29.223 8.2175 29.2555L5.0415 30.8305C4.8795 30.9105 4.7435 30.8305 4.7355 30.6505L4.5095 27.1095C4.50646 27.0524 4.51322 26.9953 4.5295 26.9405L8.3855 29.1195Z" fill="url(#paint23_linear_1121_44070)"/>
<path d="M5.85873 30.4255L5.04173 30.8305C4.87973 30.9105 4.74373 30.8305 4.73573 30.6505L4.67773 29.7445L5.85873 30.4245V30.4255Z" fill="url(#paint24_linear_1121_44070)"/>
<g filter="url(#filter3_f_1121_44070)">
<path d="M17.8172 21.5575L12.1852 24.5995C12.1056 24.6428 12.0354 24.7014 11.9784 24.7719C11.9215 24.8424 11.879 24.9234 11.8534 25.0103C11.8277 25.0972 11.8195 25.1884 11.8291 25.2785C11.8386 25.3686 11.8659 25.4559 11.9092 25.5355C11.9526 25.6151 12.0111 25.6853 12.0816 25.7423C12.1521 25.7992 12.2331 25.8417 12.3201 25.8673C12.407 25.893 12.4981 25.9012 12.5882 25.8917C12.6783 25.8821 12.7656 25.8548 12.8452 25.8115L17.9072 23.0395C18.1535 22.9048 18.4254 22.8234 18.7052 22.8006C18.985 22.7779 19.2664 22.8143 19.5312 22.9075L28.6282 26.1075V21.1975H19.2422C18.7447 21.1975 18.255 21.3212 17.8172 21.5575Z" fill="url(#paint25_linear_1121_44070)"/>
</g>
<path d="M13.1172 20.8735L14.8752 19.7705C15.9166 19.1162 17.1546 18.8483 18.3732 19.0135L19.8412 19.2135L17.9022 25.9365L17.8922 25.9205C17.8306 25.8162 17.7489 25.7252 17.6517 25.6529C17.5546 25.5805 17.444 25.5283 17.3264 25.4991C17.2088 25.47 17.0866 25.4646 16.9669 25.4832C16.8472 25.5018 16.7324 25.544 16.6292 25.6075L13.0992 27.7805C11.7692 28.6005 9.93025 28.2125 9.09425 26.8905C8.27925 25.6015 8.68125 23.8425 9.93225 22.9685L13.1102 20.8865L13.1172 20.8735Z" fill="url(#paint26_linear_1121_44070)"/>
<path d="M13.1172 20.8735L14.8752 19.7705C15.9166 19.1162 17.1546 18.8483 18.3732 19.0135L19.8412 19.2135L17.9022 25.9365L17.8922 25.9205C17.8306 25.8162 17.7489 25.7252 17.6517 25.6529C17.5546 25.5805 17.444 25.5283 17.3264 25.4991C17.2088 25.47 17.0866 25.4646 16.9669 25.4832C16.8472 25.5018 16.7324 25.544 16.6292 25.6075L13.0992 27.7805C11.7692 28.6005 9.93025 28.2125 9.09425 26.8905C8.27925 25.6015 8.68125 23.8425 9.93225 22.9685L13.1102 20.8865L13.1172 20.8735Z" fill="url(#paint27_radial_1121_44070)"/>
<path d="M13.1172 20.8735L14.8752 19.7705C15.9166 19.1162 17.1546 18.8483 18.3732 19.0135L19.8412 19.2135L17.9022 25.9365L17.8922 25.9205C17.8306 25.8162 17.7489 25.7252 17.6517 25.6529C17.5546 25.5805 17.444 25.5283 17.3264 25.4991C17.2088 25.47 17.0866 25.4646 16.9669 25.4832C16.8472 25.5018 16.7324 25.544 16.6292 25.6075L13.0992 27.7805C11.7692 28.6005 9.93025 28.2125 9.09425 26.8905C8.27925 25.6015 8.68125 23.8425 9.93225 22.9685L13.1102 20.8865L13.1172 20.8735Z" fill="url(#paint28_radial_1121_44070)"/>
<g filter="url(#filter4_f_1121_44070)">
<path d="M18.7188 3.44051L21.5667 5.17751" stroke="url(#paint29_linear_1121_44070)" stroke-width="0.25" stroke-linecap="round"/>
</g>
<defs>
<filter id="filter0_i_1121_44070" x="1.78008" y="8.83755" width="15.1887" height="15.5059" filterUnits="userSpaceOnUse" color-interpolation-filters="sRGB">
<feFlood flood-opacity="0" result="BackgroundImageFix"/>
<feBlend mode="normal" in="SourceGraphic" in2="BackgroundImageFix" result="shape"/>
<feColorMatrix in="SourceAlpha" type="matrix" values="0 0 0 0 0 0 0 0 0 0 0 0 0 0 0 0 0 0 127 0" result="hardAlpha"/>
<feOffset dx="-0.3" dy="-1"/>
<feGaussianBlur stdDeviation="1"/>
<feComposite in2="hardAlpha" operator="arithmetic" k2="-1" k3="1"/>
<feColorMatrix type="matrix" values="0 0 0 0 0.74902 0 0 0 0 0.431373 0 0 0 0 0.384314 0 0 0 1 0"/>
<feBlend mode="normal" in2="shape" result="effect1_innerShadow_1121_44070"/>
</filter>
<filter id="filter1_f_1121_44070" x="6.68945" y="7.81941" width="12.0508" height="18.9372" filterUnits="userSpaceOnUse" color-interpolation-filters="sRGB">
<feFlood flood-opacity="0" result="BackgroundImageFix"/>
<feBlend mode="normal" in="SourceGraphic" in2="BackgroundImageFix" result="shape"/>
<feGaussianBlur stdDeviation="0.5" result="effect1_foregroundBlur_1121_44070"/>
</filter>
<filter id="filter2_i_1121_44070" x="8.66992" y="12.3565" width="21.2119" height="16.921" filterUnits="userSpaceOnUse" color-interpolation-filters="sRGB">
<feFlood flood-opacity="0" result="BackgroundImageFix"/>
<feBlend mode="normal" in="SourceGraphic" in2="BackgroundImageFix" result="shape"/>
<feColorMatrix in="SourceAlpha" type="matrix" values="0 0 0 0 0 0 0 0 0 0 0 0 0 0 0 0 0 0 127 0" result="hardAlpha"/>
<feOffset dy="-0.25"/>
<feGaussianBlur stdDeviation="0.25"/>
<feComposite in2="hardAlpha" operator="arithmetic" k2="-1" k3="1"/>
<feColorMatrix type="matrix" values="0 0 0 0 0.737255 0 0 0 0 0.498039 0 0 0 0 0.611765 0 0 0 1 0"/>
<feBlend mode="normal" in2="shape" result="effect1_innerShadow_1121_44070"/>
</filter>
<filter id="filter3_f_1121_44070" x="9.8252" y="19.1975" width="20.8027" height="8.91" filterUnits="userSpaceOnUse" color-interpolation-filters="sRGB">
<feFlood flood-opacity="0" result="BackgroundImageFix"/>
<feBlend mode="normal" in="SourceGraphic" in2="BackgroundImageFix" result="shape"/>
<feGaussianBlur stdDeviation="1" result="effect1_foregroundBlur_1121_44070"/>
</filter>
<filter id="filter4_f_1121_44070" x="18.3438" y="3.06549" width="3.59766" height="2.48703" filterUnits="userSpaceOnUse" color-interpolation-filters="sRGB">
<feFlood flood-opacity="0" result="BackgroundImageFix"/>
<feBlend mode="normal" in="SourceGraphic" in2="BackgroundImageFix" result="shape"/>
<feGaussianBlur stdDeviation="0.125" result="effect1_foregroundBlur_1121_44070"/>
</filter>
<linearGradient id="paint0_linear_1121_44070" x1="12.2287" y1="10.7905" x2="5.29966" y2="22.6995" gradientUnits="userSpaceOnUse">
<stop stop-color="#ECB8A0"/>
<stop offset="1" stop-color="#DE9F93"/>
</linearGradient>
<radialGradient id="paint1_radial_1121_44070" cx="0" cy="0" r="1" gradientUnits="userSpaceOnUse" gradientTransform="translate(14.4389 10.9626) rotate(151.144) scale(2.4229 2.39271)">
<stop stop-color="#D89F83"/>
<stop offset="1" stop-color="#D89F83" stop-opacity="0"/>
</radialGradient>
<linearGradient id="paint2_linear_1121_44070" x1="3.70166" y1="17.6805" x2="4.55466" y2="18.2205" gradientUnits="userSpaceOnUse">
<stop stop-color="#E9B499"/>
<stop offset="1" stop-color="#E9B499" stop-opacity="0"/>
</linearGradient>
<linearGradient id="paint3_linear_1121_44070" x1="16.529" y1="25.2255" x2="23.094" y2="31.3475" gradientUnits="userSpaceOnUse">
<stop stop-color="#D48F8B"/>
<stop offset="1" stop-color="#B27A98"/>
</linearGradient>
<linearGradient id="paint4_linear_1121_44070" x1="30.064" y1="30.9225" x2="28.992" y2="30.9225" gradientUnits="userSpaceOnUse">
<stop stop-color="#F3CCB9"/>
<stop offset="1" stop-color="#F3CCB9" stop-opacity="0"/>
</linearGradient>
<radialGradient id="paint5_radial_1121_44070" cx="0" cy="0" r="1" gradientUnits="userSpaceOnUse" gradientTransform="translate(14.502 27.2285) rotate(-25.5699) scale(1.22777 2.87074)">
<stop stop-color="#AF6C6A"/>
<stop offset="1" stop-color="#AF6C6A" stop-opacity="0"/>
</radialGradient>
<radialGradient id="paint6_radial_1121_44070" cx="0" cy="0" r="1" gradientUnits="userSpaceOnUse" gradientTransform="translate(14.0256 26.8915) rotate(121.322) scale(4.59189 5.53282)">
<stop stop-color="#BE7E8A"/>
<stop offset="1" stop-color="#B47079"/>
</radialGradient>
<radialGradient id="paint7_radial_1121_44070" cx="0" cy="0" r="1" gradientUnits="userSpaceOnUse" gradientTransform="translate(12.3486 26.4875) rotate(90) scale(4.4973 3.95465)">
<stop offset="0.776" stop-color="#B97B96" stop-opacity="0"/>
<stop offset="1" stop-color="#B97B96"/>
</radialGradient>
<linearGradient id="paint8_linear_1121_44070" x1="9.33262" y1="28.1995" x2="11.1296" y2="28.1995" gradientUnits="userSpaceOnUse">
<stop stop-color="#E4A996"/>
<stop offset="1" stop-color="#E4A996" stop-opacity="0"/>
</linearGradient>
<radialGradient id="paint9_radial_1121_44070" cx="0" cy="0" r="1" gradientUnits="userSpaceOnUse" gradientTransform="translate(9.77941 22.4335) rotate(-60.825) scale(18.5343 7.81888)">
<stop stop-color="#DA7838"/>
<stop offset="1" stop-color="#F14E4B"/>
</radialGradient>
<radialGradient id="paint10_radial_1121_44070" cx="0" cy="0" r="1" gradientUnits="userSpaceOnUse" gradientTransform="translate(12.4414 22.6825) rotate(-57.9221) scale(5.23706 3.61201)">
<stop stop-color="#B94D0B"/>
<stop offset="1" stop-color="#B94D0B" stop-opacity="0"/>
</radialGradient>
<linearGradient id="paint11_linear_1121_44070" x1="10.0965" y1="23.5685" x2="18.2235" y2="9.3195" gradientUnits="userSpaceOnUse">
<stop stop-color="#E98D53"/>
<stop offset="1" stop-color="#E98D53" stop-opacity="0"/>
</linearGradient>
<linearGradient id="paint12_linear_1121_44070" x1="17.9482" y1="14.4115" x2="28.3882" y2="24.9205" gradientUnits="userSpaceOnUse">
<stop stop-color="#FFCDB2"/>
<stop offset="1" stop-color="#F4C1B3"/>
</linearGradient>
<radialGradient id="paint13_radial_1121_44070" cx="0" cy="0" r="1" gradientUnits="userSpaceOnUse" gradientTransform="translate(22.7752 31.2915) rotate(-135.161) scale(9.85968 6.28011)">
<stop offset="0.212" stop-color="#C88A97"/>
<stop offset="1" stop-color="#C88A97" stop-opacity="0"/>
</radialGradient>
<radialGradient id="paint14_radial_1121_44070" cx="0" cy="0" r="1" gradientUnits="userSpaceOnUse" gradientTransform="translate(28.8233 19.1955) rotate(149.931) scale(5.17395 1.57367)">
<stop stop-color="#FFE5C6"/>
<stop offset="1" stop-color="#FFE5C6" stop-opacity="0"/>
</radialGradient>
<linearGradient id="paint15_linear_1121_44070" x1="24.3742" y1="14.7815" x2="23.3742" y2="16.7185" gradientUnits="userSpaceOnUse">
<stop stop-color="#FFD3B5"/>
<stop offset="1" stop-color="#FFD3B5" stop-opacity="0"/>
</linearGradient>
<linearGradient id="paint16_linear_1121_44070" x1="23.8132" y1="15.0625" x2="22.0002" y2="18.8125" gradientUnits="userSpaceOnUse">
<stop stop-color="#F9D5BC"/>
<stop offset="1" stop-color="#F9D5BC" stop-opacity="0"/>
</linearGradient>
<linearGradient id="paint17_linear_1121_44070" x1="30.3752" y1="22.1255" x2="27.8132" y2="22.1255" gradientUnits="userSpaceOnUse">
<stop stop-color="#F9D5BC"/>
<stop offset="1" stop-color="#F9D5BC" stop-opacity="0"/>
</linearGradient>
<radialGradient id="paint18_radial_1121_44070" cx="0" cy="0" r="1" gradientUnits="userSpaceOnUse" gradientTransform="translate(13.1712 21.2815) rotate(-46.17) scale(7.06149 8.34366)">
<stop offset="0.117" stop-color="#D78F83"/>
<stop offset="0.576" stop-color="#D67965"/>
<stop offset="1" stop-color="#D67965" stop-opacity="0"/>
</radialGradient>
<linearGradient id="paint19_linear_1121_44070" x1="15.539" y1="5.42451" x2="19.525" y2="7.43851" gradientUnits="userSpaceOnUse">
<stop stop-color="#9E999F"/>
<stop offset="1" stop-color="#D9CCEC"/>
</linearGradient>
<linearGradient id="paint20_linear_1121_44070" x1="20.896" y1="8.39051" x2="19.969" y2="7.81251" gradientUnits="userSpaceOnUse">
<stop stop-color="#9C979A"/>
<stop offset="1" stop-color="#9C979A" stop-opacity="0"/>
</linearGradient>
<linearGradient id="paint21_linear_1121_44070" x1="4.9385" y1="28.9015" x2="6.2145" y2="29.2885" gradientUnits="userSpaceOnUse">
<stop stop-color="#CE8C7F"/>
<stop offset="1" stop-color="#E79196"/>
</linearGradient>
<linearGradient id="paint22_linear_1121_44070" x1="7.6895" y1="30.4465" x2="6.2565" y2="29.6195" gradientUnits="userSpaceOnUse">
<stop stop-color="#E086A3"/>
<stop offset="1" stop-color="#E086A3" stop-opacity="0"/>
</linearGradient>
<linearGradient id="paint23_linear_1121_44070" x1="6.5305" y1="27.9685" x2="6.3525" y2="28.2575" gradientUnits="userSpaceOnUse">
<stop stop-color="#EB947F"/>
<stop offset="1" stop-color="#EB947F" stop-opacity="0"/>
</linearGradient>
<linearGradient id="paint24_linear_1121_44070" x1="4.94173" y1="30.3615" x2="5.43973" y2="30.7615" gradientUnits="userSpaceOnUse">
<stop stop-color="#3B1A3B"/>
<stop offset="1" stop-color="#3F0C46"/>
</linearGradient>
<linearGradient id="paint25_linear_1121_44070" x1="14.8542" y1="23.6525" x2="31.2292" y2="24.1875" gradientUnits="userSpaceOnUse">
<stop stop-color="#FFD9C5"/>
<stop offset="1" stop-color="#FFE8CA"/>
</linearGradient>
<linearGradient id="paint26_linear_1121_44070" x1="10.5632" y1="20.7185" x2="13.3442" y2="23.5875" gradientUnits="userSpaceOnUse">
<stop stop-color="#F19D7C"/>
<stop offset="1" stop-color="#F19D7C" stop-opacity="0"/>
</linearGradient>
<radialGradient id="paint27_radial_1121_44070" cx="0" cy="0" r="1" gradientUnits="userSpaceOnUse" gradientTransform="translate(8.66925 26.9065) rotate(-34.4393) scale(4.53113 5.89016)">
<stop stop-color="#BF8288"/>
<stop offset="1" stop-color="#BF8288" stop-opacity="0"/>
</radialGradient>
<radialGradient id="paint28_radial_1121_44070" cx="0" cy="0" r="1" gradientUnits="userSpaceOnUse" gradientTransform="translate(12.0302 28.9685) rotate(-47.2026) scale(2.2998 2.85939)">
<stop stop-color="#B97C93"/>
<stop offset="1" stop-color="#B97C93" stop-opacity="0"/>
</radialGradient>
<linearGradient id="paint29_linear_1121_44070" x1="21.4277" y1="5.01551" x2="18.7187" y2="3.53351" gradientUnits="userSpaceOnUse">
<stop stop-color="#FF756D" stop-opacity="0"/>
<stop offset="0.339" stop-color="#FF756D"/>
<stop offset="1" stop-color="#FF756D" stop-opacity="0"/>
</linearGradient>
</defs>
</svg>
