<svg width="32" height="33" viewBox="0 0 32 33" fill="none" xmlns="http://www.w3.org/2000/svg">
<path d="M23.3692 2.9725H8.63125C7.19531 2.9725 6.03125 4.13656 6.03125 5.5725V28.2945C6.03125 29.7304 7.19531 30.8945 8.63125 30.8945H23.3692C24.8052 30.8945 25.9692 29.7304 25.9692 28.2945V5.5725C25.9692 4.13656 24.8052 2.9725 23.3692 2.9725Z" fill="url(#paint0_linear_1121_44217)"/>
<path d="M23.3692 2.9725H8.63125C7.19531 2.9725 6.03125 4.13656 6.03125 5.5725V28.2945C6.03125 29.7304 7.19531 30.8945 8.63125 30.8945H23.3692C24.8052 30.8945 25.9692 29.7304 25.9692 28.2945V5.5725C25.9692 4.13656 24.8052 2.9725 23.3692 2.9725Z" fill="url(#paint1_linear_1121_44217)"/>
<g filter="url(#filter0_ii_1121_44217)">
<path d="M9.20313 10.0175C9.20312 9.85838 9.26634 9.70577 9.37886 9.59325C9.49138 9.48073 9.644 9.41751 9.80313 9.41751H11.9161C12.0753 9.41751 12.2279 9.48073 12.3404 9.59325C12.4529 9.70577 12.5161 9.85838 12.5161 10.0175V12.1305C12.5161 12.2896 12.4529 12.4423 12.3404 12.5548C12.2279 12.6673 12.0753 12.7305 11.9161 12.7305H9.80313C9.644 12.7305 9.49138 12.6673 9.37886 12.5548C9.26634 12.4423 9.20312 12.2896 9.20313 12.1305V10.0175Z" fill="#FF9544"/>
<path d="M9.20313 10.0175C9.20312 9.85838 9.26634 9.70577 9.37886 9.59325C9.49138 9.48073 9.644 9.41751 9.80313 9.41751H11.9161C12.0753 9.41751 12.2279 9.48073 12.3404 9.59325C12.4529 9.70577 12.5161 9.85838 12.5161 10.0175V12.1305C12.5161 12.2896 12.4529 12.4423 12.3404 12.5548C12.2279 12.6673 12.0753 12.7305 11.9161 12.7305H9.80313C9.644 12.7305 9.49138 12.6673 9.37886 12.5548C9.26634 12.4423 9.20312 12.2896 9.20313 12.1305V10.0175Z" fill="url(#paint2_linear_1121_44217)"/>
</g>
<g filter="url(#filter1_ii_1121_44217)">
<path d="M14.3447 10.0175C14.3447 9.85838 14.4079 9.70577 14.5205 9.59325C14.633 9.48073 14.7856 9.41751 14.9447 9.41751H17.0567C17.2159 9.41751 17.3685 9.48073 17.481 9.59325C17.5935 9.70577 17.6567 9.85838 17.6567 10.0175V12.1305C17.6567 12.2896 17.5935 12.4423 17.481 12.5548C17.3685 12.6673 17.2159 12.7305 17.0567 12.7305H14.9447C14.7856 12.7305 14.633 12.6673 14.5205 12.5548C14.4079 12.4423 14.3447 12.2896 14.3447 12.1305V10.0175Z" fill="#38C6FF"/>
</g>
<g filter="url(#filter2_ii_1121_44217)">
<path d="M19.4844 10.0175C19.4844 9.85838 19.5476 9.70577 19.6601 9.59325C19.7726 9.48073 19.9252 9.41751 20.0844 9.41751H22.1974C22.3565 9.41751 22.5091 9.48073 22.6216 9.59325C22.7342 9.70577 22.7974 9.85838 22.7974 10.0175V12.1305C22.7974 12.2896 22.7342 12.4423 22.6216 12.5548C22.5091 12.6673 22.3565 12.7305 22.1974 12.7305H20.0844C19.9252 12.7305 19.7726 12.6673 19.6601 12.5548C19.5476 12.4423 19.4844 12.2896 19.4844 12.1305V10.0175Z" fill="#FFEC58"/>
</g>
<g filter="url(#filter3_ii_1121_44217)">
<path d="M9.20313 15.8775C9.20312 15.7184 9.26634 15.5658 9.37886 15.4532C9.49138 15.3407 9.644 15.2775 9.80313 15.2775H11.9161C12.0753 15.2775 12.2279 15.3407 12.3404 15.4532C12.4529 15.5658 12.5161 15.7184 12.5161 15.8775V17.9895C12.5161 18.1486 12.4529 18.3012 12.3404 18.4138C12.2279 18.5263 12.0753 18.5895 11.9161 18.5895H9.80313C9.644 18.5895 9.49138 18.5263 9.37886 18.4138C9.26634 18.3012 9.20312 18.1486 9.20313 17.9895V15.8775Z" fill="#38C6FF"/>
</g>
<g filter="url(#filter4_ii_1121_44217)">
<path d="M9.20313 21.7365C9.20312 21.5774 9.26634 21.4248 9.37886 21.3122C9.49138 21.1997 9.644 21.1365 9.80313 21.1365H11.9161C12.0753 21.1365 12.2279 21.1997 12.3404 21.3122C12.4529 21.4248 12.5161 21.5774 12.5161 21.7365V23.8485C12.5161 24.0076 12.4529 24.1602 12.3404 24.2728C12.2279 24.3853 12.0753 24.4485 11.9161 24.4485H9.80313C9.644 24.4485 9.49138 24.3853 9.37886 24.2728C9.26634 24.1602 9.20312 24.0076 9.20313 23.8485V21.7365Z" fill="#FF9544"/>
<path d="M9.20313 21.7365C9.20312 21.5774 9.26634 21.4248 9.37886 21.3122C9.49138 21.1997 9.644 21.1365 9.80313 21.1365H11.9161C12.0753 21.1365 12.2279 21.1997 12.3404 21.3122C12.4529 21.4248 12.5161 21.5774 12.5161 21.7365V23.8485C12.5161 24.0076 12.4529 24.1602 12.3404 24.2728C12.2279 24.3853 12.0753 24.4485 11.9161 24.4485H9.80313C9.644 24.4485 9.49138 24.3853 9.37886 24.2728C9.26634 24.1602 9.20312 24.0076 9.20313 23.8485V21.7365Z" fill="url(#paint3_linear_1121_44217)"/>
</g>
<g filter="url(#filter5_ii_1121_44217)">
<path d="M14.3447 15.8775C14.3447 15.7184 14.4079 15.5658 14.5205 15.4532C14.633 15.3407 14.7856 15.2775 14.9447 15.2775H17.0567C17.2159 15.2775 17.3685 15.3407 17.481 15.4532C17.5935 15.5658 17.6567 15.7184 17.6567 15.8775V17.9895C17.6567 18.1486 17.5935 18.3012 17.481 18.4138C17.3685 18.5263 17.2159 18.5895 17.0567 18.5895H14.9447C14.7856 18.5895 14.633 18.5263 14.5205 18.4138C14.4079 18.3012 14.3447 18.1486 14.3447 17.9895V15.8775Z" fill="#FFEC58"/>
</g>
<g filter="url(#filter6_ii_1121_44217)">
<path d="M14.3447 21.7365C14.3447 21.5774 14.4079 21.4248 14.5205 21.3122C14.633 21.1997 14.7856 21.1365 14.9447 21.1365H17.0567C17.2159 21.1365 17.3685 21.1997 17.481 21.3122C17.5935 21.4248 17.6567 21.5774 17.6567 21.7365V23.8485C17.6567 24.0076 17.5935 24.1602 17.481 24.2728C17.3685 24.3853 17.2159 24.4485 17.0567 24.4485H14.9447C14.7856 24.4485 14.633 24.3853 14.5205 24.2728C14.4079 24.1602 14.3447 24.0076 14.3447 23.8485V21.7365Z" fill="#38C6FF"/>
</g>
<g filter="url(#filter7_ii_1121_44217)">
<path d="M19.4844 15.8775C19.4844 15.7184 19.5476 15.5658 19.6601 15.4532C19.7726 15.3407 19.9252 15.2775 20.0844 15.2775H22.1974C22.3565 15.2775 22.5091 15.3407 22.6216 15.4532C22.7342 15.5658 22.7974 15.7184 22.7974 15.8775V17.9895C22.7974 18.1486 22.7342 18.3012 22.6216 18.4138C22.5091 18.5263 22.3565 18.5895 22.1974 18.5895H20.0844C19.9252 18.5895 19.7726 18.5263 19.6601 18.4138C19.5476 18.3012 19.4844 18.1486 19.4844 17.9895V15.8775Z" fill="#FF9544"/>
<path d="M19.4844 15.8775C19.4844 15.7184 19.5476 15.5658 19.6601 15.4532C19.7726 15.3407 19.9252 15.2775 20.0844 15.2775H22.1974C22.3565 15.2775 22.5091 15.3407 22.6216 15.4532C22.7342 15.5658 22.7974 15.7184 22.7974 15.8775V17.9895C22.7974 18.1486 22.7342 18.3012 22.6216 18.4138C22.5091 18.5263 22.3565 18.5895 22.1974 18.5895H20.0844C19.9252 18.5895 19.7726 18.5263 19.6601 18.4138C19.5476 18.3012 19.4844 18.1486 19.4844 17.9895V15.8775Z" fill="url(#paint4_linear_1121_44217)"/>
</g>
<g filter="url(#filter8_ii_1121_44217)">
<path d="M19.4844 21.7365C19.4844 21.5774 19.5476 21.4248 19.6601 21.3122C19.7726 21.1997 19.9252 21.1365 20.0844 21.1365H22.1974C22.3565 21.1365 22.5091 21.1997 22.6216 21.3122C22.7342 21.4248 22.7974 21.5774 22.7974 21.7365V23.8485C22.7974 24.0076 22.7342 24.1602 22.6216 24.2728C22.5091 24.3853 22.3565 24.4485 22.1974 24.4485H20.0844C19.9252 24.4485 19.7726 24.3853 19.6601 24.2728C19.5476 24.1602 19.4844 24.0076 19.4844 23.8485V21.7365Z" fill="#FFEC58"/>
</g>
<g filter="url(#filter9_f_1121_44217)">
<path d="M23.6885 6.53452H25.2195V28.3785H23.6885V6.53452Z" fill="url(#paint5_linear_1121_44217)"/>
</g>
<g filter="url(#filter10_i_1121_44217)">
<path d="M25.9693 7.0975H6.03027V5.5725C6.03027 5.23107 6.09752 4.89297 6.22819 4.57753C6.35885 4.26208 6.55036 3.97546 6.7918 3.73403C7.03323 3.49259 7.31985 3.30108 7.6353 3.17042C7.95074 3.03975 8.28884 2.9725 8.63027 2.9725H23.3703C23.7117 2.9725 24.0498 3.03975 24.3652 3.17042C24.6807 3.30108 24.9673 3.49259 25.2087 3.73403C25.4502 3.97546 25.6417 4.26208 25.7724 4.57753C25.903 4.89297 25.9703 5.23107 25.9703 5.5725L25.9693 7.0975Z" fill="url(#paint6_linear_1121_44217)"/>
<path d="M25.9693 7.0975H6.03027V5.5725C6.03027 5.23107 6.09752 4.89297 6.22819 4.57753C6.35885 4.26208 6.55036 3.97546 6.7918 3.73403C7.03323 3.49259 7.31985 3.30108 7.6353 3.17042C7.95074 3.03975 8.28884 2.9725 8.63027 2.9725H23.3703C23.7117 2.9725 24.0498 3.03975 24.3652 3.17042C24.6807 3.30108 24.9673 3.49259 25.2087 3.73403C25.4502 3.97546 25.6417 4.26208 25.7724 4.57753C25.903 4.89297 25.9703 5.23107 25.9703 5.5725L25.9693 7.0975Z" fill="url(#paint7_linear_1121_44217)"/>
<path d="M25.9693 7.0975H6.03027V5.5725C6.03027 5.23107 6.09752 4.89297 6.22819 4.57753C6.35885 4.26208 6.55036 3.97546 6.7918 3.73403C7.03323 3.49259 7.31985 3.30108 7.6353 3.17042C7.95074 3.03975 8.28884 2.9725 8.63027 2.9725H23.3703C23.7117 2.9725 24.0498 3.03975 24.3652 3.17042C24.6807 3.30108 24.9673 3.49259 25.2087 3.73403C25.4502 3.97546 25.6417 4.26208 25.7724 4.57753C25.903 4.89297 25.9703 5.23107 25.9703 5.5725L25.9693 7.0975Z" fill="url(#paint8_linear_1121_44217)"/>
<path d="M25.9693 7.0975H6.03027V5.5725C6.03027 5.23107 6.09752 4.89297 6.22819 4.57753C6.35885 4.26208 6.55036 3.97546 6.7918 3.73403C7.03323 3.49259 7.31985 3.30108 7.6353 3.17042C7.95074 3.03975 8.28884 2.9725 8.63027 2.9725H23.3703C23.7117 2.9725 24.0498 3.03975 24.3652 3.17042C24.6807 3.30108 24.9673 3.49259 25.2087 3.73403C25.4502 3.97546 25.6417 4.26208 25.7724 4.57753C25.903 4.89297 25.9703 5.23107 25.9703 5.5725L25.9693 7.0975Z" fill="url(#paint9_linear_1121_44217)"/>
<path d="M25.9693 7.0975H6.03027V5.5725C6.03027 5.23107 6.09752 4.89297 6.22819 4.57753C6.35885 4.26208 6.55036 3.97546 6.7918 3.73403C7.03323 3.49259 7.31985 3.30108 7.6353 3.17042C7.95074 3.03975 8.28884 2.9725 8.63027 2.9725H23.3703C23.7117 2.9725 24.0498 3.03975 24.3652 3.17042C24.6807 3.30108 24.9673 3.49259 25.2087 3.73403C25.4502 3.97546 25.6417 4.26208 25.7724 4.57753C25.903 4.89297 25.9703 5.23107 25.9703 5.5725L25.9693 7.0975Z" fill="url(#paint10_radial_1121_44217)"/>
</g>
<path d="M25.9693 26.8155V28.2945C25.9693 28.6359 25.902 28.974 25.7714 29.2895C25.6407 29.6049 25.4492 29.8915 25.2078 30.133C24.9663 30.3744 24.6797 30.5659 24.3643 30.6966C24.0488 30.8272 23.7107 30.8945 23.3693 30.8945H8.63027C8.28884 30.8945 7.95074 30.8272 7.6353 30.6966C7.31985 30.5659 7.03323 30.3744 6.7918 30.133C6.55036 29.8915 6.35885 29.6049 6.22819 29.2895C6.09752 28.974 6.03027 28.6359 6.03027 28.2945V26.8155H25.9693Z" fill="url(#paint11_linear_1121_44217)"/>
<path d="M25.9693 26.8155V28.2945C25.9693 28.6359 25.902 28.974 25.7714 29.2895C25.6407 29.6049 25.4492 29.8915 25.2078 30.133C24.9663 30.3744 24.6797 30.5659 24.3643 30.6966C24.0488 30.8272 23.7107 30.8945 23.3693 30.8945H8.63027C8.28884 30.8945 7.95074 30.8272 7.6353 30.6966C7.31985 30.5659 7.03323 30.3744 6.7918 30.133C6.55036 29.8915 6.35885 29.6049 6.22819 29.2895C6.09752 28.974 6.03027 28.6359 6.03027 28.2945V26.8155H25.9693Z" fill="url(#paint12_linear_1121_44217)"/>
<path d="M25.9693 26.8155V28.2945C25.9693 28.6359 25.902 28.974 25.7714 29.2895C25.6407 29.6049 25.4492 29.8915 25.2078 30.133C24.9663 30.3744 24.6797 30.5659 24.3643 30.6966C24.0488 30.8272 23.7107 30.8945 23.3693 30.8945H8.63027C8.28884 30.8945 7.95074 30.8272 7.6353 30.6966C7.31985 30.5659 7.03323 30.3744 6.7918 30.133C6.55036 29.8915 6.35885 29.6049 6.22819 29.2895C6.09752 28.974 6.03027 28.6359 6.03027 28.2945V26.8155H25.9693Z" fill="url(#paint13_radial_1121_44217)"/>
<path d="M25.9693 26.8155V28.2945C25.9693 28.6359 25.902 28.974 25.7714 29.2895C25.6407 29.6049 25.4492 29.8915 25.2078 30.133C24.9663 30.3744 24.6797 30.5659 24.3643 30.6966C24.0488 30.8272 23.7107 30.8945 23.3693 30.8945H8.63027C8.28884 30.8945 7.95074 30.8272 7.6353 30.6966C7.31985 30.5659 7.03323 30.3744 6.7918 30.133C6.55036 29.8915 6.35885 29.6049 6.22819 29.2895C6.09752 28.974 6.03027 28.6359 6.03027 28.2945V26.8155H25.9693Z" fill="url(#paint14_linear_1121_44217)"/>
<defs>
<filter id="filter0_ii_1121_44217" x="8.90312" y="9.11751" width="3.91348" height="3.91299" filterUnits="userSpaceOnUse" color-interpolation-filters="sRGB">
<feFlood flood-opacity="0" result="BackgroundImageFix"/>
<feBlend mode="normal" in="SourceGraphic" in2="BackgroundImageFix" result="shape"/>
<feColorMatrix in="SourceAlpha" type="matrix" values="0 0 0 0 0 0 0 0 0 0 0 0 0 0 0 0 0 0 127 0" result="hardAlpha"/>
<feOffset dx="-0.3" dy="-0.3"/>
<feGaussianBlur stdDeviation="0.2"/>
<feComposite in2="hardAlpha" operator="arithmetic" k2="-1" k3="1"/>
<feColorMatrix type="matrix" values="0 0 0 0 0.913725 0 0 0 0 0.384314 0 0 0 0 0.129412 0 0 0 1 0"/>
<feBlend mode="normal" in2="shape" result="effect1_innerShadow_1121_44217"/>
<feColorMatrix in="SourceAlpha" type="matrix" values="0 0 0 0 0 0 0 0 0 0 0 0 0 0 0 0 0 0 127 0" result="hardAlpha"/>
<feOffset dx="0.3" dy="0.3"/>
<feGaussianBlur stdDeviation="0.2"/>
<feComposite in2="hardAlpha" operator="arithmetic" k2="-1" k3="1"/>
<feColorMatrix type="matrix" values="0 0 0 0 1 0 0 0 0 0.498039 0 0 0 0 0.160784 0 0 0 1 0"/>
<feBlend mode="normal" in2="effect1_innerShadow_1121_44217" result="effect2_innerShadow_1121_44217"/>
</filter>
<filter id="filter1_ii_1121_44217" x="14.0447" y="9.11751" width="3.91152" height="3.91299" filterUnits="userSpaceOnUse" color-interpolation-filters="sRGB">
<feFlood flood-opacity="0" result="BackgroundImageFix"/>
<feBlend mode="normal" in="SourceGraphic" in2="BackgroundImageFix" result="shape"/>
<feColorMatrix in="SourceAlpha" type="matrix" values="0 0 0 0 0 0 0 0 0 0 0 0 0 0 0 0 0 0 127 0" result="hardAlpha"/>
<feOffset dx="-0.3" dy="-0.3"/>
<feGaussianBlur stdDeviation="0.25"/>
<feComposite in2="hardAlpha" operator="arithmetic" k2="-1" k3="1"/>
<feColorMatrix type="matrix" values="0 0 0 0 0.0980392 0 0 0 0 0.572549 0 0 0 0 0.866667 0 0 0 1 0"/>
<feBlend mode="normal" in2="shape" result="effect1_innerShadow_1121_44217"/>
<feColorMatrix in="SourceAlpha" type="matrix" values="0 0 0 0 0 0 0 0 0 0 0 0 0 0 0 0 0 0 127 0" result="hardAlpha"/>
<feOffset dx="0.3" dy="0.3"/>
<feGaussianBlur stdDeviation="0.2"/>
<feComposite in2="hardAlpha" operator="arithmetic" k2="-1" k3="1"/>
<feColorMatrix type="matrix" values="0 0 0 0 0.0745098 0 0 0 0 0.709804 0 0 0 0 1 0 0 0 1 0"/>
<feBlend mode="normal" in2="effect1_innerShadow_1121_44217" result="effect2_innerShadow_1121_44217"/>
</filter>
<filter id="filter2_ii_1121_44217" x="19.1844" y="9.11751" width="3.91348" height="3.91299" filterUnits="userSpaceOnUse" color-interpolation-filters="sRGB">
<feFlood flood-opacity="0" result="BackgroundImageFix"/>
<feBlend mode="normal" in="SourceGraphic" in2="BackgroundImageFix" result="shape"/>
<feColorMatrix in="SourceAlpha" type="matrix" values="0 0 0 0 0 0 0 0 0 0 0 0 0 0 0 0 0 0 127 0" result="hardAlpha"/>
<feOffset dx="-0.3" dy="-0.3"/>
<feGaussianBlur stdDeviation="0.25"/>
<feComposite in2="hardAlpha" operator="arithmetic" k2="-1" k3="1"/>
<feColorMatrix type="matrix" values="0 0 0 0 0.858824 0 0 0 0 0.752941 0 0 0 0 0.188235 0 0 0 1 0"/>
<feBlend mode="normal" in2="shape" result="effect1_innerShadow_1121_44217"/>
<feColorMatrix in="SourceAlpha" type="matrix" values="0 0 0 0 0 0 0 0 0 0 0 0 0 0 0 0 0 0 127 0" result="hardAlpha"/>
<feOffset dx="0.3" dy="0.3"/>
<feGaussianBlur stdDeviation="0.2"/>
<feComposite in2="hardAlpha" operator="arithmetic" k2="-1" k3="1"/>
<feColorMatrix type="matrix" values="0 0 0 0 0.968627 0 0 0 0 0.858824 0 0 0 0 0.223529 0 0 0 1 0"/>
<feBlend mode="normal" in2="effect1_innerShadow_1121_44217" result="effect2_innerShadow_1121_44217"/>
</filter>
<filter id="filter3_ii_1121_44217" x="8.90312" y="14.9775" width="3.91348" height="3.91201" filterUnits="userSpaceOnUse" color-interpolation-filters="sRGB">
<feFlood flood-opacity="0" result="BackgroundImageFix"/>
<feBlend mode="normal" in="SourceGraphic" in2="BackgroundImageFix" result="shape"/>
<feColorMatrix in="SourceAlpha" type="matrix" values="0 0 0 0 0 0 0 0 0 0 0 0 0 0 0 0 0 0 127 0" result="hardAlpha"/>
<feOffset dx="-0.3" dy="-0.3"/>
<feGaussianBlur stdDeviation="0.25"/>
<feComposite in2="hardAlpha" operator="arithmetic" k2="-1" k3="1"/>
<feColorMatrix type="matrix" values="0 0 0 0 0.0980392 0 0 0 0 0.572549 0 0 0 0 0.866667 0 0 0 1 0"/>
<feBlend mode="normal" in2="shape" result="effect1_innerShadow_1121_44217"/>
<feColorMatrix in="SourceAlpha" type="matrix" values="0 0 0 0 0 0 0 0 0 0 0 0 0 0 0 0 0 0 127 0" result="hardAlpha"/>
<feOffset dx="0.3" dy="0.3"/>
<feGaussianBlur stdDeviation="0.2"/>
<feComposite in2="hardAlpha" operator="arithmetic" k2="-1" k3="1"/>
<feColorMatrix type="matrix" values="0 0 0 0 0.0745098 0 0 0 0 0.709804 0 0 0 0 1 0 0 0 1 0"/>
<feBlend mode="normal" in2="effect1_innerShadow_1121_44217" result="effect2_innerShadow_1121_44217"/>
</filter>
<filter id="filter4_ii_1121_44217" x="8.90312" y="20.8365" width="3.91348" height="3.91201" filterUnits="userSpaceOnUse" color-interpolation-filters="sRGB">
<feFlood flood-opacity="0" result="BackgroundImageFix"/>
<feBlend mode="normal" in="SourceGraphic" in2="BackgroundImageFix" result="shape"/>
<feColorMatrix in="SourceAlpha" type="matrix" values="0 0 0 0 0 0 0 0 0 0 0 0 0 0 0 0 0 0 127 0" result="hardAlpha"/>
<feOffset dx="-0.3" dy="-0.3"/>
<feGaussianBlur stdDeviation="0.2"/>
<feComposite in2="hardAlpha" operator="arithmetic" k2="-1" k3="1"/>
<feColorMatrix type="matrix" values="0 0 0 0 0.913725 0 0 0 0 0.384314 0 0 0 0 0.129412 0 0 0 1 0"/>
<feBlend mode="normal" in2="shape" result="effect1_innerShadow_1121_44217"/>
<feColorMatrix in="SourceAlpha" type="matrix" values="0 0 0 0 0 0 0 0 0 0 0 0 0 0 0 0 0 0 127 0" result="hardAlpha"/>
<feOffset dx="0.3" dy="0.3"/>
<feGaussianBlur stdDeviation="0.2"/>
<feComposite in2="hardAlpha" operator="arithmetic" k2="-1" k3="1"/>
<feColorMatrix type="matrix" values="0 0 0 0 1 0 0 0 0 0.498039 0 0 0 0 0.160784 0 0 0 1 0"/>
<feBlend mode="normal" in2="effect1_innerShadow_1121_44217" result="effect2_innerShadow_1121_44217"/>
</filter>
<filter id="filter5_ii_1121_44217" x="14.0447" y="14.9775" width="3.91152" height="3.91201" filterUnits="userSpaceOnUse" color-interpolation-filters="sRGB">
<feFlood flood-opacity="0" result="BackgroundImageFix"/>
<feBlend mode="normal" in="SourceGraphic" in2="BackgroundImageFix" result="shape"/>
<feColorMatrix in="SourceAlpha" type="matrix" values="0 0 0 0 0 0 0 0 0 0 0 0 0 0 0 0 0 0 127 0" result="hardAlpha"/>
<feOffset dx="-0.3" dy="-0.3"/>
<feGaussianBlur stdDeviation="0.25"/>
<feComposite in2="hardAlpha" operator="arithmetic" k2="-1" k3="1"/>
<feColorMatrix type="matrix" values="0 0 0 0 0.858824 0 0 0 0 0.752941 0 0 0 0 0.188235 0 0 0 1 0"/>
<feBlend mode="normal" in2="shape" result="effect1_innerShadow_1121_44217"/>
<feColorMatrix in="SourceAlpha" type="matrix" values="0 0 0 0 0 0 0 0 0 0 0 0 0 0 0 0 0 0 127 0" result="hardAlpha"/>
<feOffset dx="0.3" dy="0.3"/>
<feGaussianBlur stdDeviation="0.2"/>
<feComposite in2="hardAlpha" operator="arithmetic" k2="-1" k3="1"/>
<feColorMatrix type="matrix" values="0 0 0 0 0.968627 0 0 0 0 0.858824 0 0 0 0 0.223529 0 0 0 1 0"/>
<feBlend mode="normal" in2="effect1_innerShadow_1121_44217" result="effect2_innerShadow_1121_44217"/>
</filter>
<filter id="filter6_ii_1121_44217" x="14.0447" y="20.8365" width="3.91152" height="3.91201" filterUnits="userSpaceOnUse" color-interpolation-filters="sRGB">
<feFlood flood-opacity="0" result="BackgroundImageFix"/>
<feBlend mode="normal" in="SourceGraphic" in2="BackgroundImageFix" result="shape"/>
<feColorMatrix in="SourceAlpha" type="matrix" values="0 0 0 0 0 0 0 0 0 0 0 0 0 0 0 0 0 0 127 0" result="hardAlpha"/>
<feOffset dx="-0.3" dy="-0.3"/>
<feGaussianBlur stdDeviation="0.25"/>
<feComposite in2="hardAlpha" operator="arithmetic" k2="-1" k3="1"/>
<feColorMatrix type="matrix" values="0 0 0 0 0.0980392 0 0 0 0 0.572549 0 0 0 0 0.866667 0 0 0 1 0"/>
<feBlend mode="normal" in2="shape" result="effect1_innerShadow_1121_44217"/>
<feColorMatrix in="SourceAlpha" type="matrix" values="0 0 0 0 0 0 0 0 0 0 0 0 0 0 0 0 0 0 127 0" result="hardAlpha"/>
<feOffset dx="0.3" dy="0.3"/>
<feGaussianBlur stdDeviation="0.2"/>
<feComposite in2="hardAlpha" operator="arithmetic" k2="-1" k3="1"/>
<feColorMatrix type="matrix" values="0 0 0 0 0.0745098 0 0 0 0 0.709804 0 0 0 0 1 0 0 0 1 0"/>
<feBlend mode="normal" in2="effect1_innerShadow_1121_44217" result="effect2_innerShadow_1121_44217"/>
</filter>
<filter id="filter7_ii_1121_44217" x="19.1844" y="14.9775" width="3.91348" height="3.91201" filterUnits="userSpaceOnUse" color-interpolation-filters="sRGB">
<feFlood flood-opacity="0" result="BackgroundImageFix"/>
<feBlend mode="normal" in="SourceGraphic" in2="BackgroundImageFix" result="shape"/>
<feColorMatrix in="SourceAlpha" type="matrix" values="0 0 0 0 0 0 0 0 0 0 0 0 0 0 0 0 0 0 127 0" result="hardAlpha"/>
<feOffset dx="-0.3" dy="-0.3"/>
<feGaussianBlur stdDeviation="0.2"/>
<feComposite in2="hardAlpha" operator="arithmetic" k2="-1" k3="1"/>
<feColorMatrix type="matrix" values="0 0 0 0 0.913725 0 0 0 0 0.384314 0 0 0 0 0.129412 0 0 0 1 0"/>
<feBlend mode="normal" in2="shape" result="effect1_innerShadow_1121_44217"/>
<feColorMatrix in="SourceAlpha" type="matrix" values="0 0 0 0 0 0 0 0 0 0 0 0 0 0 0 0 0 0 127 0" result="hardAlpha"/>
<feOffset dx="0.3" dy="0.3"/>
<feGaussianBlur stdDeviation="0.2"/>
<feComposite in2="hardAlpha" operator="arithmetic" k2="-1" k3="1"/>
<feColorMatrix type="matrix" values="0 0 0 0 1 0 0 0 0 0.498039 0 0 0 0 0.160784 0 0 0 1 0"/>
<feBlend mode="normal" in2="effect1_innerShadow_1121_44217" result="effect2_innerShadow_1121_44217"/>
</filter>
<filter id="filter8_ii_1121_44217" x="19.1844" y="20.8365" width="3.91348" height="3.91201" filterUnits="userSpaceOnUse" color-interpolation-filters="sRGB">
<feFlood flood-opacity="0" result="BackgroundImageFix"/>
<feBlend mode="normal" in="SourceGraphic" in2="BackgroundImageFix" result="shape"/>
<feColorMatrix in="SourceAlpha" type="matrix" values="0 0 0 0 0 0 0 0 0 0 0 0 0 0 0 0 0 0 127 0" result="hardAlpha"/>
<feOffset dx="-0.3" dy="-0.3"/>
<feGaussianBlur stdDeviation="0.25"/>
<feComposite in2="hardAlpha" operator="arithmetic" k2="-1" k3="1"/>
<feColorMatrix type="matrix" values="0 0 0 0 0.858824 0 0 0 0 0.752941 0 0 0 0 0.188235 0 0 0 1 0"/>
<feBlend mode="normal" in2="shape" result="effect1_innerShadow_1121_44217"/>
<feColorMatrix in="SourceAlpha" type="matrix" values="0 0 0 0 0 0 0 0 0 0 0 0 0 0 0 0 0 0 127 0" result="hardAlpha"/>
<feOffset dx="0.3" dy="0.3"/>
<feGaussianBlur stdDeviation="0.2"/>
<feComposite in2="hardAlpha" operator="arithmetic" k2="-1" k3="1"/>
<feColorMatrix type="matrix" values="0 0 0 0 0.968627 0 0 0 0 0.858824 0 0 0 0 0.223529 0 0 0 1 0"/>
<feBlend mode="normal" in2="effect1_innerShadow_1121_44217" result="effect2_innerShadow_1121_44217"/>
</filter>
<filter id="filter9_f_1121_44217" x="22.6885" y="5.53452" width="3.53125" height="23.844" filterUnits="userSpaceOnUse" color-interpolation-filters="sRGB">
<feFlood flood-opacity="0" result="BackgroundImageFix"/>
<feBlend mode="normal" in="SourceGraphic" in2="BackgroundImageFix" result="shape"/>
<feGaussianBlur stdDeviation="0.5" result="effect1_foregroundBlur_1121_44217"/>
</filter>
<filter id="filter10_i_1121_44217" x="6.03027" y="2.9725" width="19.9404" height="4.225" filterUnits="userSpaceOnUse" color-interpolation-filters="sRGB">
<feFlood flood-opacity="0" result="BackgroundImageFix"/>
<feBlend mode="normal" in="SourceGraphic" in2="BackgroundImageFix" result="shape"/>
<feColorMatrix in="SourceAlpha" type="matrix" values="0 0 0 0 0 0 0 0 0 0 0 0 0 0 0 0 0 0 127 0" result="hardAlpha"/>
<feOffset dy="0.1"/>
<feGaussianBlur stdDeviation="0.375"/>
<feComposite in2="hardAlpha" operator="arithmetic" k2="-1" k3="1"/>
<feColorMatrix type="matrix" values="0 0 0 0 0.380392 0 0 0 0 0.407843 0 0 0 0 0.666667 0 0 0 1 0"/>
<feBlend mode="normal" in2="shape" result="effect1_innerShadow_1121_44217"/>
</filter>
<linearGradient id="paint0_linear_1121_44217" x1="16.0003" y1="8.3785" x2="16.0003" y2="26.9405" gradientUnits="userSpaceOnUse">
<stop stop-color="#62326D"/>
<stop offset="1" stop-color="#434486"/>
</linearGradient>
<linearGradient id="paint1_linear_1121_44217" x1="6.03125" y1="22.7535" x2="8.34425" y2="22.8155" gradientUnits="userSpaceOnUse">
<stop offset="0.031" stop-color="#412C4C"/>
<stop offset="1" stop-color="#412C4C" stop-opacity="0"/>
</linearGradient>
<linearGradient id="paint2_linear_1121_44217" x1="9.35912" y1="11.8945" x2="10.4061" y2="11.8945" gradientUnits="userSpaceOnUse">
<stop offset="0.333" stop-color="#FF945C"/>
<stop offset="1" stop-color="#FF945C" stop-opacity="0"/>
</linearGradient>
<linearGradient id="paint3_linear_1121_44217" x1="9.35912" y1="23.6125" x2="10.4061" y2="23.6125" gradientUnits="userSpaceOnUse">
<stop offset="0.333" stop-color="#FF945C"/>
<stop offset="1" stop-color="#FF945C" stop-opacity="0"/>
</linearGradient>
<linearGradient id="paint4_linear_1121_44217" x1="19.6414" y1="17.7535" x2="20.6884" y2="17.7535" gradientUnits="userSpaceOnUse">
<stop offset="0.333" stop-color="#FF945C"/>
<stop offset="1" stop-color="#FF945C" stop-opacity="0"/>
</linearGradient>
<linearGradient id="paint5_linear_1121_44217" x1="24.4535" y1="6.53452" x2="24.4535" y2="28.3785" gradientUnits="userSpaceOnUse">
<stop stop-color="#674876"/>
<stop offset="1" stop-color="#555187"/>
</linearGradient>
<linearGradient id="paint6_linear_1121_44217" x1="16.0003" y1="2.9725" x2="16.0003" y2="7.0975" gradientUnits="userSpaceOnUse">
<stop stop-color="#636AB6"/>
<stop offset="1" stop-color="#6C6EBE"/>
</linearGradient>
<linearGradient id="paint7_linear_1121_44217" x1="17.1563" y1="7.2535" x2="17.1563" y2="6.5655" gradientUnits="userSpaceOnUse">
<stop stop-color="#6062B1"/>
<stop offset="1" stop-color="#6062B1" stop-opacity="0"/>
</linearGradient>
<linearGradient id="paint8_linear_1121_44217" x1="6.03127" y1="7.0975" x2="9.25027" y2="7.0975" gradientUnits="userSpaceOnUse">
<stop offset="0.136" stop-color="#484B86"/>
<stop offset="1" stop-color="#5E61AD" stop-opacity="0"/>
</linearGradient>
<linearGradient id="paint9_linear_1121_44217" x1="25.9693" y1="7.0975" x2="23.0313" y2="7.0975" gradientUnits="userSpaceOnUse">
<stop offset="0.128" stop-color="#7277C8"/>
<stop offset="1" stop-color="#7277C8" stop-opacity="0"/>
</linearGradient>
<radialGradient id="paint10_radial_1121_44217" cx="0" cy="0" r="1" gradientUnits="userSpaceOnUse" gradientTransform="translate(25.9693 6.8155) rotate(180) scale(0.65625 3.17187)">
<stop stop-color="#6C6FB4"/>
<stop offset="1" stop-color="#6C6FB4" stop-opacity="0"/>
</radialGradient>
<linearGradient id="paint11_linear_1121_44217" x1="16.0003" y1="26.8155" x2="16.0003" y2="30.8935" gradientUnits="userSpaceOnUse">
<stop stop-color="#6B4390"/>
<stop offset="1" stop-color="#76509E"/>
</linearGradient>
<linearGradient id="paint12_linear_1121_44217" x1="6.03127" y1="28.0655" x2="8.43827" y2="28.0655" gradientUnits="userSpaceOnUse">
<stop offset="0.164" stop-color="#4F3D6C"/>
<stop offset="1" stop-color="#6E4693" stop-opacity="0"/>
</linearGradient>
<radialGradient id="paint13_radial_1121_44217" cx="0" cy="0" r="1" gradientUnits="userSpaceOnUse" gradientTransform="translate(24.3133 26.4725) rotate(90) scale(3.09375 1.625)">
<stop stop-color="#6B5094"/>
<stop offset="1" stop-color="#6B5094" stop-opacity="0"/>
</radialGradient>
<linearGradient id="paint14_linear_1121_44217" x1="15.6883" y1="26.5345" x2="15.6883" y2="27.1285" gradientUnits="userSpaceOnUse">
<stop offset="0.158" stop-color="#5E3D7F"/>
<stop offset="1" stop-color="#5E3D7F" stop-opacity="0"/>
</linearGradient>
</defs>
</svg>
