<svg xmlns="http://www.w3.org/2000/svg" width="19" height="43" viewBox="0 0 19 43" fill="none">
    <g clip-path="url(#clip0_1121_43961)">
    <path d="M11.8585 5.53131C11.8585 4.55182 11.3795 3.65534 10.6131 3.19049C9.84668 2.72565 8.91812 2.77546 8.19591 3.32331L1.12122 8.63581C0.0305354 9.44928 -0.256874 11.0928 0.465334 12.3214C1.18754 13.5499 2.65407 13.8736 3.73738 13.0601L7.14208 10.4952V34.7501H2.42561C1.12122 34.7501 0.0673828 35.9371 0.0673828 37.4063C0.0673828 38.8756 1.12122 40.0626 2.42561 40.0626H16.575C17.8794 40.0626 18.9332 38.8756 18.9332 37.4063C18.9332 35.9371 17.8794 34.7501 16.575 34.7501H11.8585V5.53131Z" fill="#A300DC"/>
    </g>
    <defs>
    <clipPath id="clip0_1121_43961">
    <rect width="18.8659" height="42.5" fill="white" transform="translate(0.0673828 0.218811)"/>
    </clipPath>
    </defs>
    </svg>