<svg xmlns="http://www.w3.org/2000/svg" width="30" height="47" viewBox="0 0 30 47" fill="none">
    <g clip-path="url(#clip0_1121_43977)">
    <path d="M0.631836 6.22744C0.631836 4.638 1.91596 3.35388 3.50539 3.35388H25.0571C26.2424 3.35388 27.302 4.08125 27.7331 5.18578C28.1641 6.2903 27.8678 7.54748 26.9967 8.34669L15.2062 19.1585H17.1548C23.8987 19.1585 29.3674 24.6272 29.3674 31.3711C29.3674 38.115 23.8987 43.5837 17.1548 43.5837H10.0966C6.28915 43.5837 2.80496 41.4285 1.10777 38.0252L0.937152 37.6839C0.227742 36.2651 0.802454 34.541 2.22127 33.8316C3.64009 33.1221 5.36423 33.6969 6.07364 35.1157L6.24426 35.4569C6.97162 36.9206 8.47126 37.8366 10.0966 37.8366H17.1548C20.7288 37.8366 23.6203 34.9451 23.6203 31.3711C23.6203 27.7971 20.7288 24.9056 17.1548 24.9056H7.81573C6.63039 24.9056 5.57076 24.1782 5.13973 23.0737C4.7087 21.9692 5.00503 20.712 5.87608 19.9128L17.6666 9.101H3.50539C1.91596 9.101 0.631836 7.81688 0.631836 6.22744Z" fill="#2D9AFF"/>
    </g>
    <defs>
    <clipPath id="clip0_1121_43977">
    <rect width="28.7356" height="45.9769" fill="white" transform="translate(0.631836 0.480347)"/>
    </clipPath>
    </defs>
    </svg>