<svg xmlns="http://www.w3.org/2000/svg" width="30" height="47" viewBox="0 0 30 47" fill="none">
    <g clip-path="url(#clip0_1121_43969)">
    <path d="M13.4396 8.80079C11.4772 8.80079 9.58785 9.58003 8.20048 10.9827L5.38009 13.8062C4.23916 14.9522 2.38628 14.9522 1.24535 13.8062C0.104415 12.6603 0.104415 10.7993 1.24535 9.65337L4.06574 6.82978C6.55753 4.33622 9.92557 2.93359 13.4396 2.93359C20.7507 2.93359 26.6836 8.89247 26.6836 16.2356C26.6836 19.7651 25.2871 23.1479 22.8044 25.6415L10.3728 38.1368H26.6836C28.2992 38.1368 29.6044 39.4477 29.6044 41.0704C29.6044 42.693 28.2992 44.004 26.6836 44.004H3.31728C2.13984 44.004 1.07193 43.2889 0.615553 42.1888C0.15918 41.0887 0.414749 39.8328 1.24535 38.9894L18.6697 21.4978C20.0571 20.1043 20.842 18.2066 20.842 16.2356C20.842 12.1286 17.5287 8.80079 13.4396 8.80079Z" fill="#FF9E2D"/>
    </g>
    <defs>
    <clipPath id="clip0_1121_43969">
    <rect width="29.2079" height="46.9376" fill="white" transform="translate(0.396484)"/>
    </clipPath>
    </defs>
    </svg>