<svg width="32" height="33" viewBox="0 0 32 33" fill="none" xmlns="http://www.w3.org/2000/svg">
<g filter="url(#filter0_i_1121_44159)">
<path d="M17.8173 10.7435H5.23828V14.4105H16.8103C16.9429 14.4105 17.0701 14.4632 17.1638 14.5569C17.2576 14.6507 17.3103 14.7779 17.3103 14.9105V19.0855H21.4853V14.4105C21.4853 13.9289 21.3904 13.4519 21.2061 13.007C21.0217 12.562 20.7515 12.1577 20.4109 11.8172C20.0703 11.4767 19.6659 11.2066 19.2209 11.0223C18.7759 10.8381 18.2989 10.7434 17.8173 10.7435Z" fill="url(#paint0_linear_1121_44159)"/>
</g>
<g filter="url(#filter1_f_1121_44159)">
<path d="M7.08398 11.5315H17.659C19.513 11.5315 20.727 12.5695 20.727 14.5475" stroke="url(#paint1_linear_1121_44159)" stroke-width="0.65"/>
</g>
<path d="M29.9121 15.1735C29.9121 15.0144 29.8489 14.8618 29.7364 14.7493C29.6239 14.6367 29.4713 14.5735 29.3121 14.5735H26.9531V22.1205H29.3121C29.4713 22.1205 29.6239 22.0573 29.7364 21.9448C29.8489 21.8323 29.9121 21.6796 29.9121 21.5205V15.1745V15.1735Z" fill="#4C3F5B"/>
<path d="M29.9121 15.1735C29.9121 15.0144 29.8489 14.8618 29.7364 14.7493C29.6239 14.6367 29.4713 14.5735 29.3121 14.5735H26.9531V22.1205H29.3121C29.4713 22.1205 29.6239 22.0573 29.7364 21.9448C29.8489 21.8323 29.9121 21.6796 29.9121 21.5205V15.1745V15.1735Z" fill="url(#paint2_linear_1121_44159)"/>
<path d="M29.9121 15.1735C29.9121 15.0144 29.8489 14.8618 29.7364 14.7493C29.6239 14.6367 29.4713 14.5735 29.3121 14.5735H26.9531V22.1205H29.3121C29.4713 22.1205 29.6239 22.0573 29.7364 21.9448C29.8489 21.8323 29.9121 21.6796 29.9121 21.5205V15.1745V15.1735Z" fill="url(#paint3_linear_1121_44159)"/>
<path d="M29.9121 15.1735C29.9121 15.0144 29.8489 14.8618 29.7364 14.7493C29.6239 14.6367 29.4713 14.5735 29.3121 14.5735H26.9531V22.1205H29.3121C29.4713 22.1205 29.6239 22.0573 29.7364 21.9448C29.8489 21.8323 29.9121 21.6796 29.9121 21.5205V15.1745V15.1735Z" fill="url(#paint4_radial_1121_44159)"/>
<path d="M29.9121 15.1735C29.9121 15.0144 29.8489 14.8618 29.7364 14.7493C29.6239 14.6367 29.4713 14.5735 29.3121 14.5735H26.9531V22.1205H29.3121C29.4713 22.1205 29.6239 22.0573 29.7364 21.9448C29.8489 21.8323 29.9121 21.6796 29.9121 21.5205V15.1745V15.1735Z" fill="url(#paint5_radial_1121_44159)"/>
<path d="M27.7441 14.8105C27.7441 14.7044 27.702 14.6027 27.627 14.5276C27.5519 14.4526 27.4502 14.4105 27.3441 14.4105H24.4951C24.3625 14.4105 24.2353 14.4632 24.1416 14.5569C24.0478 14.6507 23.9951 14.7779 23.9951 14.9105V22.3815H27.3451C27.4512 22.3815 27.5529 22.3394 27.628 22.2643C27.703 22.1893 27.7451 22.0876 27.7451 21.9815V14.8115L27.7441 14.8105Z" fill="url(#paint6_linear_1121_44159)"/>
<path d="M27.7441 14.8105C27.7441 14.7044 27.702 14.6027 27.627 14.5276C27.5519 14.4526 27.4502 14.4105 27.3441 14.4105H24.4951C24.3625 14.4105 24.2353 14.4632 24.1416 14.5569C24.0478 14.6507 23.9951 14.7779 23.9951 14.9105V22.3815H27.3451C27.4512 22.3815 27.5529 22.3394 27.628 22.2643C27.703 22.1893 27.7451 22.0876 27.7451 21.9815V14.8115L27.7441 14.8105Z" fill="url(#paint7_linear_1121_44159)"/>
<path d="M4.22266 9.9375H5.67266C5.88483 9.9375 6.08831 10.0218 6.23834 10.1718C6.38837 10.3218 6.47266 10.5253 6.47266 10.7375V14.4175C6.47266 14.6297 6.38837 14.8332 6.23834 14.9832C6.08831 15.1332 5.88483 15.2175 5.67266 15.2175H4.22266V9.9375Z" fill="url(#paint8_linear_1121_44159)"/>
<path d="M4.22266 9.9375H5.67266C5.88483 9.9375 6.08831 10.0218 6.23834 10.1718C6.38837 10.3218 6.47266 10.5253 6.47266 10.7375V14.4175C6.47266 14.6297 6.38837 14.8332 6.23834 14.9832C6.08831 15.1332 5.88483 15.2175 5.67266 15.2175H4.22266V9.9375Z" fill="url(#paint9_linear_1121_44159)"/>
<path d="M4.22266 9.9375H5.67266C5.88483 9.9375 6.08831 10.0218 6.23834 10.1718C6.38837 10.3218 6.47266 10.5253 6.47266 10.7375V14.4175C6.47266 14.6297 6.38837 14.8332 6.23834 14.9832C6.08831 15.1332 5.88483 15.2175 5.67266 15.2175H4.22266V9.9375Z" fill="url(#paint10_radial_1121_44159)"/>
<path d="M4.22266 9.9375H5.67266C5.88483 9.9375 6.08831 10.0218 6.23834 10.1718C6.38837 10.3218 6.47266 10.5253 6.47266 10.7375V14.4175C6.47266 14.6297 6.38837 14.8332 6.23834 14.9832C6.08831 15.1332 5.88483 15.2175 5.67266 15.2175H4.22266V9.9375Z" fill="url(#paint11_radial_1121_44159)"/>
<path d="M2.08789 9.87151C2.09638 9.59404 2.21257 9.33079 2.41184 9.13753C2.61111 8.94426 2.8778 8.83618 3.15539 8.83618C3.43298 8.83618 3.69967 8.94426 3.89894 9.13753C4.09821 9.33079 4.2144 9.59404 4.22289 9.87151V15.2825C4.2144 15.56 4.09821 15.8232 3.89894 16.0165C3.69967 16.2097 3.43298 16.3178 3.15539 16.3178C2.8778 16.3178 2.61111 16.2097 2.41184 16.0165C2.21257 15.8232 2.09638 15.56 2.08789 15.2825V9.87151Z" fill="url(#paint12_linear_1121_44159)"/>
<path d="M2.08789 9.87151C2.09638 9.59404 2.21257 9.33079 2.41184 9.13753C2.61111 8.94426 2.8778 8.83618 3.15539 8.83618C3.43298 8.83618 3.69967 8.94426 3.89894 9.13753C4.09821 9.33079 4.2144 9.59404 4.22289 9.87151V15.2825C4.2144 15.56 4.09821 15.8232 3.89894 16.0165C3.69967 16.2097 3.43298 16.3178 3.15539 16.3178C2.8778 16.3178 2.61111 16.2097 2.41184 16.0165C2.21257 15.8232 2.09638 15.56 2.08789 15.2825V9.87151Z" fill="url(#paint13_linear_1121_44159)"/>
<g filter="url(#filter2_ii_1121_44159)">
<path d="M7.08398 14.9105C7.08398 14.7779 7.13666 14.6507 7.23043 14.5569C7.3242 14.4632 7.45138 14.4105 7.58398 14.4105H25.418C25.5506 14.4105 25.6778 14.4632 25.7715 14.5569C25.8653 14.6507 25.918 14.7779 25.918 14.9105V27.1575H7.08398V14.9105Z" fill="url(#paint14_radial_1121_44159)"/>
<path d="M7.08398 14.9105C7.08398 14.7779 7.13666 14.6507 7.23043 14.5569C7.3242 14.4632 7.45138 14.4105 7.58398 14.4105H25.418C25.5506 14.4105 25.6778 14.4632 25.7715 14.5569C25.8653 14.6507 25.918 14.7779 25.918 14.9105V27.1575H7.08398V14.9105Z" fill="url(#paint15_linear_1121_44159)"/>
<path d="M7.08398 14.9105C7.08398 14.7779 7.13666 14.6507 7.23043 14.5569C7.3242 14.4632 7.45138 14.4105 7.58398 14.4105H25.418C25.5506 14.4105 25.6778 14.4632 25.7715 14.5569C25.8653 14.6507 25.918 14.7779 25.918 14.9105V27.1575H7.08398V14.9105Z" fill="url(#paint16_linear_1121_44159)"/>
</g>
<g filter="url(#filter3_f_1121_44159)">
<path d="M20.8682 22.2645H22.2282C22.3343 22.2645 22.436 22.2224 22.511 22.1474C22.586 22.0723 22.6282 21.9706 22.6282 21.8645V19.0945C22.6282 18.9884 22.586 18.8867 22.511 18.8117C22.436 18.7367 22.3343 18.6945 22.2282 18.6945H20.8682V22.2645Z" fill="#A89FB2"/>
</g>
<g filter="url(#filter4_di_1121_44159)">
<path d="M9.37402 16.8825C9.37402 16.5642 9.50045 16.259 9.7255 16.034C9.95054 15.8089 10.2558 15.6825 10.574 15.6825H19.926C20.2443 15.6825 20.5495 15.8089 20.7746 16.034C20.9996 16.259 21.126 16.5642 21.126 16.8825V23.5945C21.126 23.9128 20.9996 24.218 20.7746 24.443C20.5495 24.6681 20.2443 24.7945 19.926 24.7945H10.574C10.2558 24.7945 9.95054 24.6681 9.7255 24.443C9.50045 24.218 9.37402 23.9128 9.37402 23.5945V16.8825Z" fill="url(#paint17_linear_1121_44159)"/>
</g>
<path d="M9.37402 16.8825C9.37402 16.5642 9.50045 16.259 9.7255 16.034C9.95054 15.8089 10.2558 15.6825 10.574 15.6825H19.926C20.2443 15.6825 20.5495 15.8089 20.7746 16.034C20.9996 16.259 21.126 16.5642 21.126 16.8825V23.5945C21.126 23.9128 20.9996 24.218 20.7746 24.443C20.5495 24.6681 20.2443 24.7945 19.926 24.7945H10.574C10.2558 24.7945 9.95054 24.6681 9.7255 24.443C9.50045 24.218 9.37402 23.9128 9.37402 23.5945V16.8825Z" fill="url(#paint18_linear_1121_44159)"/>
<path d="M9.37402 16.8825C9.37402 16.5642 9.50045 16.259 9.7255 16.034C9.95054 15.8089 10.2558 15.6825 10.574 15.6825H19.926C20.2443 15.6825 20.5495 15.8089 20.7746 16.034C20.9996 16.259 21.126 16.5642 21.126 16.8825V23.5945C21.126 23.9128 20.9996 24.218 20.7746 24.443C20.5495 24.6681 20.2443 24.7945 19.926 24.7945H10.574C10.2558 24.7945 9.95054 24.6681 9.7255 24.443C9.50045 24.218 9.37402 23.9128 9.37402 23.5945V16.8825Z" fill="url(#paint19_radial_1121_44159)"/>
<g filter="url(#filter5_ii_1121_44159)">
<path d="M10.71 17.9355C10.71 17.6968 10.8048 17.4679 10.9736 17.2991C11.1423 17.1303 11.3713 17.0355 11.61 17.0355H18.89C19.1287 17.0355 19.3576 17.1303 19.5264 17.2991C19.6951 17.4679 19.79 17.6968 19.79 17.9355V22.5405C19.79 22.7792 19.6951 23.0081 19.5264 23.1769C19.3576 23.3457 19.1287 23.4405 18.89 23.4405H11.61C11.3713 23.4405 11.1423 23.3457 10.9736 23.1769C10.8048 23.0081 10.71 22.7792 10.71 22.5405V17.9355Z" fill="url(#paint20_linear_1121_44159)"/>
</g>
<path d="M10.71 17.9355C10.71 17.6968 10.8048 17.4679 10.9736 17.2991C11.1423 17.1303 11.3713 17.0355 11.61 17.0355H18.89C19.1287 17.0355 19.3576 17.1303 19.5264 17.2991C19.6951 17.4679 19.79 17.6968 19.79 17.9355V22.5405C19.79 22.7792 19.6951 23.0081 19.5264 23.1769C19.3576 23.3457 19.1287 23.4405 18.89 23.4405H11.61C11.3713 23.4405 11.1423 23.3457 10.9736 23.1769C10.8048 23.0081 10.71 22.7792 10.71 22.5405V17.9355Z" fill="url(#paint21_radial_1121_44159)"/>
<path d="M10.71 17.9355C10.71 17.6968 10.8048 17.4679 10.9736 17.2991C11.1423 17.1303 11.3713 17.0355 11.61 17.0355H18.89C19.1287 17.0355 19.3576 17.1303 19.5264 17.2991C19.6951 17.4679 19.79 17.6968 19.79 17.9355V22.5405C19.79 22.7792 19.6951 23.0081 19.5264 23.1769C19.3576 23.3457 19.1287 23.4405 18.89 23.4405H11.61C11.3713 23.4405 11.1423 23.3457 10.9736 23.1769C10.8048 23.0081 10.71 22.7792 10.71 22.5405V17.9355Z" fill="url(#paint22_linear_1121_44159)"/>
<g filter="url(#filter6_ii_1121_44159)">
<path d="M6.77832 26.5305C6.77832 26.3105 6.95832 26.1305 7.17832 26.1305H25.8243C26.0443 26.1305 26.2243 26.3105 26.2243 26.5305V28.5155C26.2243 29.0459 26.0136 29.5546 25.6385 29.9297C25.2635 30.3048 24.7548 30.5155 24.2243 30.5155H8.77832C8.24789 30.5155 7.73918 30.3048 7.36411 29.9297C6.98903 29.5546 6.77832 29.0459 6.77832 28.5155V26.5305Z" fill="url(#paint23_linear_1121_44159)"/>
<path d="M6.77832 26.5305C6.77832 26.3105 6.95832 26.1305 7.17832 26.1305H25.8243C26.0443 26.1305 26.2243 26.3105 26.2243 26.5305V28.5155C26.2243 29.0459 26.0136 29.5546 25.6385 29.9297C25.2635 30.3048 24.7548 30.5155 24.2243 30.5155H8.77832C8.24789 30.5155 7.73918 30.3048 7.36411 29.9297C6.98903 29.5546 6.77832 29.0459 6.77832 28.5155V26.5305Z" fill="url(#paint24_linear_1121_44159)"/>
<path d="M6.77832 26.5305C6.77832 26.3105 6.95832 26.1305 7.17832 26.1305H25.8243C26.0443 26.1305 26.2243 26.3105 26.2243 26.5305V28.5155C26.2243 29.0459 26.0136 29.5546 25.6385 29.9297C25.2635 30.3048 24.7548 30.5155 24.2243 30.5155H8.77832C8.24789 30.5155 7.73918 30.3048 7.36411 29.9297C6.98903 29.5546 6.77832 29.0459 6.77832 28.5155V26.5305Z" fill="url(#paint25_linear_1121_44159)"/>
</g>
<path d="M6.77832 26.5305C6.77832 26.3105 6.95832 26.1305 7.17832 26.1305H25.8243C26.0443 26.1305 26.2243 26.3105 26.2243 26.5305V28.5155C26.2243 29.0459 26.0136 29.5546 25.6385 29.9297C25.2635 30.3048 24.7548 30.5155 24.2243 30.5155H8.77832C8.24789 30.5155 7.73918 30.3048 7.36411 29.9297C6.98903 29.5546 6.77832 29.0459 6.77832 28.5155V26.5305Z" fill="url(#paint26_linear_1121_44159)"/>
<g filter="url(#filter7_d_1121_44159)">
<path d="M12.6494 28.3395C12.6494 28.0015 12.9234 27.7275 13.2614 27.7275H14.6954C14.8576 27.7275 15.0131 27.7919 15.1278 27.9066C15.2425 28.0213 15.3069 28.1768 15.3069 28.339C15.3069 28.5012 15.2425 28.6567 15.1278 28.7714C15.0131 28.8861 14.8576 28.9505 14.6954 28.9505H13.2614C13.1811 28.9506 13.1015 28.9349 13.0273 28.9043C12.953 28.8736 12.8856 28.8287 12.8287 28.7719C12.7719 28.7152 12.7268 28.6478 12.696 28.5736C12.6653 28.4994 12.6494 28.4198 12.6494 28.3395Z" fill="url(#paint27_linear_1121_44159)"/>
</g>
<g filter="url(#filter8_d_1121_44159)">
<path d="M19.3409 28.3225C19.3409 28.5105 19.2662 28.6909 19.1332 28.8238C19.0002 28.9568 18.8199 29.0315 18.6319 29.0315C18.4438 29.0315 18.2635 28.9568 18.1305 28.8238C17.9975 28.6909 17.9229 28.5105 17.9229 28.3225C17.9229 28.1345 17.9975 27.9541 18.1305 27.8212C18.2635 27.6882 18.4438 27.6135 18.6319 27.6135C18.8199 27.6135 19.0002 27.6882 19.1332 27.8212C19.2662 27.9541 19.3409 28.1345 19.3409 28.3225Z" fill="url(#paint28_linear_1121_44159)"/>
<path d="M19.3409 28.3225C19.3409 28.5105 19.2662 28.6909 19.1332 28.8238C19.0002 28.9568 18.8199 29.0315 18.6319 29.0315C18.4438 29.0315 18.2635 28.9568 18.1305 28.8238C17.9975 28.6909 17.9229 28.5105 17.9229 28.3225C17.9229 28.1345 17.9975 27.9541 18.1305 27.8212C18.2635 27.6882 18.4438 27.6135 18.6319 27.6135C18.8199 27.6135 19.0002 27.6882 19.1332 27.8212C19.2662 27.9541 19.3409 28.1345 19.3409 28.3225Z" fill="url(#paint29_radial_1121_44159)"/>
</g>
<g filter="url(#filter9_f_1121_44159)">
<path d="M3.91391 9.70451C3.91391 9.52226 3.76616 9.37451 3.58391 9.37451C3.40165 9.37451 3.25391 9.52226 3.25391 9.70451V14.8875C3.25391 15.0698 3.40165 15.2175 3.58391 15.2175C3.76616 15.2175 3.91391 15.0698 3.91391 14.8875V9.70451Z" fill="url(#paint30_linear_1121_44159)"/>
</g>
<g filter="url(#filter10_f_1121_44159)">
<path d="M7.6377 26.6565H25.5437" stroke="url(#paint31_linear_1121_44159)" stroke-width="0.2" stroke-linecap="round"/>
</g>
<g filter="url(#filter11_f_1121_44159)">
<path d="M14.8754 28.0935H13.1834C13.1198 28.0935 13.0684 28.1448 13.0684 28.208C13.0684 28.2712 13.1198 28.3225 13.1834 28.3225H14.8754C14.9389 28.3225 14.9904 28.2712 14.9904 28.208C14.9904 28.1448 14.9389 28.0935 14.8754 28.0935Z" fill="url(#paint32_linear_1121_44159)"/>
</g>
<g filter="url(#filter12_f_1121_44159)">
<path d="M11.4375 17.5775H18.9625C19.0019 17.5775 19.0409 17.5853 19.0773 17.6004C19.1137 17.6154 19.1468 17.6375 19.1746 17.6654C19.2025 17.6932 19.2246 17.7263 19.2397 17.7627C19.2547 17.7991 19.2625 17.8381 19.2625 17.8775V22.5315" stroke="url(#paint33_linear_1121_44159)" stroke-width="0.3" stroke-linecap="round"/>
</g>
<g filter="url(#filter13_i_1121_44159)">
<path d="M21.126 22.0225H22.486C22.5921 22.0225 22.6938 21.9804 22.7688 21.9054C22.8438 21.8303 22.886 21.7286 22.886 21.6225V18.8525C22.886 18.7464 22.8438 18.6447 22.7688 18.5697C22.6938 18.4947 22.5921 18.4525 22.486 18.4525H21.126V22.0225Z" fill="#EEE8F6"/>
<path d="M21.126 22.0225H22.486C22.5921 22.0225 22.6938 21.9804 22.7688 21.9054C22.8438 21.8303 22.886 21.7286 22.886 21.6225V18.8525C22.886 18.7464 22.8438 18.6447 22.7688 18.5697C22.6938 18.4947 22.5921 18.4525 22.486 18.4525H21.126V22.0225Z" fill="url(#paint34_linear_1121_44159)"/>
</g>
<defs>
<filter id="filter0_i_1121_44159" x="5.23828" y="9.9435" width="16.2471" height="9.14201" filterUnits="userSpaceOnUse" color-interpolation-filters="sRGB">
<feFlood flood-opacity="0" result="BackgroundImageFix"/>
<feBlend mode="normal" in="SourceGraphic" in2="BackgroundImageFix" result="shape"/>
<feColorMatrix in="SourceAlpha" type="matrix" values="0 0 0 0 0 0 0 0 0 0 0 0 0 0 0 0 0 0 127 0" result="hardAlpha"/>
<feOffset dy="-0.8"/>
<feGaussianBlur stdDeviation="0.5"/>
<feComposite in2="hardAlpha" operator="arithmetic" k2="-1" k3="1"/>
<feColorMatrix type="matrix" values="0 0 0 0 0.184314 0 0 0 0 0.152941 0 0 0 0 0.219608 0 0 0 1 0"/>
<feBlend mode="normal" in2="shape" result="effect1_innerShadow_1121_44159"/>
</filter>
<filter id="filter1_f_1121_44159" x="6.43398" y="10.5565" width="15.2678" height="4.641" filterUnits="userSpaceOnUse" color-interpolation-filters="sRGB">
<feFlood flood-opacity="0" result="BackgroundImageFix"/>
<feBlend mode="normal" in="SourceGraphic" in2="BackgroundImageFix" result="shape"/>
<feGaussianBlur stdDeviation="0.325" result="effect1_foregroundBlur_1121_44159"/>
</filter>
<filter id="filter2_ii_1121_44159" x="6.58398" y="14.4105" width="19.834" height="12.747" filterUnits="userSpaceOnUse" color-interpolation-filters="sRGB">
<feFlood flood-opacity="0" result="BackgroundImageFix"/>
<feBlend mode="normal" in="SourceGraphic" in2="BackgroundImageFix" result="shape"/>
<feColorMatrix in="SourceAlpha" type="matrix" values="0 0 0 0 0 0 0 0 0 0 0 0 0 0 0 0 0 0 127 0" result="hardAlpha"/>
<feOffset dx="0.5"/>
<feGaussianBlur stdDeviation="0.25"/>
<feComposite in2="hardAlpha" operator="arithmetic" k2="-1" k3="1"/>
<feColorMatrix type="matrix" values="0 0 0 0 0.72549 0 0 0 0 0.709804 0 0 0 0 0.741176 0 0 0 1 0"/>
<feBlend mode="normal" in2="shape" result="effect1_innerShadow_1121_44159"/>
<feColorMatrix in="SourceAlpha" type="matrix" values="0 0 0 0 0 0 0 0 0 0 0 0 0 0 0 0 0 0 127 0" result="hardAlpha"/>
<feOffset dx="-0.75"/>
<feGaussianBlur stdDeviation="0.25"/>
<feComposite in2="hardAlpha" operator="arithmetic" k2="-1" k3="1"/>
<feColorMatrix type="matrix" values="0 0 0 0 0.803922 0 0 0 0 0.784314 0 0 0 0 0.827451 0 0 0 1 0"/>
<feBlend mode="normal" in2="effect1_innerShadow_1121_44159" result="effect2_innerShadow_1121_44159"/>
</filter>
<filter id="filter3_f_1121_44159" x="20.4682" y="18.2945" width="2.55977" height="4.37001" filterUnits="userSpaceOnUse" color-interpolation-filters="sRGB">
<feFlood flood-opacity="0" result="BackgroundImageFix"/>
<feBlend mode="normal" in="SourceGraphic" in2="BackgroundImageFix" result="shape"/>
<feGaussianBlur stdDeviation="0.2" result="effect1_foregroundBlur_1121_44159"/>
</filter>
<filter id="filter4_di_1121_44159" x="8.37402" y="15.1825" width="13.252" height="10.612" filterUnits="userSpaceOnUse" color-interpolation-filters="sRGB">
<feFlood flood-opacity="0" result="BackgroundImageFix"/>
<feColorMatrix in="SourceAlpha" type="matrix" values="0 0 0 0 0 0 0 0 0 0 0 0 0 0 0 0 0 0 127 0" result="hardAlpha"/>
<feOffset dx="-0.25" dy="0.25"/>
<feGaussianBlur stdDeviation="0.375"/>
<feComposite in2="hardAlpha" operator="out"/>
<feColorMatrix type="matrix" values="0 0 0 0 0.560784 0 0 0 0 0.517647 0 0 0 0 0.611765 0 0 0 1 0"/>
<feBlend mode="normal" in2="BackgroundImageFix" result="effect1_dropShadow_1121_44159"/>
<feBlend mode="normal" in="SourceGraphic" in2="effect1_dropShadow_1121_44159" result="shape"/>
<feColorMatrix in="SourceAlpha" type="matrix" values="0 0 0 0 0 0 0 0 0 0 0 0 0 0 0 0 0 0 127 0" result="hardAlpha"/>
<feOffset dy="-0.25"/>
<feGaussianBlur stdDeviation="0.25"/>
<feComposite in2="hardAlpha" operator="arithmetic" k2="-1" k3="1"/>
<feColorMatrix type="matrix" values="0 0 0 0 0.709804 0 0 0 0 0.639216 0 0 0 0 0.784314 0 0 0 1 0"/>
<feBlend mode="normal" in2="shape" result="effect2_innerShadow_1121_44159"/>
</filter>
<filter id="filter5_ii_1121_44159" x="10.41" y="16.7355" width="9.68008" height="7.005" filterUnits="userSpaceOnUse" color-interpolation-filters="sRGB">
<feFlood flood-opacity="0" result="BackgroundImageFix"/>
<feBlend mode="normal" in="SourceGraphic" in2="BackgroundImageFix" result="shape"/>
<feColorMatrix in="SourceAlpha" type="matrix" values="0 0 0 0 0 0 0 0 0 0 0 0 0 0 0 0 0 0 127 0" result="hardAlpha"/>
<feOffset dx="0.5" dy="-0.5"/>
<feGaussianBlur stdDeviation="0.15"/>
<feComposite in2="hardAlpha" operator="arithmetic" k2="-1" k3="1"/>
<feColorMatrix type="matrix" values="0 0 0 0 0.294118 0 0 0 0 0.223529 0 0 0 0 0.372549 0 0 0 1 0"/>
<feBlend mode="normal" in2="shape" result="effect1_innerShadow_1121_44159"/>
<feColorMatrix in="SourceAlpha" type="matrix" values="0 0 0 0 0 0 0 0 0 0 0 0 0 0 0 0 0 0 127 0" result="hardAlpha"/>
<feOffset dx="-0.5" dy="0.5"/>
<feGaussianBlur stdDeviation="0.15"/>
<feComposite in2="hardAlpha" operator="arithmetic" k2="-1" k3="1"/>
<feColorMatrix type="matrix" values="0 0 0 0 0.270588 0 0 0 0 0.235294 0 0 0 0 0.305882 0 0 0 1 0"/>
<feBlend mode="normal" in2="effect1_innerShadow_1121_44159" result="effect2_innerShadow_1121_44159"/>
</filter>
<filter id="filter6_ii_1121_44159" x="6.77832" y="25.3305" width="20.2463" height="5.43501" filterUnits="userSpaceOnUse" color-interpolation-filters="sRGB">
<feFlood flood-opacity="0" result="BackgroundImageFix"/>
<feBlend mode="normal" in="SourceGraphic" in2="BackgroundImageFix" result="shape"/>
<feColorMatrix in="SourceAlpha" type="matrix" values="0 0 0 0 0 0 0 0 0 0 0 0 0 0 0 0 0 0 127 0" result="hardAlpha"/>
<feOffset dx="1" dy="-0.8"/>
<feGaussianBlur stdDeviation="0.4"/>
<feComposite in2="hardAlpha" operator="arithmetic" k2="-1" k3="1"/>
<feColorMatrix type="matrix" values="0 0 0 0 0.321569 0 0 0 0 0.215686 0 0 0 0 0.431373 0 0 0 1 0"/>
<feBlend mode="normal" in2="shape" result="effect1_innerShadow_1121_44159"/>
<feColorMatrix in="SourceAlpha" type="matrix" values="0 0 0 0 0 0 0 0 0 0 0 0 0 0 0 0 0 0 127 0" result="hardAlpha"/>
<feOffset dy="0.25"/>
<feGaussianBlur stdDeviation="0.125"/>
<feComposite in2="hardAlpha" operator="arithmetic" k2="-1" k3="1"/>
<feColorMatrix type="matrix" values="0 0 0 0 0.25098 0 0 0 0 0.196078 0 0 0 0 0.309804 0 0 0 1 0"/>
<feBlend mode="normal" in2="effect1_innerShadow_1121_44159" result="effect2_innerShadow_1121_44159"/>
</filter>
<filter id="filter7_d_1121_44159" x="12.3994" y="27.6775" width="2.95723" height="1.52299" filterUnits="userSpaceOnUse" color-interpolation-filters="sRGB">
<feFlood flood-opacity="0" result="BackgroundImageFix"/>
<feColorMatrix in="SourceAlpha" type="matrix" values="0 0 0 0 0 0 0 0 0 0 0 0 0 0 0 0 0 0 127 0" result="hardAlpha"/>
<feOffset dx="-0.1" dy="0.1"/>
<feGaussianBlur stdDeviation="0.075"/>
<feComposite in2="hardAlpha" operator="out"/>
<feColorMatrix type="matrix" values="0 0 0 0 0.27451 0 0 0 0 0.207843 0 0 0 0 0.356863 0 0 0 1 0"/>
<feBlend mode="normal" in2="BackgroundImageFix" result="effect1_dropShadow_1121_44159"/>
<feBlend mode="normal" in="SourceGraphic" in2="effect1_dropShadow_1121_44159" result="shape"/>
</filter>
<filter id="filter8_d_1121_44159" x="17.6729" y="27.5635" width="1.71797" height="1.718" filterUnits="userSpaceOnUse" color-interpolation-filters="sRGB">
<feFlood flood-opacity="0" result="BackgroundImageFix"/>
<feColorMatrix in="SourceAlpha" type="matrix" values="0 0 0 0 0 0 0 0 0 0 0 0 0 0 0 0 0 0 127 0" result="hardAlpha"/>
<feOffset dx="-0.1" dy="0.1"/>
<feGaussianBlur stdDeviation="0.075"/>
<feComposite in2="hardAlpha" operator="out"/>
<feColorMatrix type="matrix" values="0 0 0 0 0.254902 0 0 0 0 0.188235 0 0 0 0 0.294118 0 0 0 1 0"/>
<feBlend mode="normal" in2="BackgroundImageFix" result="effect1_dropShadow_1121_44159"/>
<feBlend mode="normal" in="SourceGraphic" in2="effect1_dropShadow_1121_44159" result="shape"/>
</filter>
<filter id="filter9_f_1121_44159" x="2.75391" y="8.87451" width="1.66016" height="6.84299" filterUnits="userSpaceOnUse" color-interpolation-filters="sRGB">
<feFlood flood-opacity="0" result="BackgroundImageFix"/>
<feBlend mode="normal" in="SourceGraphic" in2="BackgroundImageFix" result="shape"/>
<feGaussianBlur stdDeviation="0.25" result="effect1_foregroundBlur_1121_44159"/>
</filter>
<filter id="filter10_f_1121_44159" x="7.23809" y="26.2565" width="18.7055" height="0.800012" filterUnits="userSpaceOnUse" color-interpolation-filters="sRGB">
<feFlood flood-opacity="0" result="BackgroundImageFix"/>
<feBlend mode="normal" in="SourceGraphic" in2="BackgroundImageFix" result="shape"/>
<feGaussianBlur stdDeviation="0.15" result="effect1_foregroundBlur_1121_44159"/>
</filter>
<filter id="filter11_f_1121_44159" x="12.7684" y="27.7935" width="2.52188" height="0.829004" filterUnits="userSpaceOnUse" color-interpolation-filters="sRGB">
<feFlood flood-opacity="0" result="BackgroundImageFix"/>
<feBlend mode="normal" in="SourceGraphic" in2="BackgroundImageFix" result="shape"/>
<feGaussianBlur stdDeviation="0.15" result="effect1_foregroundBlur_1121_44159"/>
</filter>
<filter id="filter12_f_1121_44159" x="10.9871" y="17.1275" width="8.725" height="5.854" filterUnits="userSpaceOnUse" color-interpolation-filters="sRGB">
<feFlood flood-opacity="0" result="BackgroundImageFix"/>
<feBlend mode="normal" in="SourceGraphic" in2="BackgroundImageFix" result="shape"/>
<feGaussianBlur stdDeviation="0.15" result="effect1_foregroundBlur_1121_44159"/>
</filter>
<filter id="filter13_i_1121_44159" x="20.926" y="18.4525" width="1.95977" height="3.77001" filterUnits="userSpaceOnUse" color-interpolation-filters="sRGB">
<feFlood flood-opacity="0" result="BackgroundImageFix"/>
<feBlend mode="normal" in="SourceGraphic" in2="BackgroundImageFix" result="shape"/>
<feColorMatrix in="SourceAlpha" type="matrix" values="0 0 0 0 0 0 0 0 0 0 0 0 0 0 0 0 0 0 127 0" result="hardAlpha"/>
<feOffset dx="-0.2" dy="0.2"/>
<feGaussianBlur stdDeviation="0.1"/>
<feComposite in2="hardAlpha" operator="arithmetic" k2="-1" k3="1"/>
<feColorMatrix type="matrix" values="0 0 0 0 0.937255 0 0 0 0 0.921569 0 0 0 0 0.956863 0 0 0 1 0"/>
<feBlend mode="normal" in2="shape" result="effect1_innerShadow_1121_44159"/>
</filter>
<linearGradient id="paint0_linear_1121_44159" x1="9.33828" y1="14.4975" x2="20.6943" y2="14.4975" gradientUnits="userSpaceOnUse">
<stop stop-color="#5B496D"/>
<stop offset="1" stop-color="#48424E"/>
</linearGradient>
<linearGradient id="paint1_linear_1121_44159" x1="21.4" y1="12.7355" x2="1.59398" y2="12.7355" gradientUnits="userSpaceOnUse">
<stop stop-color="#69656E"/>
<stop offset="1" stop-color="#69656E" stop-opacity="0"/>
</linearGradient>
<linearGradient id="paint2_linear_1121_44159" x1="28.4331" y1="14.5735" x2="28.4331" y2="16.7505" gradientUnits="userSpaceOnUse">
<stop stop-color="#635571"/>
<stop offset="1" stop-color="#635571" stop-opacity="0"/>
</linearGradient>
<linearGradient id="paint3_linear_1121_44159" x1="29.0291" y1="22.1205" x2="29.0291" y2="21.5315" gradientUnits="userSpaceOnUse">
<stop stop-color="#5C4075"/>
<stop offset="1" stop-color="#5C4075" stop-opacity="0"/>
</linearGradient>
<radialGradient id="paint4_radial_1121_44159" cx="0" cy="0" r="1" gradientUnits="userSpaceOnUse" gradientTransform="translate(27.5441 17.6565) scale(2.8125 1.59375)">
<stop offset="0.217" stop-color="#544B5E"/>
<stop offset="1" stop-color="#544B5E" stop-opacity="0"/>
</radialGradient>
<radialGradient id="paint5_radial_1121_44159" cx="0" cy="0" r="1" gradientUnits="userSpaceOnUse" gradientTransform="translate(29.5291 17.6875) rotate(90) scale(2.64062 0.45313)">
<stop stop-color="#6E6777"/>
<stop offset="1" stop-color="#6E6777" stop-opacity="0"/>
</radialGradient>
<linearGradient id="paint6_linear_1121_44159" x1="25.8701" y1="18.3965" x2="25.8701" y2="22.3815" gradientUnits="userSpaceOnUse">
<stop stop-color="#EBE9ED"/>
<stop offset="1" stop-color="#AC98C1"/>
</linearGradient>
<linearGradient id="paint7_linear_1121_44159" x1="25.8701" y1="14.4105" x2="25.8701" y2="15.5315" gradientUnits="userSpaceOnUse">
<stop stop-color="#D7D7D7"/>
<stop offset="1" stop-color="#D7D7D7" stop-opacity="0"/>
</linearGradient>
<linearGradient id="paint8_linear_1121_44159" x1="5.34766" y1="9.9365" x2="5.34766" y2="15.2175" gradientUnits="userSpaceOnUse">
<stop stop-color="#ACABAD"/>
<stop offset="1" stop-color="#9588A2"/>
</linearGradient>
<linearGradient id="paint9_linear_1121_44159" x1="4.91266" y1="15.4415" x2="4.91266" y2="14.1725" gradientUnits="userSpaceOnUse">
<stop stop-color="#8D73A7"/>
<stop offset="1" stop-color="#8D73A7" stop-opacity="0"/>
</linearGradient>
<radialGradient id="paint10_radial_1121_44159" cx="0" cy="0" r="1" gradientUnits="userSpaceOnUse" gradientTransform="translate(4.04966 11.8945) scale(3.85567 2.26295)">
<stop offset="0.136" stop-color="#B4B0B8"/>
<stop offset="1" stop-color="#AEABB0" stop-opacity="0"/>
</radialGradient>
<radialGradient id="paint11_radial_1121_44159" cx="0" cy="0" r="1" gradientUnits="userSpaceOnUse" gradientTransform="translate(6.14966 11.9115) rotate(90) scale(2.76567 0.8013)">
<stop stop-color="#D3D0D6"/>
<stop offset="1" stop-color="#ABA7AF" stop-opacity="0"/>
</radialGradient>
<linearGradient id="paint12_linear_1121_44159" x1="3.15589" y1="8.80351" x2="3.15589" y2="16.3505" gradientUnits="userSpaceOnUse">
<stop stop-color="#58456A"/>
<stop offset="1" stop-color="#3C274E"/>
</linearGradient>
<linearGradient id="paint13_linear_1121_44159" x1="2.08789" y1="13.4655" x2="3.15589" y2="13.4655" gradientUnits="userSpaceOnUse">
<stop stop-color="#6D6A70"/>
<stop offset="1" stop-color="#4A4352" stop-opacity="0"/>
</linearGradient>
<radialGradient id="paint14_radial_1121_44159" cx="0" cy="0" r="1" gradientUnits="userSpaceOnUse" gradientTransform="translate(16.501 15.1875) rotate(90) scale(10.943 11.2696)">
<stop offset="0.326" stop-color="#C1BEC4"/>
<stop offset="1" stop-color="#B7B2BE"/>
</radialGradient>
<linearGradient id="paint15_linear_1121_44159" x1="7.82498" y1="26.1565" x2="15.7" y2="19.6255" gradientUnits="userSpaceOnUse">
<stop offset="0.495" stop-color="#A59CAD"/>
<stop offset="1" stop-color="#A59CAD" stop-opacity="0"/>
</linearGradient>
<linearGradient id="paint16_linear_1121_44159" x1="16.501" y1="14.4105" x2="16.501" y2="15.5315" gradientUnits="userSpaceOnUse">
<stop stop-color="#B3B3B4"/>
<stop offset="1" stop-color="#B3B3B4" stop-opacity="0"/>
</linearGradient>
<linearGradient id="paint17_linear_1121_44159" x1="15.25" y1="20.2385" x2="15.25" y2="24.7945" gradientUnits="userSpaceOnUse">
<stop stop-color="#E3E0E7"/>
<stop offset="1" stop-color="#C9B7DC"/>
</linearGradient>
<linearGradient id="paint18_linear_1121_44159" x1="21.919" y1="21.6875" x2="20.513" y2="21.6875" gradientUnits="userSpaceOnUse">
<stop offset="0.244" stop-color="#F2EDF7"/>
<stop offset="1" stop-color="#E5E2E9" stop-opacity="0"/>
</linearGradient>
<radialGradient id="paint19_radial_1121_44159" cx="0" cy="0" r="1" gradientUnits="userSpaceOnUse" gradientTransform="translate(20.762 16.0315) rotate(135) scale(0.839689 1.08303)">
<stop stop-color="#F3F0F5"/>
<stop offset="1" stop-color="#F3F0F5" stop-opacity="0"/>
</radialGradient>
<linearGradient id="paint20_linear_1121_44159" x1="10.711" y1="22.0005" x2="18.544" y2="19.6875" gradientUnits="userSpaceOnUse">
<stop stop-color="#564669"/>
<stop offset="1" stop-color="#4C4257"/>
</linearGradient>
<radialGradient id="paint21_radial_1121_44159" cx="0" cy="0" r="1" gradientUnits="userSpaceOnUse" gradientTransform="translate(19.4976 17.4063) rotate(143.13) scale(0.625 0.88581)">
<stop stop-color="#6B6671"/>
<stop offset="1" stop-color="#6B6671" stop-opacity="0"/>
</radialGradient>
<linearGradient id="paint22_linear_1121_44159" x1="10.711" y1="20.4375" x2="11.232" y2="20.4375" gradientUnits="userSpaceOnUse">
<stop stop-color="#615470"/>
<stop offset="1" stop-color="#615470" stop-opacity="0"/>
</linearGradient>
<linearGradient id="paint23_linear_1121_44159" x1="6.77832" y1="29.1565" x2="18.3883" y2="29.1565" gradientUnits="userSpaceOnUse">
<stop stop-color="#5F4876"/>
<stop offset="1" stop-color="#46404E"/>
</linearGradient>
<linearGradient id="paint24_linear_1121_44159" x1="26.2243" y1="28.8755" x2="24.4193" y2="28.8755" gradientUnits="userSpaceOnUse">
<stop offset="0.307" stop-color="#565558"/>
<stop offset="1" stop-color="#565558" stop-opacity="0"/>
</linearGradient>
<linearGradient id="paint25_linear_1121_44159" x1="26.2243" y1="28.8755" x2="25.2943" y2="28.8755" gradientUnits="userSpaceOnUse">
<stop stop-color="#3E3A41"/>
<stop offset="1" stop-color="#3E3A41" stop-opacity="0"/>
</linearGradient>
<linearGradient id="paint26_linear_1121_44159" x1="6.57532" y1="28.3225" x2="7.41932" y2="28.3225" gradientUnits="userSpaceOnUse">
<stop stop-color="#97909F"/>
<stop offset="1" stop-color="#68587B" stop-opacity="0"/>
</linearGradient>
<linearGradient id="paint27_linear_1121_44159" x1="13.9784" y1="27.7275" x2="13.9784" y2="28.9505" gradientUnits="userSpaceOnUse">
<stop stop-color="#B2ABB9"/>
<stop offset="1" stop-color="#AB97BF"/>
</linearGradient>
<linearGradient id="paint28_linear_1121_44159" x1="18.6319" y1="27.6135" x2="18.6319" y2="29.0315" gradientUnits="userSpaceOnUse">
<stop stop-color="#F02D55"/>
<stop offset="1" stop-color="#DD1E7D"/>
</linearGradient>
<radialGradient id="paint29_radial_1121_44159" cx="0" cy="0" r="1" gradientUnits="userSpaceOnUse" gradientTransform="translate(18.9353 28.1254) rotate(132.661) scale(0.4462)">
<stop stop-color="#FF6384"/>
<stop offset="1" stop-color="#FF6384" stop-opacity="0"/>
</radialGradient>
<linearGradient id="paint30_linear_1121_44159" x1="3.58391" y1="9.37451" x2="3.58391" y2="15.2175" gradientUnits="userSpaceOnUse">
<stop offset="0.416" stop-color="#7A6E87"/>
<stop offset="0.627" stop-color="#58565B"/>
</linearGradient>
<linearGradient id="paint31_linear_1121_44159" x1="-nan" y1="-nan" x2="-nan" y2="-nan" gradientUnits="userSpaceOnUse">
<stop stop-color="#656566"/>
<stop offset="1" stop-color="#624F75"/>
</linearGradient>
<linearGradient id="paint32_linear_1121_44159" x1="14.9894" y1="28.2085" x2="12.8294" y2="28.2085" gradientUnits="userSpaceOnUse">
<stop stop-color="#CFC8D7"/>
<stop offset="1" stop-color="#CFC8D7" stop-opacity="0"/>
</linearGradient>
<linearGradient id="paint33_linear_1121_44159" x1="14.5435" y1="21.4685" x2="19.2625" y2="17.5785" gradientUnits="userSpaceOnUse">
<stop stop-color="#5B4D6A"/>
<stop offset="0.753" stop-color="#68636F"/>
</linearGradient>
<linearGradient id="paint34_linear_1121_44159" x1="22.513" y1="22.1875" x2="22.513" y2="21.5465" gradientUnits="userSpaceOnUse">
<stop offset="0.293" stop-color="#DACFE5"/>
<stop offset="1" stop-color="#DACFE5" stop-opacity="0"/>
</linearGradient>
</defs>
</svg>
