<svg width="1522" height="1521" viewBox="0 0 1522 1521" fill="none" xmlns="http://www.w3.org/2000/svg">
<path d="M964.313 205.028C1066.98 102.361 1233.44 102.361 1336.1 205.028C1438.77 307.696 1438.77 474.152 1336.1 576.819C1150.21 762.715 1150.21 762.715 964.313 576.819C861.645 474.152 861.645 307.696 964.313 205.028Z" fill="black"/>
<path d="M568.52 962.237C671.187 1064.9 671.187 1231.36 568.52 1334.03C465.852 1436.7 299.396 1436.7 196.728 1334.03C94.0609 1231.36 94.0609 1064.9 196.728 962.237C382.624 776.342 373.331 767.049 568.52 962.237Z" fill="black"/>
<path fill-rule="evenodd" clip-rule="evenodd" d="M610.303 276.023C633.187 488.462 708.02 627.058 800.716 719.395L800.706 719.406C892.956 810.465 1032.08 883.189 1247.57 905.735C1282.34 909.373 1309.81 934.341 1334.55 959.082C1351.56 976.091 1365.77 994.743 1377.17 1015.04C1388.57 1035.33 1397.17 1056.31 1402.97 1077.95C1408.77 1099.6 1411.57 1121.73 1411.38 1144.35C1411.19 1166.96 1408.29 1189.19 1402.68 1211.03C1397.08 1232.87 1388.57 1253.94 1377.17 1274.24C1365.77 1294.53 1351.56 1313.18 1334.55 1330.19C1317.54 1347.2 1298.89 1361.41 1278.59 1372.81C1258.3 1384.22 1237.33 1392.82 1215.68 1398.62C1194.03 1404.41 1171.9 1407.22 1149.28 1407.02C1126.67 1406.83 1104.44 1403.93 1082.6 1398.33C1060.76 1392.72 1039.69 1384.22 1019.4 1372.81C999.1 1361.41 980.448 1347.2 963.439 1330.19C938.891 1305.65 913.52 1278.6 909.802 1244.08C886.917 1031.64 812.085 893.048 719.388 800.711L719.399 800.7C627.149 709.642 488.022 636.917 272.534 614.371C237.761 610.733 210.296 585.765 185.555 561.024C168.546 544.015 154.34 525.363 142.936 505.068C131.532 484.772 122.93 463.801 117.132 442.153C111.333 420.505 108.531 398.373 108.724 375.759C108.917 353.144 111.816 330.916 117.422 309.075C123.027 287.233 131.532 266.165 142.936 245.87C154.34 225.575 168.546 206.923 185.555 189.913C202.565 172.904 221.217 158.698 241.512 147.294C261.807 135.89 282.779 127.289 304.427 121.49C326.075 115.691 348.206 112.889 370.821 113.082C393.435 113.275 415.663 116.175 437.505 121.78C459.346 127.385 480.414 135.89 500.709 147.294C521.005 158.698 539.657 172.904 556.666 189.913C581.213 214.461 606.585 241.504 610.303 276.023Z" fill="black"/>
</svg>
