<svg width="5861" height="1215" viewBox="0 0 5861 1215" fill="none" xmlns="http://www.w3.org/2000/svg">
<path d="M754.471 448.483C675.309 369.322 675.309 240.975 754.471 161.814C833.632 82.6522 961.979 82.6522 1041.14 161.814C1120.3 240.975 1120.3 369.322 1041.14 448.483C1004.82 484.802 977.73 511.889 955.192 529.919C932.639 547.961 915.067 556.578 897.806 556.578C880.544 556.578 862.972 547.961 840.419 529.919C817.881 511.889 790.79 484.802 754.471 448.483Z" fill="#DBFD09" stroke="#728408" stroke-width="5"/>
<path d="M155.327 752.851C161.94 746.238 168.232 739.916 174.233 733.886C201.21 706.781 222.311 685.58 240.308 670.351C262.334 651.714 279.225 642.465 296.005 642.035C312.765 641.606 330.079 649.96 352.984 668.352C375.864 686.724 403.863 714.718 441.996 752.851C521.158 832.012 521.158 960.359 441.996 1039.52C362.834 1118.68 234.488 1118.68 155.327 1039.52C76.165 960.359 76.165 832.012 155.327 752.851Z" fill="#DBFD09" stroke="#728408" stroke-width="5"/>
<mask id="path-3-inside-1_571_92" fill="white">
<path fill-rule="evenodd" clip-rule="evenodd" d="M476.377 215.451C494.24 381.271 552.651 489.454 625.006 561.528L624.997 561.537C697.003 632.614 805.601 689.381 973.802 706.979C1000.94 709.819 1022.38 729.308 1041.69 748.619C1054.97 761.896 1066.06 776.455 1074.96 792.297C1083.86 808.138 1090.58 824.508 1095.1 841.405C1099.63 858.303 1101.82 875.578 1101.67 893.23C1101.52 910.882 1099.25 928.232 1094.88 945.281C1090.5 962.329 1083.86 978.774 1074.96 994.616C1066.06 1010.46 1054.97 1025.02 1041.69 1038.29C1028.42 1051.57 1013.86 1062.66 998.017 1071.56C982.176 1080.46 965.806 1087.18 948.908 1091.7C932.011 1096.23 914.736 1098.42 897.084 1098.26C879.432 1098.11 862.082 1095.85 845.033 1091.48C827.985 1087.1 811.54 1080.46 795.698 1071.56C779.857 1062.66 765.298 1051.57 752.021 1038.29C732.86 1019.13 713.056 998.024 710.154 971.08C692.291 805.259 633.881 697.076 561.526 625.002L561.534 624.993C489.528 553.916 380.931 497.15 212.729 479.552C185.587 476.712 164.148 457.223 144.837 437.911C131.56 424.634 120.471 410.075 111.57 394.234C102.668 378.392 95.9544 362.023 91.4283 345.125C86.9021 328.227 84.7145 310.952 84.8653 293.301C85.0162 275.649 87.2793 258.298 91.6546 241.25C96.0298 224.201 102.668 207.756 111.57 191.915C120.471 176.073 131.56 161.514 144.837 148.237C158.114 134.961 172.673 123.872 188.514 114.97C204.356 106.069 220.725 99.355 237.623 94.8289C254.521 90.3027 271.795 88.1151 289.447 88.266C307.099 88.4169 324.45 90.6799 341.498 95.0552C358.547 99.4305 374.992 106.069 390.833 114.97C406.675 123.872 421.234 134.961 434.51 148.237C453.671 167.398 473.475 188.507 476.377 215.451Z"/>
</mask>
<path fill-rule="evenodd" clip-rule="evenodd" d="M476.377 215.451C494.24 381.271 552.651 489.454 625.006 561.528L624.997 561.537C697.003 632.614 805.601 689.381 973.802 706.979C1000.94 709.819 1022.38 729.308 1041.69 748.619C1054.97 761.896 1066.06 776.455 1074.96 792.297C1083.86 808.138 1090.58 824.508 1095.1 841.405C1099.63 858.303 1101.82 875.578 1101.67 893.23C1101.52 910.882 1099.25 928.232 1094.88 945.281C1090.5 962.329 1083.86 978.774 1074.96 994.616C1066.06 1010.46 1054.97 1025.02 1041.69 1038.29C1028.42 1051.57 1013.86 1062.66 998.017 1071.56C982.176 1080.46 965.806 1087.18 948.908 1091.7C932.011 1096.23 914.736 1098.42 897.084 1098.26C879.432 1098.11 862.082 1095.85 845.033 1091.48C827.985 1087.1 811.54 1080.46 795.698 1071.56C779.857 1062.66 765.298 1051.57 752.021 1038.29C732.86 1019.13 713.056 998.024 710.154 971.08C692.291 805.259 633.881 697.076 561.526 625.002L561.534 624.993C489.528 553.916 380.931 497.15 212.729 479.552C185.587 476.712 164.148 457.223 144.837 437.911C131.56 424.634 120.471 410.075 111.57 394.234C102.668 378.392 95.9544 362.023 91.4283 345.125C86.9021 328.227 84.7145 310.952 84.8653 293.301C85.0162 275.649 87.2793 258.298 91.6546 241.25C96.0298 224.201 102.668 207.756 111.57 191.915C120.471 176.073 131.56 161.514 144.837 148.237C158.114 134.961 172.673 123.872 188.514 114.97C204.356 106.069 220.725 99.355 237.623 94.8289C254.521 90.3027 271.795 88.1151 289.447 88.266C307.099 88.4169 324.45 90.6799 341.498 95.0552C358.547 99.4305 374.992 106.069 390.833 114.97C406.675 123.872 421.234 134.961 434.51 148.237C453.671 167.398 473.475 188.507 476.377 215.451Z" fill="#DBFD09"/>
<path d="M625.006 561.528L628.541 565.064L632.084 561.522L628.534 557.986L625.006 561.528ZM476.377 215.451L471.406 215.986L471.406 215.986L476.377 215.451ZM624.997 561.537L621.462 558.001L617.903 561.56L621.485 565.095L624.997 561.537ZM973.802 706.979L974.322 702.006L974.322 702.006L973.802 706.979ZM1074.96 792.297L1079.32 789.847L1079.32 789.847L1074.96 792.297ZM1095.1 841.405L1099.93 840.112L1099.93 840.112L1095.1 841.405ZM1101.67 893.23L1096.67 893.187L1096.67 893.187L1101.67 893.23ZM1074.96 994.616L1079.32 997.065L1079.32 997.065L1074.96 994.616ZM998.017 1071.56L1000.47 1075.92L1000.47 1075.92L998.017 1071.56ZM948.908 1091.7L950.202 1096.53L950.202 1096.53L948.908 1091.7ZM897.084 1098.26L897.127 1093.26L897.127 1093.26L897.084 1098.26ZM845.033 1091.48L843.79 1096.32L843.79 1096.32L845.033 1091.48ZM795.698 1071.56L793.249 1075.92L793.249 1075.92L795.698 1071.56ZM710.154 971.08L715.125 970.544L715.125 970.544L710.154 971.08ZM561.526 625.002L557.99 621.466L554.448 625.009L557.997 628.544L561.526 625.002ZM561.534 624.993L565.07 628.529L568.628 624.97L565.047 621.435L561.534 624.993ZM212.729 479.552L212.209 484.524L212.209 484.524L212.729 479.552ZM111.57 394.234L107.211 396.683L107.211 396.683L111.57 394.234ZM91.4283 345.125L86.5985 346.419L86.5985 346.419L91.4283 345.125ZM84.8653 293.301L89.8652 293.343L89.8652 293.343L84.8653 293.301ZM91.6546 241.25L96.4976 242.493L96.4976 242.493L91.6546 241.25ZM111.57 191.915L107.211 189.465L107.211 189.465L111.57 191.915ZM188.514 114.97L186.065 110.611L186.065 110.611L188.514 114.97ZM237.623 94.8289L236.329 89.9991L236.329 89.9991L237.623 94.8289ZM289.447 88.266L289.49 83.2661L289.49 83.2661L289.447 88.266ZM341.498 95.0552L342.741 90.2121L342.741 90.2121L341.498 95.0552ZM628.534 557.986C557.086 486.815 499.104 379.74 481.349 214.915L471.406 215.986C489.376 382.802 548.215 492.093 621.477 565.071L628.534 557.986ZM628.533 565.072L628.541 565.064L621.47 557.993L621.462 558.001L628.533 565.072ZM974.322 702.006C807.066 684.507 699.585 628.137 628.51 557.979L621.485 565.095C694.422 637.091 804.136 694.255 973.282 711.952L974.322 702.006ZM1045.23 745.084C1026.05 725.905 1003.45 705.054 974.322 702.006L973.282 711.952C998.435 714.583 1018.71 732.71 1038.16 752.155L1045.23 745.084ZM1079.32 789.847C1070.19 773.595 1058.82 758.672 1045.23 745.084L1038.16 752.155C1051.12 765.12 1061.93 779.316 1070.6 794.746L1079.32 789.847ZM1099.93 840.112C1095.29 822.795 1088.42 806.039 1079.32 789.847L1070.6 794.746C1079.31 810.238 1085.86 826.22 1090.27 842.699L1099.93 840.112ZM1106.67 893.273C1106.82 875.174 1104.58 857.449 1099.93 840.112L1090.27 842.699C1094.68 859.157 1096.81 875.982 1096.67 893.187L1106.67 893.273ZM1099.72 946.523C1104.2 929.082 1106.51 911.328 1106.67 893.272L1096.67 893.187C1096.52 910.435 1094.31 927.383 1090.03 944.038L1099.72 946.523ZM1079.32 997.065C1088.43 980.856 1095.23 964.007 1099.72 946.523L1090.03 944.038C1085.77 960.651 1079.3 976.692 1070.6 992.166L1079.32 997.065ZM1045.23 1041.83C1058.82 1028.24 1070.19 1013.32 1079.32 997.065L1070.6 992.166C1061.93 1007.6 1051.12 1021.79 1038.16 1034.76L1045.23 1041.83ZM1000.47 1075.92C1016.72 1066.79 1031.64 1055.42 1045.23 1041.83L1038.16 1034.76C1025.19 1047.72 1011 1058.53 995.568 1067.2L1000.47 1075.92ZM950.202 1096.53C967.518 1091.89 984.275 1085.02 1000.47 1075.92L995.568 1067.2C980.076 1075.91 964.094 1082.46 947.615 1086.87L950.202 1096.53ZM897.041 1103.26C915.14 1103.42 932.865 1101.18 950.202 1096.53L947.615 1086.87C931.157 1091.28 914.332 1093.41 897.127 1093.26L897.041 1103.26ZM843.79 1096.32C861.232 1100.79 878.985 1103.11 897.041 1103.26L897.127 1093.26C879.878 1093.12 862.931 1090.91 846.276 1086.63L843.79 1096.32ZM793.249 1075.92C809.457 1085.03 826.307 1091.83 843.79 1096.32L846.276 1086.63C829.663 1082.37 813.622 1075.9 798.148 1067.2L793.249 1075.92ZM748.485 1041.83C762.074 1055.42 776.996 1066.79 793.249 1075.92L798.148 1067.2C782.717 1058.53 768.521 1047.72 755.556 1034.76L748.485 1041.83ZM705.183 971.615C708.302 1000.57 729.518 1022.86 748.485 1041.83L755.556 1034.76C736.202 1015.4 717.811 995.476 715.125 970.544L705.183 971.615ZM557.997 628.544C629.445 699.716 687.427 806.79 705.183 971.615L715.125 970.544C697.155 803.728 638.316 694.437 565.054 621.46L557.997 628.544ZM557.999 621.458L557.99 621.466L565.061 628.538L565.07 628.529L557.999 621.458ZM212.209 484.524C379.466 502.024 486.946 558.393 558.022 628.552L565.047 621.435C492.11 549.439 382.396 492.276 213.249 474.579L212.209 484.524ZM141.301 441.447C160.48 460.625 183.077 481.477 212.209 484.524L213.249 474.579C188.096 471.947 167.817 453.82 148.372 434.376L141.301 441.447ZM107.211 396.683C116.343 412.936 127.713 427.858 141.301 441.447L148.372 434.376C135.408 421.411 124.599 407.215 115.929 391.784L107.211 396.683ZM86.5985 346.419C91.2368 363.735 98.1126 380.492 107.211 396.683L115.929 391.784C107.224 376.293 100.672 360.31 96.258 343.831L86.5985 346.419ZM79.8655 293.258C79.7108 311.357 81.9546 329.081 86.5985 346.419L96.258 343.831C91.8497 327.373 89.7181 310.548 89.8652 293.343L79.8655 293.258ZM86.8115 240.007C82.3353 257.449 80.0198 275.202 79.8655 293.258L89.8652 293.343C90.0126 276.095 92.2233 259.148 96.4976 242.493L86.8115 240.007ZM107.211 189.465C98.103 205.674 91.2984 222.523 86.8115 240.007L96.4976 242.493C100.761 225.879 107.233 209.839 115.929 194.364L107.211 189.465ZM141.301 144.702C127.713 158.291 116.343 173.213 107.211 189.465L115.929 194.364C124.599 178.934 135.408 164.738 148.372 151.773L141.301 144.702ZM186.065 110.611C169.812 119.744 154.89 131.113 141.301 144.702L148.372 151.773C161.337 138.808 175.533 128 190.963 119.329L186.065 110.611ZM236.329 89.9991C219.013 94.6375 202.256 101.513 186.065 110.611L190.963 119.329C206.455 110.624 222.438 104.073 238.917 99.6586L236.329 89.9991ZM289.49 83.2661C271.391 83.1115 253.667 85.3552 236.329 89.9991L238.917 99.6586C255.374 95.2503 272.2 93.1187 289.405 93.2658L289.49 83.2661ZM342.741 90.2121C325.299 85.7359 307.546 83.4205 289.49 83.2661L289.405 93.2658C306.653 93.4132 323.6 95.6239 340.255 99.8983L342.741 90.2121ZM393.282 110.611C377.074 101.504 360.224 94.6991 342.741 90.2121L340.255 99.8983C356.869 104.162 372.909 110.634 388.384 119.329L393.282 110.611ZM438.046 144.702C424.457 131.113 409.535 119.744 393.282 110.611L388.384 119.329C403.814 128 418.01 138.808 430.975 151.773L438.046 144.702ZM481.349 214.915C478.229 185.96 457.013 163.669 438.046 144.702L430.975 151.773C450.329 171.127 468.72 191.054 471.406 215.986L481.349 214.915Z" fill="#728408" mask="url(#path-3-inside-1_571_92)"/>
<path d="M1941 304.154V863.628C1941 882.86 1935.18 899.469 1923.52 913.456C1911.87 926.86 1898.17 933.562 1882.43 933.562C1842.22 933.562 1809.3 910.25 1783.65 863.628L1568.61 527.069V926.568H1447.09V304.154H1564.23L1819.49 711.521V304.154H1941ZM2477.07 926.568H2256.77C2186.84 926.568 2137.59 914.621 2109.04 890.727C2081.06 866.25 2067.08 823.415 2067.08 762.223V304.154H2477.07V412.552H2188.59V558.54H2390.52L2381.78 666.938H2188.59V753.481C2188.59 777.958 2194.12 794.859 2205.2 804.184C2216.27 813.508 2236.38 818.17 2265.52 818.17H2477.07V926.568ZM3052.68 586.513V633.719C3052.68 738.037 3032.87 813.8 2993.24 861.005C2954.19 908.211 2891.25 931.813 2804.42 931.813C2717.58 931.813 2654.64 908.211 2615.6 861.005C2577.13 813.8 2557.9 737.163 2557.9 631.096V585.639C2557.9 488.897 2577.42 416.923 2616.47 369.718C2656.1 322.512 2718.46 298.909 2803.54 298.909C2889.21 298.909 2952.15 322.803 2992.37 370.592C3032.58 418.38 3052.68 490.354 3052.68 586.513ZM2931.17 631.096V598.752C2931.17 542.805 2924.18 498.222 2910.19 465.003C2893.88 426.539 2858.91 407.307 2805.29 407.307C2751.09 407.307 2715.84 426.539 2699.52 465.003C2686.11 496.473 2679.41 541.056 2679.41 598.752V631.096C2679.41 706.276 2689.9 756.978 2710.88 783.203C2719.04 794.276 2730.99 803.892 2746.72 812.051C2763.04 819.627 2782.27 823.415 2804.42 823.415C2827.15 823.415 2846.38 819.627 2862.11 812.051C2877.85 804.475 2890.09 795.15 2898.83 784.077C2907.57 773.005 2914.27 758.435 2918.94 740.369C2927.09 711.812 2931.17 675.388 2931.17 631.096ZM3628.38 612.739L3629.25 680.05C3626.92 722.594 3621.68 758.435 3613.52 787.574C3605.36 816.713 3589.33 843.23 3565.44 867.124C3525.81 906.754 3468.11 926.568 3392.35 926.568C3303.18 926.568 3241.99 914.913 3208.77 891.601C3175.55 867.707 3158.95 824.872 3158.95 763.097V304.154H3401.09C3471.03 304.154 3525.81 323.969 3565.44 363.598C3597.49 395.651 3616.43 434.698 3622.26 480.738C3626.34 513.374 3628.38 557.374 3628.38 612.739ZM3480.64 779.707C3491.72 766.303 3498.71 747.945 3501.62 724.633C3505.12 700.739 3506.87 663.732 3506.87 613.613C3506.87 563.493 3505.12 527.361 3501.62 505.215C3498.71 482.486 3491.72 464.42 3480.64 451.016C3459.66 425.373 3429.36 412.552 3389.73 412.552H3280.46V756.978C3280.46 780.289 3288.32 796.316 3304.06 805.058C3319.79 813.8 3347.77 818.17 3387.98 818.17C3428.77 818.17 3459.66 805.349 3480.64 779.707ZM4207.24 926.568H4080.49L4045.52 819.045H3836.59L3802.5 926.568H3675.74L3875.05 356.605C3883.8 336.79 3893.41 323.095 3903.9 315.518C3914.97 307.942 3928.38 304.154 3944.11 304.154C3959.85 304.154 3972.38 307.651 3981.7 314.644C3991.61 321.638 4000.35 335.625 4007.93 356.605L4207.24 926.568ZM4017.54 716.766L3944.11 470.248L3867.19 716.766H4017.54ZM4697.39 412.552H4530.42V926.568H4408.91V412.552H4242.82V304.154H4697.39V412.552ZM5202.04 926.568H4981.75C4911.81 926.568 4862.57 914.621 4834.01 890.727C4806.04 866.25 4792.05 823.415 4792.05 762.223V304.154H5202.04V412.552H4913.56V558.54H5115.5L5106.76 666.938H4913.56V753.481C4913.56 777.958 4919.1 794.859 4930.17 804.184C4941.24 813.508 4961.35 818.17 4990.49 818.17H5202.04V926.568ZM5806.51 304.154V863.628C5806.51 882.86 5800.68 899.469 5789.02 913.456C5777.37 926.86 5763.67 933.562 5747.94 933.562C5707.72 933.562 5674.8 910.25 5649.15 863.628L5434.11 527.069V926.568H5312.6V304.154H5429.74L5685 711.521V304.154H5806.51Z" fill="black"/>
</svg>
