<svg width="2025" height="804" viewBox="0 0 2025 804" fill="none" xmlns="http://www.w3.org/2000/svg">
<path d="M265.234 626C246.3 626 229.259 620.793 214.112 610.379C199.438 599.965 187.84 585.528 179.32 567.067C171.273 548.606 167.249 527.305 167.249 503.163V98.4418C167.249 90.3947 169.616 84.0044 174.35 79.2708C179.557 74.0639 186.184 71.4604 194.231 71.4604C202.278 71.4604 208.668 74.0639 213.402 79.2708C218.609 84.0044 221.212 90.3947 221.212 98.4418V503.163C221.212 523.518 225.236 540.085 233.283 552.866C241.803 565.647 252.454 572.037 265.234 572.037H282.985C290.086 572.037 295.766 574.641 300.026 579.848C304.287 584.581 306.417 590.971 306.417 599.019C306.417 607.066 303.34 613.693 297.186 618.9C291.506 623.633 283.932 626 274.465 626H265.234ZM550.831 630.26C517.222 630.26 487.164 623.397 460.656 609.669C434.148 595.468 413.083 574.877 397.462 547.896C382.315 520.914 374.741 488.016 374.741 449.201V264.591C374.741 257.017 377.345 250.627 382.552 245.42C387.759 240.213 394.149 237.609 401.723 237.609C409.77 237.609 416.397 240.213 421.604 245.42C426.811 250.627 429.414 257.017 429.414 264.591V449.201C429.414 478.549 434.858 502.69 445.745 521.624C457.106 540.559 472.253 554.76 491.187 564.227C510.595 573.694 532.37 578.427 556.511 578.427C579.705 578.427 600.533 573.931 618.994 564.937C637.929 555.943 652.839 543.636 663.727 528.015C674.614 512.394 680.057 494.643 680.057 474.762H719.11C717.689 504.584 709.406 531.328 694.258 554.996C679.584 578.191 659.703 596.652 634.615 610.379C609.527 623.633 581.599 630.26 550.831 630.26ZM707.039 626C698.992 626 692.365 623.633 687.158 618.9C682.424 613.693 680.057 606.829 680.057 598.309V264.591C680.057 256.544 682.424 250.153 687.158 245.42C692.365 240.213 698.992 237.609 707.039 237.609C715.086 237.609 721.713 240.213 726.92 245.42C732.127 250.153 734.73 256.544 734.73 264.591V598.309C734.73 606.829 732.127 613.693 726.92 618.9C721.713 623.633 715.086 626 707.039 626ZM1035.61 629.55C998.219 629.55 964.847 621.03 935.499 603.989C906.624 586.475 883.666 562.807 866.625 532.985C850.058 503.163 841.774 469.555 841.774 432.16C841.774 394.291 849.821 360.446 865.915 330.624C882.01 300.803 904.021 277.371 931.949 260.33C959.877 242.816 992.066 234.059 1028.51 234.059C1057.39 234.059 1083.9 239.739 1108.04 251.1C1132.65 262.461 1154.19 279.501 1172.65 302.223C1177.86 307.903 1179.75 314.057 1178.33 320.684C1176.91 326.837 1172.89 332.281 1166.26 337.015C1161.05 340.801 1155.14 342.222 1148.51 341.275C1142.36 339.855 1136.91 336.305 1132.18 330.624C1104.72 299.383 1070.17 283.762 1028.51 283.762C1002.01 283.762 978.575 290.152 958.22 302.933C938.339 315.713 922.718 333.228 911.358 355.476C900.471 377.723 895.027 403.285 895.027 432.16C895.027 460.561 900.944 485.886 912.778 508.134C924.612 530.382 941.179 547.896 962.481 560.677C983.782 573.457 1008.16 579.848 1035.61 579.848C1054.08 579.848 1070.88 577.481 1086.03 572.747C1101.65 567.54 1115.38 559.73 1127.21 549.316C1132.89 544.582 1138.81 541.979 1144.96 541.505C1151.11 541.032 1156.79 542.926 1162 547.186C1167.68 552.393 1170.76 558.31 1171.23 564.937C1172.18 571.564 1170.05 577.244 1164.84 581.978C1130.29 613.693 1087.21 629.55 1035.61 629.55ZM1323.7 626C1315.18 626 1308.31 623.633 1303.1 618.9C1298.37 613.693 1296 606.829 1296 598.309V265.301C1296 256.78 1298.37 250.153 1303.1 245.42C1308.31 240.213 1315.18 237.609 1323.7 237.609C1331.74 237.609 1338.13 240.213 1342.87 245.42C1348.07 250.153 1350.68 256.78 1350.68 265.301V598.309C1350.68 606.829 1348.07 613.693 1342.87 618.9C1338.13 623.633 1331.74 626 1323.7 626ZM1322.99 163.765C1312.57 163.765 1303.58 159.978 1296 152.405C1288.43 144.831 1284.64 135.6 1284.64 124.713C1284.64 112.879 1288.43 103.649 1296 97.0217C1304.05 89.9213 1313.28 86.3712 1323.7 86.3712C1333.64 86.3712 1342.39 89.9213 1349.97 97.0217C1358.01 103.649 1362.04 112.879 1362.04 124.713C1362.04 135.6 1358.25 144.831 1350.68 152.405C1343.1 159.978 1333.87 163.765 1322.99 163.765ZM1322.99 774.398C1312.57 774.398 1303.58 770.611 1296 763.037C1288.43 755.464 1284.64 746.233 1284.64 735.346C1284.64 723.512 1288.43 714.045 1296 706.944C1304.05 700.317 1313.28 697.004 1323.7 697.004C1333.64 697.004 1342.39 700.317 1349.97 706.944C1358.01 714.045 1362.04 723.512 1362.04 735.346C1362.04 746.233 1358.25 755.464 1350.68 763.037C1343.1 770.611 1333.87 774.398 1322.99 774.398ZM1661.01 629.55C1624.56 629.55 1591.9 621.03 1563.02 603.989C1534.15 586.475 1511.19 562.807 1494.15 532.985C1477.58 503.163 1469.3 469.555 1469.3 432.16C1469.3 394.291 1477.82 360.446 1494.86 330.624C1512.37 300.803 1536.04 277.371 1565.86 260.33C1595.68 242.816 1629.29 234.059 1666.69 234.059C1704.08 234.059 1737.46 242.816 1766.8 260.33C1796.63 277.371 1820.06 300.803 1837.1 330.624C1854.61 360.446 1863.61 394.291 1864.08 432.16L1842.07 449.201C1842.07 483.282 1834.02 514.051 1817.93 541.505C1802.31 568.487 1780.77 590.025 1753.31 606.119C1726.33 621.74 1695.56 629.55 1661.01 629.55ZM1666.69 579.848C1694.14 579.848 1718.52 573.457 1739.82 560.677C1761.6 547.896 1778.64 530.382 1790.95 508.134C1803.73 485.412 1810.12 460.088 1810.12 432.16C1810.12 403.758 1803.73 378.433 1790.95 356.186C1778.64 333.938 1761.6 316.423 1739.82 303.643C1718.52 290.389 1694.14 283.762 1666.69 283.762C1639.71 283.762 1615.33 290.389 1593.55 303.643C1571.78 316.423 1554.5 333.938 1541.72 356.186C1528.94 378.433 1522.55 403.758 1522.55 432.16C1522.55 460.088 1528.94 485.412 1541.72 508.134C1554.5 530.382 1571.78 547.896 1593.55 560.677C1615.33 573.457 1639.71 579.848 1666.69 579.848ZM1836.39 626C1828.34 626 1821.71 623.633 1816.51 618.9C1811.3 613.693 1808.7 607.066 1808.7 599.019V477.602L1822.19 421.509L1864.08 432.16V599.019C1864.08 607.066 1861.48 613.693 1856.27 618.9C1851.06 623.633 1844.43 626 1836.39 626Z" fill="black"/>
<path d="M1295.15 95.0606C1311.08 79.1286 1336.91 79.1286 1352.84 95.0606C1368.78 110.993 1368.78 136.824 1352.84 152.756C1324 181.603 1324 181.603 1295.15 152.756C1279.22 136.824 1279.22 110.993 1295.15 95.0606Z" fill="black"/>
<path d="M1293.97 764.031C1309.9 779.963 1335.73 779.963 1351.66 764.031C1367.59 748.099 1367.59 722.268 1351.66 706.336C1322.81 677.488 1322.81 677.488 1293.97 706.336C1278.03 722.268 1278.03 748.099 1293.97 764.031Z" fill="black"/>
</svg>
