<svg width="17" height="18" viewBox="0 0 17 18" fill="none" xmlns="http://www.w3.org/2000/svg">
    <g clip-path="url(#clip0_730_50392)">
    <path fill-rule="evenodd" clip-rule="evenodd" d="M0.679688 3.8695C0.679688 2.56626 1.73618 1.50977 3.03943 1.50977H14.3662C15.6694 1.50977 16.7259 2.56626 16.7259 3.8695V10.7914C16.7259 12.0947 15.6694 13.1511 14.3662 13.1511H9.29294C9.24903 13.1511 9.20713 13.1695 9.17734 13.2018L5.80697 16.853C5.43786 17.2529 4.7699 16.9917 4.7699 16.4475V13.3085C4.7699 13.2216 4.69947 13.1511 4.61258 13.1511H3.03943C1.73618 13.1511 0.679688 12.0947 0.679688 10.7914V3.8695ZM3.03943 2.45366C2.25748 2.45366 1.62358 3.08756 1.62358 3.8695V10.7914C1.62358 11.5734 2.25748 12.2072 3.03943 12.2072H4.61258C5.22077 12.2072 5.7138 12.7003 5.7138 13.3085V15.5623L8.48377 12.5615C8.69223 12.3357 8.98559 12.2072 9.29294 12.2072H14.3662C15.1481 12.2072 15.782 11.5734 15.782 10.7914V3.8695C15.782 3.08756 15.1481 2.45366 14.3662 2.45366H3.03943Z" fill="black"/>
    </g>
    <defs>
    <clipPath id="clip0_730_50392">
    <rect width="16.2151" height="16.2151" fill="white" transform="translate(0.679688 0.833984)"/>
    </clipPath>
    </defs>
    </svg>
    