<svg width="16" height="16" viewBox="0 0 16 16" fill="none" xmlns="http://www.w3.org/2000/svg">
    <g clip-path="url(#clip0_730_50389)">
    <path d="M14.4119 10.5332C14.7073 10.1565 14.8489 9.75257 14.8308 9.33663C14.8128 8.87848 14.6078 8.51981 14.439 8.29978C14.6349 7.81149 14.7103 7.04289 14.0562 6.4461C13.577 6.00906 12.7632 5.81314 11.6359 5.86739C10.8432 5.90356 10.1801 6.05125 10.153 6.05728H10.1499C9.99924 6.08441 9.83949 6.11757 9.67673 6.15373C9.66467 5.96083 9.69783 5.48159 10.0535 4.40254C10.4755 3.11853 10.4514 2.13593 9.97512 1.47886C9.47478 0.788629 8.67604 0.734375 8.44095 0.734375C8.21489 0.734375 8.00691 0.827812 7.85922 0.999616C7.52466 1.38844 7.56384 2.10579 7.60604 2.43734C7.20818 3.50434 6.09296 6.12058 5.14954 6.84698C5.13146 6.85903 5.11639 6.8741 5.10132 6.88918C4.82402 7.18154 4.63715 7.49802 4.51055 7.77532C4.33272 7.67887 4.13078 7.62462 3.91376 7.62462H2.07516C1.38191 7.62462 0.821289 8.18825 0.821289 8.87848V13.7764C0.821289 14.4696 1.38493 15.0303 2.07516 15.0303H3.91376C4.18202 15.0303 4.43219 14.9459 4.63715 14.8012L5.34546 14.8856C5.45397 14.9007 7.383 15.1448 9.36326 15.1056C9.72194 15.1327 10.0595 15.1478 10.373 15.1478C10.9125 15.1478 11.3827 15.1056 11.7745 15.0212C12.6969 14.8253 13.3268 14.4335 13.6463 13.8578C13.8904 13.4177 13.8904 12.9807 13.8513 12.7034C14.4511 12.1608 14.5566 11.561 14.5355 11.1391C14.5234 10.8949 14.4692 10.6869 14.4119 10.5332ZM2.07516 14.2165C1.83101 14.2165 1.6351 14.0175 1.6351 13.7764V8.87547C1.6351 8.63133 1.83403 8.43541 2.07516 8.43541H3.91376C4.1579 8.43541 4.35382 8.63434 4.35382 8.87547V13.7734C4.35382 14.0175 4.15489 14.2134 3.91376 14.2134H2.07516V14.2165ZM13.6403 10.1806C13.5137 10.3132 13.4896 10.5151 13.586 10.6719C13.586 10.6749 13.7096 10.8859 13.7247 11.1752C13.7458 11.5701 13.5559 11.9197 13.158 12.2181C13.0164 12.3266 12.9591 12.5135 13.0194 12.6823C13.0194 12.6853 13.149 13.0832 12.938 13.4599C12.736 13.8216 12.2869 14.0808 11.6058 14.2255C11.0602 14.3431 10.3187 14.3642 9.40847 14.2918C9.39642 14.2918 9.38135 14.2918 9.36627 14.2918C7.42821 14.334 5.46904 14.0808 5.44794 14.0778H5.44493L5.1405 14.0416C5.15859 13.9572 5.16763 13.8668 5.16763 13.7764V8.87547C5.16763 8.74586 5.14653 8.61927 5.11036 8.50172C5.16461 8.29978 5.31532 7.85067 5.67098 7.46788C7.02432 6.39486 8.34751 2.77492 8.40478 2.61819C8.42889 2.55489 8.43492 2.48557 8.42286 2.41625C8.37162 2.07867 8.38971 1.66573 8.46204 1.54215C8.62179 1.54517 9.05281 1.59038 9.31202 1.94906C9.61946 2.37405 9.6074 3.1336 9.27585 4.14031C8.76948 5.67449 8.72729 6.48227 9.12816 6.83794C9.32709 7.01577 9.59233 7.02481 9.78524 6.95549C9.9691 6.91329 10.1439 6.87712 10.3097 6.84999C10.3217 6.84698 10.3368 6.84396 10.3489 6.84095C11.2742 6.63901 12.932 6.51543 13.5077 7.03988C13.9959 7.48597 13.6493 8.07673 13.6101 8.14003C13.4986 8.30882 13.5318 8.52885 13.6825 8.66448C13.6855 8.6675 14.002 8.96589 14.017 9.36677C14.0291 9.63503 13.9025 9.90931 13.6403 10.1806Z" fill="black"/>
    </g>
    <defs>
    <clipPath id="clip0_730_50389">
    <rect width="14.4134" height="14.4134" fill="white" transform="translate(0.620117 0.734375)"/>
    </clipPath>
    </defs>
    </svg>
    