<svg width="17" height="18" viewBox="0 0 17 18" fill="none" xmlns="http://www.w3.org/2000/svg">
    <g clip-path="url(#clip0_730_50395)">
    <path d="M16.197 9.54423C16.5106 9.20032 16.5106 8.67411 16.197 8.33021L10.9272 2.55168C10.3729 1.94379 9.36079 2.33598 9.36079 3.15869V5.68793H8.50235C6.37587 5.68793 4.37657 6.51606 2.87286 8.01977C1.36914 9.52349 0.541016 11.5228 0.541016 13.6494V15.8874C0.541016 16.2987 1.04688 16.4948 1.32413 16.1911L1.95925 15.4952C3.85636 13.4167 6.54932 12.2143 9.36079 12.187V14.7158C9.36079 15.5385 10.3729 15.9307 10.9272 15.3228L16.197 9.54423ZM1.49124 14.6063V13.6494C1.49124 11.7766 2.22052 10.0159 3.54473 8.69165C4.86894 7.36744 6.62961 6.63816 8.50235 6.63816H10.3109V3.28607L15.4647 8.93722L10.3109 14.5885V11.2364H9.45839C6.45913 11.2364 3.57492 12.4605 1.49124 14.6063Z" fill="black"/>
    </g>
    <defs>
    <clipPath id="clip0_730_50395">
    <rect width="16.2151" height="16.2151" fill="white" transform="translate(0.541016 0.833984)"/>
    </clipPath>
    </defs>
    </svg>
    