<svg width="292" height="632" viewBox="0 0 292 632" fill="none" xmlns="http://www.w3.org/2000/svg">
    <g clip-path="url(#clip0_12_5856)">
    <path opacity="0.6" d="M89.0364 53.8071V45.6347H94.1267V46.7497H90.2156V49.0263H92.7724V50.1412H90.2156V53.8071H89.0364ZM97.1207 53.9472C96.2957 53.9472 95.6458 53.669 95.171 53.1125C94.6962 52.5521 94.4588 51.7913 94.4588 50.83C94.4588 50.1879 94.5658 49.6334 94.7799 49.1664C94.9978 48.6994 95.3052 48.3394 95.7022 48.0864C96.103 47.8296 96.5759 47.7012 97.1207 47.7012C97.6694 47.7012 98.1422 47.8276 98.5392 48.0806C98.94 48.3297 99.2475 48.6877 99.4615 49.1547C99.6755 49.6217 99.7826 50.1762 99.7826 50.8184C99.7826 51.4644 99.6736 52.0209 99.4557 52.4879C99.2416 52.9549 98.9361 53.3148 98.5392 53.5678C98.1422 53.8207 97.6694 53.9472 97.1207 53.9472ZM97.1207 52.8498C97.5877 52.8498 97.9516 52.6708 98.2123 52.3127C98.4769 51.9547 98.6092 51.4566 98.6092 50.8184C98.6092 50.1801 98.4769 49.682 98.2123 49.324C97.9516 48.9659 97.5877 48.7869 97.1207 48.7869C96.6537 48.7869 96.2879 48.9659 96.0233 49.324C95.7625 49.682 95.6321 50.184 95.6321 50.83C95.6321 51.4644 95.7625 51.9606 96.0233 52.3186C96.2879 52.6727 96.6537 52.8498 97.1207 52.8498ZM101.595 53.8071V45.9149L102.756 45.3779V53.8071H101.595ZM104.959 53.8071V45.9149L106.12 45.3779V53.8071H104.959ZM110.588 53.9472C109.763 53.9472 109.113 53.669 108.638 53.1125C108.163 52.5521 107.926 51.7913 107.926 50.83C107.926 50.1879 108.033 49.6334 108.247 49.1664C108.465 48.6994 108.772 48.3394 109.169 48.0864C109.57 47.8296 110.043 47.7012 110.588 47.7012C111.137 47.7012 111.609 47.8276 112.006 48.0806C112.407 48.3297 112.715 48.6877 112.929 49.1547C113.143 49.6217 113.25 50.1762 113.25 50.8184C113.25 51.4644 113.141 52.0209 112.923 52.4879C112.709 52.9549 112.403 53.3148 112.006 53.5678C111.609 53.8207 111.137 53.9472 110.588 53.9472ZM110.588 52.8498C111.055 52.8498 111.419 52.6708 111.679 52.3127C111.944 51.9547 112.076 51.4566 112.076 50.8184C112.076 50.1801 111.944 49.682 111.679 49.324C111.419 48.9659 111.055 48.7869 110.588 48.7869C110.121 48.7869 109.755 48.9659 109.49 49.324C109.23 49.682 109.099 50.184 109.099 50.83C109.099 51.4644 109.23 51.9606 109.49 52.3186C109.755 52.6727 110.121 52.8498 110.588 52.8498ZM115.94 53.8071L114.37 47.8413H115.52L116.366 51.5072C116.394 51.6123 116.419 51.7271 116.442 51.8516C116.466 51.9722 116.487 52.0851 116.506 52.1902C116.526 52.0812 116.551 51.9664 116.582 51.8457C116.613 51.7251 116.643 51.6123 116.67 51.5072L117.68 47.8413H118.666L119.676 51.5072C119.707 51.62 119.738 51.7387 119.77 51.8633C119.801 51.9839 119.828 52.0987 119.851 52.2077C119.871 52.0987 119.89 51.9839 119.91 51.8633C119.933 51.7387 119.958 51.62 119.986 51.5072L120.832 47.8413H121.982L120.406 53.8071H119.373L118.386 50.4564C118.355 50.3397 118.318 50.2035 118.275 50.0478C118.232 49.8922 118.195 49.7521 118.164 49.6275C118.137 49.7521 118.104 49.8922 118.065 50.0478C118.026 50.2035 117.989 50.3397 117.954 50.4564L116.979 53.8071H115.94ZM123.567 53.8071V47.8413H124.728V53.8071H123.567ZM124.145 46.8664C123.95 46.8664 123.783 46.7983 123.643 46.6621C123.506 46.522 123.438 46.3547 123.438 46.1601C123.438 45.9616 123.506 45.7923 123.643 45.6522C123.779 45.5121 123.946 45.4421 124.145 45.4421C124.347 45.4421 124.516 45.5121 124.653 45.6522C124.789 45.7923 124.857 45.9616 124.857 46.1601C124.857 46.3586 124.789 46.5259 124.653 46.6621C124.516 46.7983 124.347 46.8664 124.145 46.8664ZM126.828 53.8071V47.8413H127.99V48.4367C128.177 48.1876 128.398 48.0028 128.655 47.8821C128.916 47.7615 129.214 47.7012 129.548 47.7012C130.253 47.7012 130.782 47.9152 131.136 48.3433C131.49 48.7714 131.667 49.4174 131.667 50.2813V53.8071H130.506V50.3105C130.506 49.8085 130.403 49.429 130.196 49.1722C129.99 48.9154 129.69 48.7869 129.297 48.7869C128.861 48.7869 128.535 48.9115 128.317 49.1605C128.099 49.4096 127.99 49.7851 127.99 50.2872V53.8071H126.828ZM135.761 56.2939L135.166 55.3599C135.711 55.3249 136.146 55.2548 136.473 55.1497C136.804 55.0447 137.043 54.8968 137.191 54.7061C137.339 54.5154 137.413 54.2741 137.413 53.9823V53.2993C137.075 53.7312 136.59 53.9472 135.96 53.9472C135.461 53.9472 135.028 53.8188 134.658 53.562C134.288 53.3051 134.002 52.9432 133.8 52.4762C133.601 52.0053 133.502 51.4527 133.502 50.8184C133.502 50.184 133.603 49.6334 133.806 49.1664C134.012 48.6994 134.3 48.3394 134.669 48.0864C135.043 47.8296 135.483 47.7012 135.989 47.7012C136.277 47.7012 136.543 47.7518 136.788 47.8529C137.038 47.9541 137.246 48.0962 137.413 48.2791V47.8413H138.575V53.5211C138.575 53.9803 138.52 54.3773 138.411 54.7119C138.306 55.0466 138.139 55.3249 137.909 55.5467C137.68 55.7724 137.388 55.9456 137.034 56.0662C136.68 56.1869 136.255 56.2627 135.761 56.2939ZM136.181 52.8498C136.419 52.8498 136.648 52.7836 136.87 52.6513C137.096 52.5151 137.277 52.3361 137.413 52.1143V49.4933C137.289 49.287 137.11 49.1177 136.876 48.9854C136.643 48.8531 136.413 48.7869 136.187 48.7869C135.697 48.7869 135.321 48.9601 135.061 49.3065C134.804 49.6528 134.675 50.1568 134.675 50.8184C134.675 51.2348 134.736 51.5967 134.856 51.9041C134.981 52.2077 135.156 52.4412 135.382 52.6046C135.607 52.7681 135.874 52.8498 136.181 52.8498Z" fill="white"/>
    <path d="M159.812 54.5854V45.8682H165.609V47.4H161.425V49.3177H164.102V50.8495H161.425V54.5854H159.812ZM168.736 54.7349C167.84 54.7349 167.132 54.4381 166.613 53.8445C166.094 53.2509 165.835 52.4393 165.835 51.4099C165.835 50.7291 165.953 50.1397 166.19 49.6415C166.426 49.1392 166.76 48.7532 167.192 48.4834C167.628 48.2094 168.143 48.0724 168.736 48.0724C169.326 48.0724 169.836 48.2073 170.268 48.4772C170.7 48.747 171.032 49.1309 171.264 49.6291C171.497 50.1272 171.613 50.7187 171.613 51.4037C171.613 52.0927 171.497 52.6863 171.264 53.1845C171.036 53.6826 170.706 54.0666 170.274 54.3364C169.842 54.6021 169.33 54.7349 168.736 54.7349ZM168.736 53.2467C169.155 53.2467 169.481 53.0848 169.714 52.7611C169.946 52.4373 170.062 51.9848 170.062 51.4037C170.062 50.8225 169.944 50.37 169.708 50.0463C169.475 49.7183 169.151 49.5544 168.736 49.5544C168.317 49.5544 167.989 49.7183 167.752 50.0463C167.516 50.3742 167.397 50.8287 167.397 51.4099C167.397 51.9827 167.516 52.4331 167.752 52.7611C167.989 53.0848 168.317 53.2467 168.736 53.2467ZM173.297 54.5854V48.2219H174.854V48.9068C174.97 48.6619 175.153 48.4626 175.402 48.309C175.651 48.1513 175.913 48.0724 176.187 48.0724C176.639 48.0724 177.021 48.2281 177.332 48.5394L177.114 49.9653C176.944 49.8242 176.778 49.7245 176.616 49.6664C176.454 49.6083 176.276 49.5793 176.081 49.5793C175.823 49.5793 175.603 49.6395 175.421 49.7598C175.238 49.8802 175.097 50.0546 174.997 50.2829C174.902 50.5112 174.854 50.7851 174.854 51.1048V54.5854H173.297ZM183.973 54.5854V51.1857L180.778 45.8682H182.597L184.77 49.5045L186.949 45.8682H188.755L185.573 51.1733V54.5854H183.973ZM191.612 54.7349C190.715 54.7349 190.007 54.4381 189.488 53.8445C188.97 53.2509 188.71 52.4393 188.71 51.4099C188.71 50.7291 188.828 50.1397 189.065 49.6415C189.302 49.1392 189.636 48.7532 190.067 48.4834C190.503 48.2094 191.018 48.0724 191.612 48.0724C192.201 48.0724 192.712 48.2073 193.143 48.4772C193.575 48.747 193.907 49.1309 194.14 49.6291C194.372 50.1272 194.488 50.7187 194.488 51.4037C194.488 52.0927 194.372 52.6863 194.14 53.1845C193.911 53.6826 193.581 54.0666 193.15 54.3364C192.718 54.6021 192.205 54.7349 191.612 54.7349ZM191.612 53.2467C192.031 53.2467 192.357 53.0848 192.589 52.7611C192.822 52.4373 192.938 51.9848 192.938 51.4037C192.938 50.8225 192.82 50.37 192.583 50.0463C192.351 49.7183 192.027 49.5544 191.612 49.5544C191.192 49.5544 190.864 49.7183 190.628 50.0463C190.391 50.3742 190.273 50.8287 190.273 51.4099C190.273 51.9827 190.391 52.4331 190.628 52.7611C190.864 53.0848 191.192 53.2467 191.612 53.2467ZM198.468 54.7349C197.758 54.7349 197.208 54.5149 196.818 54.0749C196.427 53.6307 196.232 53.0039 196.232 52.1944V48.2219H197.789V51.7088C197.789 52.2442 197.88 52.6344 198.063 52.8794C198.245 53.1243 198.534 53.2467 198.928 53.2467C199.352 53.2467 199.663 53.1243 199.862 52.8794C200.066 52.6303 200.167 52.2484 200.167 51.7337V48.2219H201.718V54.5854H200.167V53.9877C199.972 54.2368 199.732 54.4236 199.445 54.5481C199.163 54.6726 198.837 54.7349 198.468 54.7349Z" fill="white"/>
    <path opacity="0.3" d="M151.773 46.6987V56.0386" stroke="white" stroke-width="1.55665" stroke-linecap="round"/>
    <path fill-rule="evenodd" clip-rule="evenodd" d="M19.7488 551.859C19.7512 552.085 19.7632 552.315 19.7199 552.539C19.575 553.282 18.6998 553.785 17.6631 553.739C17.0393 553.711 16.5941 553.495 16.3521 553.075C16.0619 552.57 16.3255 552.016 16.9777 551.736C17.377 551.566 17.8248 551.507 18.2662 551.436C18.871 551.339 18.9353 551.287 18.9286 550.834C18.9154 549.952 18.8982 549.071 18.883 548.19C18.8826 548.163 18.8823 548.136 18.8798 548.11C18.86 547.92 18.7702 547.87 18.5143 547.912C17.6047 548.059 14.6991 548.526 14.1549 548.611C13.8142 548.665 13.7541 548.719 13.7561 548.976C13.7668 550.349 13.7824 551.723 13.7882 553.096C13.7891 553.265 13.7665 553.437 13.7176 553.603C13.5264 554.247 12.9138 554.648 11.9946 554.751C11.4908 554.807 11.027 554.756 10.6503 554.489C9.98531 554.02 10.1209 553.145 10.9095 552.784C11.31 552.601 11.7617 552.524 12.2134 552.446C12.3348 552.425 12.4554 552.401 12.5739 552.373C12.8399 552.311 12.9749 552.177 12.9764 551.974C12.977 551.762 12.9776 551.55 12.9755 551.339C12.9583 549.942 12.9404 548.546 12.9231 547.151C12.9181 546.769 13.0642 546.633 13.5745 546.546C15.2978 546.252 17.0205 545.959 18.7444 545.666C18.8961 545.641 19.0506 545.621 19.2053 545.612C19.4201 545.6 19.5809 545.683 19.6306 545.836C19.663 545.934 19.6748 546.037 19.6761 546.138C19.6926 547.168 19.7413 550.981 19.7489 551.858L19.7488 551.859Z" fill="white"/>
    <path d="M0 567.399H291.872V632H0V567.399Z" fill="black"/>
    <g opacity="0.7">
    <path fill-rule="evenodd" clip-rule="evenodd" d="M262.685 584.503C259.802 584.503 257.615 586.576 257.615 588.958H256.079C256.079 585.571 259.119 582.967 262.685 582.967C266.25 582.967 269.29 585.571 269.29 588.958H267.754C267.754 586.576 265.567 584.503 262.685 584.503Z" fill="white"/>
    <path fill-rule="evenodd" clip-rule="evenodd" d="M262.685 580.632C264.189 580.632 265.409 579.412 265.409 577.908C265.409 576.403 264.189 575.184 262.685 575.184C261.18 575.184 259.96 576.403 259.96 577.908C259.96 579.412 261.18 580.632 262.685 580.632ZM262.685 582.189C265.049 582.189 266.965 580.272 266.965 577.908C266.965 575.544 265.049 573.627 262.685 573.627C260.32 573.627 258.404 575.544 258.404 577.908C258.404 580.272 260.32 582.189 262.685 582.189Z" fill="white"/>
    <path d="M260.659 599.178L259.207 595.874C259.176 595.799 259.142 595.717 259.106 595.629C259.072 595.541 259.042 595.458 259.017 595.38C259.022 595.442 259.026 595.522 259.028 595.618C259.031 595.714 259.032 595.799 259.032 595.874V599.085H258.246V593.637H259.009L260.526 597.112C260.55 597.169 260.573 597.227 260.597 597.287C260.62 597.347 260.643 597.408 260.667 597.47C260.687 597.41 260.708 597.351 260.729 597.291C260.752 597.231 260.777 597.172 260.803 597.112L262.324 593.637H263.072V599.085H262.282V595.874C262.282 595.797 262.283 595.708 262.285 595.61C262.291 595.511 262.293 595.433 262.293 595.376C262.267 595.449 262.235 595.533 262.196 595.629C262.16 595.723 262.126 595.807 262.095 595.882L260.659 599.178ZM265.808 599.178C265.437 599.178 265.117 599.09 264.847 598.914C264.58 598.737 264.374 598.492 264.228 598.178C264.086 597.864 264.014 597.502 264.014 597.092C264.014 596.657 264.088 596.284 264.236 595.976C264.387 595.664 264.596 595.427 264.863 595.263C265.133 595.097 265.448 595.014 265.808 595.014C266.115 595.014 266.394 595.082 266.645 595.217C266.899 595.349 267.102 595.555 267.252 595.835C267.405 596.113 267.482 596.47 267.482 596.906C267.482 596.968 267.479 597.043 267.474 597.131C267.472 597.217 267.465 597.305 267.455 597.396H264.797C264.817 597.617 264.871 597.811 264.956 597.98C265.044 598.146 265.161 598.276 265.306 598.369C265.452 598.462 265.623 598.509 265.82 598.509C265.994 598.509 266.152 598.479 266.295 598.419C266.438 598.357 266.571 598.261 266.696 598.132L267.147 598.618C266.992 598.781 266.801 598.916 266.575 599.023C266.349 599.126 266.094 599.178 265.808 599.178ZM264.793 596.75H266.711C266.706 596.54 266.667 596.356 266.595 596.197C266.525 596.037 266.422 595.911 266.287 595.82C266.155 595.729 265.993 595.684 265.801 595.684C265.533 595.684 265.304 595.769 265.112 595.941C264.92 596.112 264.814 596.382 264.793 596.75Z" fill="white"/>
    </g>
    <g opacity="0.7">
    <path d="M201.197 580.632H207.034" stroke="white" stroke-width="1.55665" stroke-linecap="round"/>
    <path fill-rule="evenodd" clip-rule="evenodd" d="M210.085 586.683H206.821C206.035 586.683 205.173 589.193 204.311 589.193C203.454 589.193 202.597 586.683 201.816 586.683H198.536C197.565 586.683 196.779 585.896 196.779 584.925L196.778 575.384C196.778 574.414 197.565 573.627 198.535 573.627H210.085C211.055 573.627 211.843 574.414 211.843 575.384V584.925C211.843 585.896 211.056 586.683 210.085 586.683H210.085ZM210.838 575.636C210.838 575.081 210.388 574.631 209.834 574.631H198.787C198.232 574.631 197.782 575.081 197.782 575.636V584.675C197.782 585.229 198.232 585.679 198.787 585.679H202.317C202.964 585.679 203.621 587.939 204.31 587.939C204.972 587.939 205.664 585.679 206.287 585.679H209.834C210.388 585.679 210.838 585.229 210.838 584.675V575.636Z" fill="white"/>
    <path d="M195.637 599.084V593.636H196.423V599.084H195.637ZM197.58 599.084V595.107H198.354V595.504C198.479 595.338 198.627 595.214 198.798 595.134C198.972 595.054 199.17 595.013 199.394 595.013C199.863 595.013 200.216 595.156 200.452 595.441C200.688 595.727 200.806 596.157 200.806 596.733V599.084H200.032V596.753C200.032 596.418 199.963 596.165 199.825 595.994C199.688 595.823 199.488 595.737 199.226 595.737C198.936 595.737 198.718 595.82 198.572 595.986C198.427 596.152 198.354 596.403 198.354 596.737V599.084H197.58ZM203.571 599.177C203.379 599.177 203.208 599.144 203.058 599.076C202.907 599.006 202.759 598.897 202.614 598.749V599.084H201.84V593.823L202.614 593.464V595.438C202.731 595.303 202.872 595.199 203.038 595.126C203.204 595.051 203.381 595.013 203.567 595.013C203.902 595.013 204.193 595.099 204.439 595.27C204.686 595.439 204.876 595.68 205.011 595.994C205.149 596.305 205.217 596.671 205.217 597.091C205.217 597.75 205.072 598.263 204.782 598.629C204.494 598.994 204.09 599.177 203.571 599.177ZM203.47 598.446C203.779 598.446 204.015 598.329 204.178 598.096C204.344 597.862 204.427 597.527 204.427 597.091C204.427 596.65 204.346 596.314 204.182 596.084C204.019 595.853 203.781 595.737 203.47 595.737C203.301 595.737 203.138 595.781 202.98 595.87C202.822 595.958 202.7 596.071 202.614 596.208V597.971C202.707 598.119 202.828 598.236 202.976 598.321C203.124 598.404 203.289 598.446 203.47 598.446ZM207.709 599.177C207.159 599.177 206.725 598.992 206.409 598.621C206.092 598.247 205.934 597.74 205.934 597.099C205.934 596.671 206.005 596.301 206.148 595.99C206.293 595.679 206.498 595.439 206.763 595.27C207.03 595.099 207.345 595.013 207.709 595.013C208.075 595.013 208.39 595.098 208.654 595.266C208.922 595.432 209.127 595.671 209.269 595.982C209.412 596.294 209.483 596.663 209.483 597.091C209.483 597.522 209.411 597.893 209.265 598.204C209.123 598.516 208.919 598.756 208.654 598.924C208.39 599.093 208.075 599.177 207.709 599.177ZM207.709 598.446C208.02 598.446 208.263 598.326 208.436 598.088C208.613 597.849 208.701 597.517 208.701 597.091C208.701 596.666 208.613 596.334 208.436 596.095C208.263 595.857 208.02 595.737 207.709 595.737C207.397 595.737 207.153 595.857 206.977 596.095C206.803 596.334 206.716 596.669 206.716 597.099C206.716 597.522 206.803 597.853 206.977 598.092C207.153 598.328 207.397 598.446 207.709 598.446ZM209.803 599.084L211.173 597.018L209.9 595.107H210.78L211.383 596.013C211.427 596.076 211.469 596.141 211.507 596.208C211.549 596.273 211.584 596.334 211.612 596.391C211.646 596.331 211.683 596.269 211.721 596.204C211.763 596.139 211.804 596.076 211.846 596.013L212.449 595.107H213.333L212.056 597.018L213.43 599.084H212.546L211.842 598.022C211.801 597.957 211.76 597.893 211.721 597.831C211.683 597.766 211.646 597.704 211.612 597.644C211.584 597.704 211.549 597.766 211.507 597.831C211.466 597.893 211.424 597.957 211.383 598.022L210.679 599.084H209.803Z" fill="white"/>
    </g>
    <g opacity="0.7">
    <path d="M73.5406 599.084V593.636H75.144C75.6136 593.636 76.0105 593.714 76.3348 593.869C76.6617 594.025 76.925 594.234 77.1248 594.496C77.3246 594.755 77.4699 595.047 77.5607 595.371C77.6541 595.693 77.7008 596.023 77.7008 596.36C77.7008 596.674 77.658 596.99 77.5723 597.309C77.4867 597.629 77.3453 597.923 77.1481 598.193C76.9536 598.46 76.6889 598.675 76.3543 598.839C76.0222 599.002 75.6084 599.084 75.1128 599.084H73.5406ZM74.3267 598.345H75.2062C75.5253 598.345 75.7913 598.286 76.004 598.169C76.2193 598.053 76.3919 597.898 76.5216 597.706C76.6513 597.512 76.7434 597.298 76.7979 597.064C76.855 596.828 76.8835 596.593 76.8835 596.36C76.8835 596.111 76.8537 595.868 76.794 595.632C76.7343 595.393 76.6396 595.179 76.5099 594.99C76.3802 594.801 76.2155 594.65 76.0157 594.539C75.8159 594.424 75.5746 594.367 75.2918 594.367H74.3267V598.345ZM78.6457 599.084V595.107H79.4201V599.084H78.6457ZM79.031 594.457C78.9012 594.457 78.7897 594.411 78.6963 594.321C78.6055 594.227 78.5601 594.116 78.5601 593.986C78.5601 593.854 78.6055 593.741 78.6963 593.647C78.7871 593.554 78.8987 593.507 79.031 593.507C79.1659 593.507 79.2787 593.554 79.3695 593.647C79.4603 593.741 79.5057 593.854 79.5057 593.986C79.5057 594.118 79.4603 594.23 79.3695 594.321C79.2787 594.411 79.1659 594.457 79.031 594.457ZM81.7097 599.177C81.4192 599.177 81.1403 599.115 80.873 598.991C80.6084 598.866 80.3931 598.699 80.227 598.489L80.7641 598.033C80.9016 598.181 81.0559 598.297 81.2272 598.38C81.3984 598.46 81.5658 598.5 81.7292 598.5C81.9523 598.5 82.1248 598.46 82.2468 598.38C82.3687 598.297 82.4297 598.182 82.4297 598.037C82.4297 597.944 82.4012 597.859 82.3441 597.784C82.2896 597.706 82.1962 597.632 82.0639 597.562C81.9316 597.49 81.7525 597.412 81.5268 597.329C81.0858 597.165 80.7706 596.989 80.5812 596.8C80.3918 596.608 80.2971 596.368 80.2971 596.08C80.2971 595.763 80.4242 595.506 80.6785 595.309C80.9327 595.112 81.2622 595.013 81.6669 595.013C81.9471 595.013 82.204 595.067 82.4375 595.173C82.671 595.277 82.872 595.428 83.0407 595.628L82.5153 596.06C82.2792 595.814 81.9938 595.69 81.6592 595.69C81.4698 595.69 81.3193 595.727 81.2077 595.799C81.0962 595.87 81.0404 595.967 81.0404 596.091C81.0404 596.213 81.1039 596.32 81.2311 596.41C81.3582 596.501 81.5904 596.608 81.9277 596.73C82.2182 596.831 82.4543 596.942 82.6359 597.064C82.8202 597.186 82.9538 597.326 83.0368 597.485C83.1224 597.64 83.1652 597.821 83.1652 598.025C83.1652 598.383 83.0355 598.665 82.776 598.87C82.5192 599.075 82.1638 599.177 81.7097 599.177ZM85.4013 599.177C85.0511 599.177 84.7488 599.094 84.4946 598.928C84.2429 598.76 84.0483 598.521 83.9108 598.212C83.7759 597.901 83.7085 597.53 83.7085 597.099C83.7085 596.669 83.7772 596.298 83.9147 595.986C84.0548 595.675 84.2533 595.435 84.5101 595.266C84.767 595.098 85.0731 595.013 85.4286 595.013C85.7944 595.013 86.1018 595.098 86.3509 595.266C86.6025 595.435 86.7841 595.683 86.8957 596.01L86.1641 596.266C86.0992 596.098 86.0045 595.968 85.88 595.877C85.7555 595.786 85.6076 595.741 85.4363 595.741C85.138 595.741 84.9071 595.859 84.7436 596.095C84.5802 596.331 84.4985 596.666 84.4985 597.099C84.4985 597.525 84.5789 597.856 84.7397 598.092C84.9006 598.325 85.1263 598.442 85.4169 598.442C85.6063 598.442 85.7684 598.391 85.9033 598.29C86.0408 598.189 86.1381 598.044 86.1952 597.854L86.9229 598.088C86.8192 598.441 86.6363 598.71 86.3742 598.897C86.1122 599.084 85.7879 599.177 85.4013 599.177ZM89.3245 599.177C88.7745 599.177 88.3412 598.992 88.0247 598.621C87.7082 598.247 87.5499 597.74 87.5499 597.099C87.5499 596.671 87.6213 596.301 87.764 595.99C87.9092 595.679 88.1142 595.439 88.3788 595.27C88.6461 595.099 88.9613 595.013 89.3245 595.013C89.6903 595.013 90.0055 595.098 90.2702 595.266C90.5374 595.432 90.7423 595.671 90.885 595.982C91.0277 596.294 91.0991 596.663 91.0991 597.091C91.0991 597.522 91.0264 597.893 90.8811 598.204C90.7385 598.516 90.5348 598.756 90.2702 598.924C90.0055 599.093 89.6903 599.177 89.3245 599.177ZM89.3245 598.446C89.6358 598.446 89.8784 598.326 90.0522 598.088C90.2287 597.849 90.3169 597.517 90.3169 597.091C90.3169 596.666 90.2287 596.334 90.0522 596.095C89.8784 595.857 89.6358 595.737 89.3245 595.737C89.0132 595.737 88.7693 595.857 88.5929 596.095C88.419 596.334 88.3321 596.669 88.3321 597.099C88.3321 597.522 88.419 597.853 88.5929 598.092C88.7693 598.328 89.0132 598.446 89.3245 598.446ZM92.9455 599.084L91.4901 595.107H92.284L93.1868 597.664C93.2102 597.726 93.2322 597.789 93.253 597.854C93.2737 597.916 93.2932 597.981 93.3113 598.049C93.3295 597.981 93.3477 597.916 93.3658 597.854C93.3866 597.789 93.4086 597.726 93.432 597.664L94.3232 595.107H95.1093L93.6538 599.084H92.9455ZM97.3005 599.177C96.9295 599.177 96.6091 599.089 96.3393 598.913C96.0721 598.736 95.8658 598.491 95.7205 598.177C95.5778 597.863 95.5065 597.501 95.5065 597.091C95.5065 596.656 95.5804 596.283 95.7283 595.975C95.8788 595.663 96.0876 595.426 96.3548 595.262C96.6247 595.096 96.9399 595.013 97.3005 595.013C97.6066 595.013 97.8855 595.081 98.1372 595.216C98.3915 595.348 98.5938 595.554 98.7443 595.834C98.8974 596.112 98.9739 596.469 98.9739 596.905C98.9739 596.967 98.9713 597.042 98.9661 597.13C98.9635 597.216 98.957 597.304 98.9467 597.395H96.2887C96.3094 597.616 96.3626 597.81 96.4482 597.979C96.5365 598.145 96.6532 598.275 96.7985 598.368C96.9438 598.461 97.115 598.508 97.3122 598.508C97.486 598.508 97.6443 598.478 97.787 598.419C97.9297 598.356 98.0633 598.26 98.1878 598.131L98.6392 598.617C98.4836 598.78 98.2929 598.915 98.0672 599.022C97.8414 599.125 97.5859 599.177 97.3005 599.177ZM96.2848 596.749H98.2034C98.1982 596.539 98.1593 596.355 98.0866 596.196C98.0166 596.036 97.9141 595.91 97.7792 595.819C97.6469 595.728 97.4847 595.683 97.2927 595.683C97.0255 595.683 96.7959 595.768 96.6039 595.94C96.4119 596.111 96.3055 596.381 96.2848 596.749ZM99.8397 599.084V595.107H100.614V595.597C100.7 595.41 100.822 595.266 100.98 595.165C101.138 595.064 101.318 595.013 101.521 595.013C101.775 595.013 101.99 595.091 102.167 595.247L102.054 595.967C101.963 595.899 101.87 595.85 101.774 595.819C101.678 595.788 101.574 595.772 101.462 595.772C101.289 595.772 101.138 595.818 101.011 595.908C100.887 595.997 100.789 596.122 100.719 596.286C100.649 596.449 100.614 596.643 100.614 596.866V599.084H99.8397Z" fill="white"/>
    <path d="M93.28 579.805C93.2835 577.698 92.3303 575.703 90.6887 574.382C89.047 573.061 86.8942 572.557 84.8366 573.011C82.7796 573.465 81.0394 574.83 80.1067 576.719C79.1739 578.608 79.1493 580.819 80.0405 582.729C80.931 584.639 82.6403 586.04 84.6873 586.54C86.7344 587.04 88.8977 586.584 90.5682 585.299L94.281 589.012L95.5552 587.738L91.8424 584.025L91.8417 584.026C92.7759 582.816 93.2813 581.332 93.2799 579.805L93.28 579.805ZM86.3473 584.935C84.9858 584.936 83.6799 584.395 82.7169 583.433C81.7538 582.471 81.2132 581.165 81.2132 579.803C81.2125 578.442 81.7539 577.137 82.7162 576.174C83.6792 575.211 84.9843 574.67 86.3459 574.671C87.7073 574.671 89.0132 575.211 89.9755 576.174C90.9379 577.137 91.4785 578.443 91.4778 579.805C91.4764 581.165 90.935 582.468 89.9734 583.431C89.0111 584.392 87.7074 584.934 86.3473 584.935L86.3473 584.935Z" fill="white"/>
    </g>
    <path d="M19.7935 599.084V593.636H20.5796V595.893H23.0625V593.636H23.8486V599.084H23.0625V596.636H20.5796V599.084H19.7935ZM26.5689 599.177C26.0188 599.177 25.5856 598.992 25.2691 598.621C24.9525 598.247 24.7943 597.74 24.7943 597.099C24.7943 596.671 24.8656 596.301 25.0083 595.99C25.1536 595.679 25.3586 595.439 25.6232 595.27C25.8904 595.099 26.2056 595.013 26.5689 595.013C26.9347 595.013 27.2499 595.098 27.5145 595.266C27.7818 595.432 27.9867 595.671 28.1294 595.982C28.2721 596.294 28.3434 596.663 28.3434 597.091C28.3434 597.522 28.2708 597.893 28.1255 598.204C27.9828 598.516 27.7792 598.756 27.5145 598.924C27.2499 599.093 26.9347 599.177 26.5689 599.177ZM26.5689 598.446C26.8802 598.446 27.1228 598.326 27.2966 598.088C27.473 597.849 27.5612 597.517 27.5612 597.091C27.5612 596.666 27.473 596.334 27.2966 596.095C27.1228 595.857 26.8802 595.737 26.5689 595.737C26.2575 595.737 26.0137 595.857 25.8372 596.095C25.6634 596.334 25.5765 596.669 25.5765 597.099C25.5765 597.522 25.6634 597.853 25.8372 598.092C26.0137 598.328 26.2575 598.446 26.5689 598.446ZM29.1351 599.084V595.107H29.9095V595.48C30.0289 595.325 30.1742 595.208 30.3454 595.13C30.5192 595.052 30.7138 595.013 30.9291 595.013C31.1626 595.013 31.3702 595.064 31.5518 595.165C31.7334 595.264 31.8735 595.405 31.9721 595.589C32.0992 595.405 32.264 595.264 32.4663 595.165C32.6687 595.064 32.8957 595.013 33.1474 595.013C33.5936 595.013 33.9425 595.146 34.1942 595.41C34.4459 595.672 34.5717 596.038 34.5717 596.508V599.084H33.7973V596.749C33.7973 596.417 33.7324 596.165 33.6027 595.994C33.4755 595.823 33.2888 595.737 33.0423 595.737C32.8762 595.737 32.7322 595.779 32.6103 595.862C32.491 595.942 32.3989 596.06 32.334 596.216C32.2691 596.369 32.2367 596.551 32.2367 596.761V599.084H31.4623V596.749C31.4623 596.412 31.4 596.159 31.2755 595.99C31.151 595.822 30.9629 595.737 30.7112 595.737C30.4569 595.737 30.2598 595.824 30.1197 595.998C29.9796 596.172 29.9095 596.418 29.9095 596.737V599.084H29.1351ZM37.266 599.177C36.895 599.177 36.5746 599.089 36.3047 598.913C36.0375 598.736 35.8313 598.491 35.686 598.177C35.5433 597.863 35.4719 597.501 35.4719 597.091C35.4719 596.656 35.5459 596.283 35.6938 595.975C35.8442 595.663 36.0531 595.426 36.3203 595.262C36.5901 595.096 36.9053 595.013 37.266 595.013C37.5721 595.013 37.851 595.081 38.1027 595.216C38.3569 595.348 38.5593 595.554 38.7098 595.834C38.8628 596.112 38.9394 596.469 38.9394 596.905C38.9394 596.967 38.9368 597.042 38.9316 597.13C38.929 597.216 38.9225 597.304 38.9121 597.395H36.2542C36.2749 597.616 36.3281 597.81 36.4137 597.979C36.5019 598.145 36.6187 598.275 36.764 598.368C36.9092 598.461 37.0805 598.508 37.2776 598.508C37.4515 598.508 37.6097 598.478 37.7524 598.419C37.8951 598.356 38.0287 598.26 38.1533 598.131L38.6047 598.617C38.449 598.78 38.2583 598.915 38.0326 599.022C37.8069 599.125 37.5514 599.177 37.266 599.177ZM36.2503 596.749H38.1688C38.1636 596.539 38.1247 596.355 38.0521 596.196C37.982 596.036 37.8796 595.91 37.7446 595.819C37.6123 595.728 37.4502 595.683 37.2582 595.683C36.991 595.683 36.7614 595.768 36.5694 595.94C36.3774 596.111 36.271 596.381 36.2503 596.749Z" fill="white"/>
    <path fill-rule="evenodd" clip-rule="evenodd" d="M37.4777 581.206H35.9917L35.2134 588.631C35.2134 588.933 34.9059 589.192 34.5472 589.192H30.0893C30.0381 589.192 29.9359 589.192 29.884 589.149V582.89H27.7512V589.192H27.6489H23.3964C23.0377 589.192 22.7302 588.934 22.7302 588.632L21.9518 581.206H20.1072C19.5432 581.206 19.2363 580.602 19.6462 580.257L28.152 573.01C28.4084 572.794 28.8183 572.794 29.074 573.01L37.9385 580.257C38.3483 580.559 38.0921 581.206 37.4777 581.206Z" fill="white"/>
    <rect x="128.424" y="574.403" width="28.0197" height="21.7931" rx="6.2266" fill="#65D2E9"/>
    <rect x="135.429" y="574.403" width="28.0197" height="21.7931" rx="6.2266" fill="#E6436D"/>
    <rect x="131.537" y="574.403" width="28.0197" height="21.7931" rx="6.2266" fill="white"/>
    <path d="M145.178 579.852C144.748 579.852 144.4 580.2 144.4 580.63V584.153H140.877C140.447 584.153 140.099 584.501 140.099 584.931V585.669C140.099 586.098 140.447 586.447 140.877 586.447H144.4V589.97C144.4 590.4 144.748 590.748 145.178 590.748H145.916C146.345 590.748 146.694 590.4 146.694 589.97V586.447H150.217C150.647 586.447 150.995 586.098 150.995 585.669V584.931C150.995 584.501 150.647 584.153 150.217 584.153H146.694V580.63C146.694 580.2 146.345 579.852 145.916 579.852H145.178Z" fill="black"/>
    <circle cx="268.133" cy="308.607" r="8.17241" fill="#EA4359"/>
    <path d="M270.82 307.792H268.948V305.92C268.948 305.47 268.583 305.105 268.133 305.105C267.683 305.105 267.318 305.47 267.318 305.92V307.792H265.445C264.995 307.792 264.63 308.157 264.63 308.607C264.63 309.058 264.995 309.422 265.445 309.422H267.318V311.295C267.318 311.745 267.683 312.11 268.133 312.11C268.583 312.11 268.948 311.745 268.948 311.295V309.422H270.82C271.27 309.422 271.635 309.058 271.635 308.607C271.635 308.157 271.27 307.792 270.82 307.792V307.792Z" fill="white"/>
    <path opacity="0.7" d="M267.744 360.365C267.357 360.365 266.972 360.221 266.655 359.932C265.532 358.918 264.443 357.942 263.459 357.11C260.65 354.614 258.193 352.479 256.507 350.38C254.612 348.029 253.734 345.786 253.734 343.363C253.734 340.975 254.506 338.804 255.946 337.213C257.386 335.585 259.387 334.681 261.564 334.681C263.179 334.681 264.654 335.223 265.953 336.237C266.619 336.779 267.217 337.394 267.744 338.154C268.27 337.394 268.867 336.779 269.535 336.237C270.834 335.188 272.308 334.681 273.924 334.681C276.1 334.681 278.067 335.585 279.541 337.213C280.981 338.804 281.754 341.011 281.754 343.363C281.754 345.823 280.876 348.029 278.98 350.38C277.295 352.479 274.837 354.612 272.028 357.11C271.081 357.942 269.957 358.918 268.833 359.932C268.516 360.221 268.13 360.365 267.744 360.365H267.744Z" fill="white"/>
    <path d="M259.583 371.922V367.042H258.579V366.094C258.787 366.094 258.976 366.072 259.144 366.028C259.312 365.985 259.454 365.912 259.569 365.809C259.687 365.706 259.776 365.565 259.835 365.384H260.792V371.922H259.583ZM263.172 372.039C262.954 372.039 262.772 371.967 262.625 371.824C262.479 371.677 262.406 371.498 262.406 371.287C262.406 371.078 262.479 370.899 262.625 370.75C262.772 370.597 262.954 370.521 263.172 370.521C263.39 370.521 263.573 370.597 263.723 370.75C263.872 370.899 263.947 371.078 263.947 371.287C263.947 371.498 263.872 371.677 263.723 371.824C263.573 371.967 263.39 372.039 263.172 372.039ZM267.077 372.034C266.526 372.034 266.05 371.902 265.648 371.637C265.25 371.369 264.954 370.988 264.761 370.493L265.845 370.054C266.122 370.611 266.533 370.89 267.077 370.89C267.395 370.89 267.644 370.812 267.825 370.656C268.008 370.501 268.1 370.287 268.1 370.017C268.1 369.761 268.007 369.559 267.82 369.409C267.633 369.257 267.382 369.181 267.068 369.181H266.438V368.027H267.049C267.305 368.027 267.505 367.954 267.652 367.808C267.801 367.658 267.876 367.459 267.876 367.21C267.876 366.973 267.8 366.782 267.647 366.635C267.495 366.486 267.295 366.411 267.049 366.411C266.838 366.411 266.646 366.467 266.475 366.579C266.307 366.688 266.165 366.849 266.05 367.06L264.957 366.635C265.16 366.203 265.443 365.868 265.807 365.631C266.175 365.392 266.592 365.272 267.059 365.272C267.457 365.272 267.809 365.35 268.114 365.505C268.419 365.658 268.657 365.873 268.829 366.15C269 366.424 269.085 366.74 269.085 367.098C269.085 367.4 269.015 367.677 268.875 367.929C268.738 368.178 268.545 368.38 268.296 368.536C268.611 368.661 268.858 368.866 269.039 369.153C269.219 369.439 269.31 369.769 269.31 370.143C269.31 370.51 269.215 370.837 269.025 371.123C268.835 371.407 268.57 371.629 268.231 371.791C267.895 371.953 267.51 372.034 267.077 372.034ZM273.659 372.034L271.987 368.391C271.966 368.345 271.942 368.29 271.917 368.228C271.892 368.166 271.871 368.103 271.852 368.041C271.855 368.091 271.857 368.15 271.857 368.219C271.86 368.287 271.861 368.348 271.861 368.401V371.922H270.652V365.384H271.861L273.519 369.092C273.55 369.16 273.578 369.229 273.603 369.297C273.631 369.363 273.658 369.431 273.683 369.503C273.708 369.431 273.732 369.361 273.757 369.293C273.782 369.224 273.809 369.157 273.837 369.092L275.527 365.384H276.662V371.922H275.453V368.391C275.453 368.335 275.453 368.273 275.453 368.205C275.456 368.136 275.457 368.08 275.457 368.036C275.439 368.093 275.415 368.153 275.387 368.219C275.362 368.281 275.337 368.338 275.312 368.391L273.659 372.034Z" fill="#E9E7E7"/>
    <path d="M257.275 431.075V426.195H256.271V425.247C256.479 425.247 256.667 425.225 256.836 425.182C257.004 425.138 257.145 425.065 257.261 424.962C257.379 424.859 257.468 424.718 257.527 424.537H258.484V431.075H257.275ZM262.566 431.187C262.099 431.187 261.712 431.089 261.403 430.893C261.095 430.694 260.851 430.429 260.67 430.099C260.49 429.769 260.36 429.405 260.283 429.006C260.208 428.608 260.17 428.208 260.17 427.806C260.17 427.489 260.194 427.17 260.241 426.849C260.287 426.525 260.363 426.218 260.469 425.929C260.578 425.639 260.725 425.383 260.908 425.158C261.092 424.931 261.319 424.752 261.59 424.621C261.864 424.491 262.189 424.425 262.566 424.425C263.03 424.425 263.416 424.523 263.724 424.719C264.036 424.916 264.28 425.177 264.457 425.504C264.638 425.831 264.766 426.195 264.84 426.597C264.918 426.995 264.957 427.398 264.957 427.806C264.957 428.124 264.934 428.443 264.887 428.764C264.84 429.084 264.763 429.389 264.654 429.679C264.545 429.968 264.398 430.227 264.215 430.454C264.031 430.681 263.804 430.86 263.533 430.991C263.262 431.122 262.94 431.187 262.566 431.187ZM262.566 430.048C262.797 430.048 262.986 429.984 263.136 429.856C263.288 429.726 263.408 429.553 263.495 429.338C263.586 429.123 263.65 428.883 263.687 428.619C263.724 428.354 263.743 428.083 263.743 427.806C263.743 427.526 263.723 427.254 263.682 426.989C263.645 426.724 263.583 426.485 263.495 426.27C263.408 426.052 263.288 425.881 263.136 425.756C262.986 425.628 262.797 425.565 262.566 425.565C262.333 425.565 262.14 425.628 261.987 425.756C261.835 425.884 261.713 426.057 261.623 426.274C261.533 426.489 261.469 426.729 261.431 426.994C261.394 427.258 261.375 427.529 261.375 427.806C261.375 428.083 261.394 428.356 261.431 428.623C261.469 428.888 261.533 429.128 261.623 429.343C261.713 429.557 261.835 429.729 261.987 429.856C262.143 429.984 262.336 430.048 262.566 430.048ZM266.567 431.192C266.349 431.192 266.167 431.12 266.021 430.977C265.875 430.831 265.801 430.652 265.801 430.44C265.801 430.231 265.875 430.052 266.021 429.903C266.167 429.75 266.349 429.674 266.567 429.674C266.785 429.674 266.969 429.75 267.118 429.903C267.268 430.052 267.343 430.231 267.343 430.44C267.343 430.652 267.268 430.831 267.118 430.977C266.969 431.12 266.785 431.192 266.567 431.192ZM268.252 431.075C268.255 430.372 268.316 429.713 268.434 429.1C268.555 428.483 268.741 427.895 268.99 427.335C269.242 426.774 269.566 426.225 269.961 425.686H266.968V424.537H271.371V425.523C271.013 425.927 270.711 426.376 270.466 426.868C270.223 427.359 270.027 427.862 269.877 428.376C269.731 428.887 269.625 429.375 269.56 429.842C269.494 430.309 269.461 430.72 269.461 431.075H268.252ZM275.297 431.187L273.626 427.545C273.604 427.498 273.58 427.444 273.556 427.381C273.531 427.319 273.509 427.257 273.49 427.194C273.493 427.244 273.495 427.303 273.495 427.372C273.498 427.44 273.5 427.501 273.5 427.554V431.075H272.29V424.537H273.5L275.157 428.245C275.188 428.314 275.217 428.382 275.241 428.451C275.269 428.516 275.296 428.585 275.321 428.656C275.346 428.585 275.371 428.515 275.396 428.446C275.42 428.378 275.447 428.311 275.475 428.245L277.165 424.537H278.3V431.075H277.091V427.545C277.091 427.489 277.091 427.426 277.091 427.358C277.094 427.289 277.095 427.233 277.095 427.19C277.077 427.246 277.053 427.307 277.025 427.372C277 427.434 276.976 427.492 276.951 427.545L275.297 431.187Z" fill="#E9E7E7"/>
    <g opacity="0.7">
    <path fill-rule="evenodd" clip-rule="evenodd" d="M281.754 405.51C281.754 407.243 281.313 408.888 280.523 410.367C280.516 410.383 280.509 410.4 280.502 410.417C279.04 413.548 276.608 416.124 273.566 417.762L270.177 419.586C269.309 420.054 268.27 419.359 268.372 418.377L268.496 417.181C268.375 417.183 268.254 417.185 268.133 417.185C260.61 417.185 254.512 411.958 254.512 405.51C254.512 399.062 260.61 393.835 268.133 393.835C275.655 393.835 281.754 399.062 281.754 405.51ZM261.128 407.844C262.203 407.844 263.074 406.973 263.074 405.899C263.074 404.824 262.203 403.953 261.128 403.953C260.053 403.953 259.182 404.824 259.182 405.899C259.182 406.973 260.053 407.844 261.128 407.844ZM270.079 405.899C270.079 406.973 269.208 407.844 268.133 407.844C267.058 407.844 266.187 406.973 266.187 405.899C266.187 404.824 267.058 403.953 268.133 403.953C269.208 403.953 270.079 404.824 270.079 405.899ZM275.138 407.844C276.212 407.844 277.084 406.973 277.084 405.899C277.084 404.824 276.212 403.953 275.138 403.953C274.063 403.953 273.192 404.824 273.192 405.899C273.192 406.973 274.063 407.844 275.138 407.844Z" fill="white"/>
    </g>
    <path d="M257.337 491.897C256.786 491.897 256.31 491.765 255.908 491.5C255.51 491.233 255.214 490.851 255.021 490.356L256.105 489.917C256.382 490.474 256.793 490.753 257.337 490.753C257.655 490.753 257.904 490.675 258.085 490.52C258.268 490.364 258.36 490.151 258.36 489.88C258.36 489.625 258.267 489.422 258.08 489.273C257.893 489.12 257.643 489.044 257.328 489.044H256.698V487.89H257.309C257.565 487.89 257.766 487.817 257.912 487.671C258.061 487.521 258.136 487.322 258.136 487.073C258.136 486.837 258.06 486.645 257.907 486.499C257.755 486.349 257.555 486.275 257.309 486.275C257.098 486.275 256.906 486.331 256.735 486.443C256.567 486.552 256.425 486.712 256.31 486.924L255.217 486.499C255.42 486.066 255.703 485.731 256.067 485.495C256.435 485.255 256.852 485.135 257.319 485.135C257.717 485.135 258.069 485.213 258.374 485.369C258.679 485.521 258.917 485.736 259.089 486.013C259.26 486.287 259.346 486.603 259.346 486.961C259.346 487.263 259.275 487.54 259.135 487.792C258.998 488.041 258.805 488.244 258.556 488.399C258.871 488.524 259.118 488.729 259.299 489.016C259.479 489.302 259.57 489.632 259.57 490.006C259.57 490.373 259.475 490.7 259.285 490.987C259.095 491.27 258.83 491.493 258.491 491.654C258.155 491.816 257.77 491.897 257.337 491.897ZM262.905 491.897C262.438 491.897 262.051 491.799 261.743 491.603C261.434 491.404 261.19 491.139 261.009 490.809C260.829 490.479 260.7 490.115 260.622 489.716C260.547 489.318 260.51 488.918 260.51 488.516C260.51 488.199 260.533 487.88 260.58 487.559C260.626 487.235 260.703 486.928 260.809 486.639C260.918 486.349 261.064 486.092 261.248 485.868C261.431 485.641 261.659 485.462 261.929 485.331C262.203 485.201 262.529 485.135 262.905 485.135C263.369 485.135 263.755 485.233 264.064 485.429C264.375 485.625 264.619 485.887 264.797 486.214C264.977 486.541 265.105 486.905 265.18 487.307C265.258 487.705 265.296 488.108 265.296 488.516C265.296 488.834 265.273 489.153 265.226 489.474C265.18 489.794 265.102 490.099 264.993 490.389C264.884 490.678 264.738 490.937 264.554 491.164C264.37 491.391 264.143 491.57 263.872 491.701C263.601 491.832 263.279 491.897 262.905 491.897ZM262.905 490.758C263.136 490.758 263.326 490.694 263.475 490.566C263.628 490.436 263.748 490.263 263.835 490.048C263.925 489.833 263.989 489.593 264.026 489.329C264.064 489.064 264.082 488.793 264.082 488.516C264.082 488.236 264.062 487.964 264.022 487.699C263.984 487.434 263.922 487.195 263.835 486.98C263.748 486.762 263.628 486.591 263.475 486.466C263.326 486.338 263.136 486.275 262.905 486.275C262.672 486.275 262.479 486.338 262.326 486.466C262.174 486.594 262.052 486.767 261.962 486.984C261.872 487.199 261.808 487.439 261.771 487.704C261.733 487.968 261.715 488.239 261.715 488.516C261.715 488.793 261.733 489.066 261.771 489.333C261.808 489.598 261.872 489.838 261.962 490.053C262.052 490.267 262.174 490.439 262.326 490.566C262.482 490.694 262.675 490.758 262.905 490.758ZM266.907 491.902C266.689 491.902 266.507 491.83 266.36 491.687C266.214 491.541 266.141 491.362 266.141 491.15C266.141 490.941 266.214 490.762 266.36 490.613C266.507 490.46 266.689 490.384 266.907 490.384C267.125 490.384 267.308 490.46 267.458 490.613C267.607 490.762 267.682 490.941 267.682 491.15C267.682 491.362 267.607 491.541 267.458 491.687C267.308 491.83 267.125 491.902 266.907 491.902ZM269.366 491.897V490.781C269.693 490.753 270.011 490.674 270.319 490.543C270.627 490.412 270.898 490.218 271.131 489.959C271.368 489.701 271.541 489.368 271.65 488.96C271.519 489.075 271.355 489.168 271.159 489.24C270.966 489.309 270.745 489.343 270.496 489.343C270.079 489.343 269.707 489.259 269.38 489.091C269.053 488.919 268.795 488.678 268.605 488.367C268.418 488.052 268.325 487.679 268.325 487.246C268.325 486.823 268.424 486.454 268.624 486.139C268.826 485.822 269.103 485.576 269.455 485.401C269.81 485.224 270.214 485.135 270.669 485.135C271.211 485.135 271.656 485.246 272.005 485.467C272.356 485.685 272.616 485.985 272.784 486.368C272.953 486.748 273.037 487.181 273.037 487.666C273.037 488.469 272.9 489.181 272.626 489.8C272.355 490.417 271.947 490.909 271.402 491.276C270.86 491.64 270.182 491.847 269.366 491.897ZM270.655 488.227C270.867 488.227 271.053 488.188 271.215 488.11C271.38 488.032 271.508 487.918 271.598 487.769C271.692 487.62 271.738 487.439 271.738 487.227C271.738 487.034 271.692 486.863 271.598 486.714C271.505 486.564 271.377 486.447 271.215 486.363C271.053 486.279 270.868 486.237 270.66 486.237C270.423 486.237 270.219 486.279 270.048 486.363C269.877 486.447 269.744 486.564 269.651 486.714C269.561 486.863 269.515 487.033 269.515 487.223C269.515 487.434 269.561 487.615 269.651 487.764C269.744 487.914 269.875 488.029 270.043 488.11C270.214 488.188 270.418 488.227 270.655 488.227ZM274.171 491.785V485.247H275.38V488.376L277.865 485.247H279.294L277.398 487.582L279.709 491.785H278.294L276.576 488.6L275.38 490.085V491.785H274.171Z" fill="#E9E7E7"/>
    <path opacity="0.7" d="M280.84 468.201L271.487 477.554C271.105 477.936 270.531 478.05 270.032 477.843C269.533 477.636 269.207 477.149 269.207 476.609V472.622C260.308 472.925 256.818 476.191 256.784 476.226H256.782C256.36 476.636 255.718 476.722 255.202 476.436C254.686 476.149 254.417 475.559 254.543 474.983C254.57 474.857 257.386 462.811 269.207 461.959V457.904C269.207 457.364 269.533 456.877 270.031 456.67C270.531 456.463 271.105 456.577 271.487 456.959L280.84 466.312C281.09 466.563 281.232 466.902 281.232 467.256C281.232 467.611 281.09 467.95 280.84 468.201L280.84 468.201Z" fill="white"/>
    <path opacity="0.3" d="M281.992 524.294C282.322 534.177 274.749 542.436 265.097 542.757C255.444 543.079 247.338 535.343 247.009 525.46C246.68 515.576 254.252 507.318 263.905 506.996C273.557 506.674 281.663 514.41 281.992 524.294Z" stroke="#F6F6F6" stroke-width="0.8"/>
    <path opacity="0.7" fill-rule="evenodd" clip-rule="evenodd" d="M244.147 550.282C244.059 550.521 243.979 550.767 243.845 550.984C243.395 551.706 242.275 551.883 241.207 551.419C240.564 551.14 240.183 550.735 240.098 550.197C239.996 549.551 240.494 549.076 241.29 549.044C241.777 549.025 242.27 549.142 242.762 549.245C243.435 549.386 243.523 549.356 243.698 548.879C244.037 547.949 244.372 547.018 244.709 546.088C244.719 546.06 244.73 546.031 244.738 546.003C244.793 545.795 244.719 545.707 244.434 545.649C243.421 545.438 240.187 544.765 239.582 544.636C239.203 544.556 239.118 544.588 239.018 544.858C238.479 546.303 237.945 547.75 237.401 549.192C237.334 549.369 237.241 549.542 237.124 549.695C236.665 550.294 235.862 550.47 234.857 550.209C234.306 550.066 233.84 549.827 233.552 549.396C233.043 548.638 233.535 547.774 234.507 547.712C235 547.68 235.505 547.781 236.01 547.88C236.145 547.907 236.282 547.929 236.417 547.948C236.721 547.989 236.916 547.903 236.999 547.691C237.084 547.469 237.17 547.247 237.252 547.024C237.794 545.553 238.334 544.081 238.875 542.611C239.023 542.208 239.23 542.124 239.8 542.237C241.725 542.62 243.649 543.002 245.574 543.386C245.744 543.42 245.914 543.461 246.079 543.514C246.309 543.587 246.445 543.739 246.436 543.918C246.431 544.034 246.401 544.148 246.362 544.254C245.967 545.34 244.491 549.359 244.147 550.282L244.147 550.282Z" fill="white"/>
    <path opacity="0.3" d="M260.729 551.002L256.994 551.525C256.871 551.538 256.773 551.658 256.774 551.782L256.779 557.612C256.611 557.516 256.417 557.461 256.219 557.447C255.834 557.424 255.415 557.53 255.018 557.769C254.626 558.009 254.321 558.335 254.154 558.693C253.982 559.052 253.947 559.461 254.133 559.801C254.323 560.14 254.681 560.315 255.065 560.337C255.449 560.364 255.873 560.249 256.27 560.014C256.667 559.775 256.967 559.448 257.134 559.09C257.249 558.892 257.288 558.603 257.279 558.396L257.274 553.563L260.792 553.073C260.911 553.054 261.008 552.939 261.013 552.815L261.011 551.262C261.002 551.052 260.861 550.988 260.729 551.002L260.729 551.002Z" fill="white"/>
    <path opacity="0.3" fill-rule="evenodd" clip-rule="evenodd" d="M234.389 527.933C234.197 528.101 234.01 528.28 233.788 528.406C233.049 528.827 231.98 528.449 231.262 527.532C230.829 526.981 230.687 526.444 230.868 525.93C231.086 525.314 231.751 525.133 232.466 525.484C232.903 525.699 233.281 526.038 233.664 526.362C234.189 526.806 234.28 526.822 234.661 526.485C235.402 525.829 236.14 525.17 236.88 524.512C236.902 524.493 236.925 524.473 236.945 524.451C237.093 524.296 237.069 524.183 236.847 523.995C236.056 523.328 233.533 521.195 233.062 520.795C232.767 520.544 232.678 520.531 232.46 520.721C231.298 521.735 230.14 522.753 228.975 523.762C228.832 523.886 228.668 523.994 228.492 524.073C227.804 524.381 227.014 524.153 226.254 523.445C225.837 523.057 225.542 522.625 225.493 522.109C225.407 521.199 226.251 520.675 227.135 521.083C227.584 521.29 227.98 521.618 228.376 521.946C228.483 522.034 228.592 522.119 228.702 522.2C228.95 522.38 229.163 522.397 229.337 522.25C229.517 522.096 229.698 521.942 229.877 521.785C231.054 520.749 232.229 519.713 233.405 518.677C233.727 518.393 233.949 518.418 234.397 518.789C235.907 520.042 237.417 521.294 238.927 522.549C239.06 522.66 239.19 522.777 239.311 522.902C239.478 523.076 239.525 523.274 239.431 523.427C239.371 523.527 239.292 523.613 239.207 523.688C238.342 524.454 235.13 527.285 234.389 527.933L234.389 527.933Z" fill="white"/>
    <path opacity="0.7" fill-rule="evenodd" clip-rule="evenodd" d="M94.9556 623.827C94.9556 622.967 95.6525 622.271 96.5122 622.271H195.36C196.219 622.271 196.916 622.967 196.916 623.827C196.916 624.687 196.219 625.384 195.36 625.384H96.5122C95.6525 625.384 94.9556 624.687 94.9556 623.827Z" fill="white"/>
    <path opacity="0.7" fill-rule="evenodd" clip-rule="evenodd" d="M273.641 532.038C273.47 532.501 273.318 532.979 273.042 533.393C272.121 534.774 269.672 535.014 267.271 533.994C265.826 533.381 264.949 532.544 264.708 531.475C264.42 530.19 265.472 529.301 267.223 529.316C268.295 529.325 269.393 529.606 270.486 529.857C271.983 530.2 272.175 530.151 272.513 529.225C273.17 527.423 273.817 525.618 274.469 523.815C274.489 523.762 274.509 523.707 274.524 523.651C274.626 523.247 274.453 523.066 273.819 522.922C271.566 522.408 264.372 520.763 263.026 520.45C262.183 520.255 262.001 520.31 261.805 520.834C260.758 523.632 259.723 526.434 258.665 529.228C258.535 529.571 258.348 529.902 258.104 530.194C257.152 531.331 255.399 531.599 253.158 530.987C251.93 530.651 250.879 530.133 250.202 529.255C249.005 527.708 250.007 526.052 252.142 526.025C253.226 526.01 254.348 526.258 255.47 526.503C255.772 526.569 256.075 526.626 256.375 526.676C257.049 526.787 257.47 526.636 257.632 526.225C257.799 525.796 257.966 525.366 258.126 524.934C259.175 522.084 260.222 519.234 261.271 516.384C261.557 515.605 262.007 515.459 263.274 515.738C267.554 516.68 271.832 517.622 276.112 518.569C276.489 518.652 276.867 518.75 277.238 518.87C277.752 519.037 278.065 519.35 278.063 519.703C278.063 519.932 278.01 520.152 277.934 520.359C277.17 522.463 274.308 530.249 273.641 532.038L273.641 532.038Z" fill="white"/>
    </g>
    <defs>
    <clipPath id="clip0_12_5856">
    <rect width="291.872" height="632" rx="31.133" fill="white"/>
    </clipPath>
    </defs>
    </svg>
    