<svg width="553" height="869" viewBox="0 0 553 869" fill="none" xmlns="http://www.w3.org/2000/svg">
    <path fill-rule="evenodd" clip-rule="evenodd" d="M552.85 341.717C552.862 402.39 531.45 505.293 502.15 550.556C457.534 619.481 387.95 650.967 300.792 662.221C137.253 683.338 20.044 579.614 20.044 503.881C20.044 433.142 44.3938 389.523 113.598 341.717C182.803 293.912 231.163 259.77 262.967 202.616C294.299 146.309 335.169 121 377.85 121C424.012 121 469.208 138.526 502.15 179.634C535.758 221.573 552.839 281.06 552.85 341.717Z" fill="#E2E8F0"/>
    <g filter="url(#filter0_f_229_26287)">
    <path fill-rule="evenodd" clip-rule="evenodd" d="M183.01 536.491C162.553 571.259 138.282 636.135 137.278 670.152C135.749 721.953 158.985 759.18 197.59 789.658C270.027 846.845 362.006 819.715 387.534 776.313C411.379 735.773 414.237 704.062 396.686 657.587C379.136 611.111 367.119 578.213 370.913 536.69C374.651 495.783 363.301 470.012 342.539 458.245C320.083 445.519 292.19 443.103 262.308 457.58C231.822 472.35 203.462 501.732 183.01 536.491Z" fill="url(#paint0_linear_229_26287)"/>
    </g>
    <path d="M166.307 248.077L161.719 250.488L162.595 245.38L158.883 241.762L164.012 241.017L166.307 236.368L168.601 241.017L173.73 241.762L170.018 245.38L170.895 250.488L166.307 248.077Z" fill="#94A3B8"/>
    <path d="M188.602 10.7319L184.997 12.6267L185.686 8.61286L182.768 5.77033L186.799 5.18466L188.602 1.53223L190.404 5.18466L194.434 5.77033L191.518 8.61286L192.207 12.6267L188.602 10.7319Z" fill="#94A3B8"/>
    <g clip-path="url(#clip0_229_26287)">
    <path d="M296.002 409.516C294.621 409.516 293.502 408.397 293.502 407.016C293.502 405.635 294.621 404.516 296.002 404.516C297.383 404.516 298.502 405.635 298.502 407.016C298.502 408.397 297.383 409.516 296.002 409.516Z" fill="#94A3B8"/>
    </g>
    <path d="M223.637 362.271C221.292 362.271 219.39 360.37 219.39 358.025C219.39 355.679 221.292 353.778 223.637 353.778C225.983 353.778 227.884 355.679 227.884 358.025C227.884 360.37 225.983 362.271 223.637 362.271Z" fill="#94A3B8"/>
    <g clip-path="url(#clip1_229_26287)">
    <path d="M190.983 195.516C189.603 195.516 188.483 194.397 188.483 193.016C188.483 191.636 189.603 190.516 190.983 190.516C192.364 190.516 193.483 191.636 193.483 193.016C193.483 194.397 192.364 195.516 190.983 195.516Z" fill="#94A3B8"/>
    </g>
    <path d="M237.99 261.884C234.765 261.884 232.151 259.27 232.151 256.045C232.151 252.82 234.765 250.206 237.99 250.206C241.215 250.206 243.83 252.82 243.83 256.045C243.83 259.27 241.215 261.884 237.99 261.884Z" fill="#94A3B8"/>
    <g clip-path="url(#clip2_229_26287)">
    <path d="M200.98 131.086C199.807 131.086 198.856 130.136 198.856 128.963C198.856 127.79 199.807 126.84 200.98 126.84C202.152 126.84 203.103 127.79 203.103 128.963C203.103 130.136 202.152 131.086 200.98 131.086Z" fill="#94A3B8"/>
    </g>
    <g clip-path="url(#clip3_229_26287)">
    <path d="M243.461 172.199C241.409 172.199 239.745 170.535 239.745 168.483C239.745 166.431 241.409 164.767 243.461 164.767C245.513 164.767 247.177 166.431 247.177 168.483C247.177 170.535 245.513 172.199 243.461 172.199Z" fill="#94A3B8"/>
    </g>
    <g clip-path="url(#clip4_229_26287)">
    <path d="M105.154 241.446C103.395 241.446 101.969 240.02 101.969 238.261C101.969 236.502 103.395 235.076 105.154 235.076C106.913 235.076 108.339 236.502 108.339 238.261C108.339 240.02 106.913 241.446 105.154 241.446Z" fill="#94A3B8"/>
    </g>
    <path d="M260.653 111.078V107.096C260.653 106.885 260.569 106.683 260.42 106.533C260.271 106.384 260.068 106.3 259.857 106.3C259.646 106.3 259.443 106.384 259.294 106.533C259.145 106.683 259.061 106.885 259.061 107.096V111.078H255.079C254.868 111.078 254.666 111.161 254.516 111.311C254.367 111.46 254.283 111.663 254.283 111.874C254.283 112.085 254.367 112.288 254.516 112.437C254.666 112.586 254.868 112.67 255.079 112.67H259.061V116.651C259.061 116.863 259.145 117.065 259.294 117.214C259.443 117.364 259.646 117.448 259.857 117.448C260.068 117.448 260.271 117.364 260.42 117.214C260.569 117.065 260.653 116.863 260.653 116.651V112.67H264.635C264.846 112.67 265.048 112.586 265.198 112.437C265.347 112.288 265.431 112.085 265.431 111.874C265.431 111.663 265.347 111.46 265.198 111.311C265.048 111.161 264.846 111.078 264.635 111.078H260.653Z" fill="#94A3B8"/>
    <path d="M224.232 57.0756V54.9523C224.232 54.8396 224.187 54.7316 224.107 54.652C224.028 54.5723 223.92 54.5276 223.807 54.5276C223.694 54.5276 223.586 54.5723 223.507 54.652C223.427 54.7316 223.382 54.8396 223.382 54.9523V57.0756H221.259C221.146 57.0756 221.038 57.1204 220.959 57.2C220.879 57.2796 220.834 57.3877 220.834 57.5003C220.834 57.6129 220.879 57.7209 220.959 57.8006C221.038 57.8802 221.146 57.925 221.259 57.925H223.382V60.0483C223.382 60.1609 223.427 60.2689 223.507 60.3486C223.586 60.4282 223.694 60.473 223.807 60.473C223.92 60.473 224.028 60.4282 224.107 60.3486C224.187 60.2689 224.232 60.1609 224.232 60.0483V57.925H226.355C226.468 57.925 226.576 57.8802 226.655 57.8006C226.735 57.7209 226.78 57.6129 226.78 57.5003C226.78 57.3877 226.735 57.2796 226.655 57.2C226.576 57.1204 226.468 57.0756 226.355 57.0756H224.232Z" fill="#94A3B8"/>
    <g clip-path="url(#clip5_229_26287)">
    <path d="M302.824 92.0278C301.065 92.0278 299.639 90.6018 299.639 88.8427C299.639 87.0837 301.065 85.6577 302.824 85.6577C304.583 85.6577 306.009 87.0837 306.009 88.8427C306.009 90.6018 304.583 92.0278 302.824 92.0278Z" fill="#94A3B8"/>
    </g>
    <path d="M245.693 498.841V496.718C245.693 496.605 245.648 496.497 245.568 496.418C245.489 496.338 245.38 496.293 245.268 496.293C245.155 496.293 245.047 496.338 244.968 496.418C244.888 496.497 244.843 496.605 244.843 496.718V498.841H242.72C242.607 498.841 242.499 498.886 242.42 498.966C242.34 499.045 242.295 499.153 242.295 499.266C242.295 499.379 242.34 499.487 242.42 499.566C242.499 499.646 242.607 499.691 242.72 499.691H244.843V501.814C244.843 501.927 244.888 502.035 244.968 502.114C245.047 502.194 245.155 502.239 245.268 502.239C245.38 502.239 245.489 502.194 245.568 502.114C245.648 502.035 245.693 501.927 245.693 501.814V499.691H247.816C247.929 499.691 248.037 499.646 248.116 499.566C248.196 499.487 248.241 499.379 248.241 499.266C248.241 499.153 248.196 499.045 248.116 498.966C248.037 498.886 247.929 498.841 247.816 498.841H245.693Z" fill="#94A3B8"/>
    <path d="M332.536 187.159L333.474 186.22C333.499 186.196 333.52 186.166 333.534 186.134C333.547 186.101 333.555 186.067 333.555 186.031C333.555 185.996 333.549 185.961 333.535 185.929C333.522 185.896 333.502 185.866 333.477 185.841C333.452 185.816 333.423 185.797 333.39 185.783C333.358 185.77 333.323 185.763 333.287 185.764C333.252 185.764 333.217 185.771 333.185 185.785C333.153 185.799 333.123 185.819 333.099 185.845L332.16 186.783L331.222 185.845C331.197 185.819 331.168 185.799 331.136 185.785C331.103 185.771 331.069 185.764 331.033 185.764C330.998 185.763 330.963 185.77 330.931 185.783C330.898 185.797 330.868 185.816 330.843 185.841C330.818 185.866 330.799 185.896 330.785 185.929C330.772 185.961 330.765 185.996 330.766 186.031C330.766 186.067 330.773 186.101 330.787 186.134C330.801 186.166 330.821 186.196 330.847 186.22L331.785 187.158L330.847 188.097C330.821 188.121 330.801 188.151 330.787 188.183C330.773 188.215 330.766 188.25 330.766 188.285C330.765 188.321 330.772 188.356 330.785 188.388C330.799 188.421 330.818 188.45 330.843 188.475C330.868 188.5 330.898 188.52 330.931 188.533C330.963 188.547 330.998 188.553 331.033 188.553C331.069 188.553 331.103 188.545 331.136 188.532C331.168 188.518 331.197 188.497 331.222 188.472L332.16 187.534L333.099 188.472C333.123 188.497 333.153 188.518 333.185 188.532C333.217 188.545 333.252 188.553 333.287 188.553C333.323 188.553 333.358 188.547 333.39 188.533C333.423 188.52 333.452 188.5 333.477 188.475C333.502 188.45 333.522 188.421 333.535 188.388C333.549 188.356 333.555 188.321 333.555 188.285C333.555 188.25 333.547 188.215 333.534 188.183C333.52 188.151 333.499 188.121 333.474 188.097L332.536 187.158V187.159Z" fill="#94A3B8"/>
    <path d="M275.585 42.4758L278.4 39.6603C278.476 39.5868 278.536 39.4989 278.578 39.4018C278.62 39.3046 278.642 39.2002 278.643 39.0944C278.644 38.9887 278.623 38.8839 278.583 38.786C278.543 38.6881 278.484 38.5992 278.41 38.5245C278.335 38.4497 278.246 38.3906 278.148 38.3506C278.05 38.3105 277.945 38.2904 277.84 38.2913C277.734 38.2922 277.629 38.3142 277.532 38.3559C277.435 38.3976 277.347 38.4583 277.274 38.5343L274.458 41.3491L271.643 38.5343C271.57 38.4583 271.482 38.3976 271.385 38.3559C271.288 38.3142 271.183 38.2922 271.078 38.2913C270.972 38.2904 270.867 38.3105 270.769 38.3506C270.671 38.3906 270.582 38.4497 270.508 38.5245C270.433 38.5992 270.374 38.6881 270.334 38.786C270.294 38.8839 270.274 38.9887 270.274 39.0944C270.275 39.2002 270.297 39.3046 270.339 39.4018C270.381 39.4989 270.441 39.5868 270.518 39.6603L273.332 42.475L270.518 45.2906C270.441 45.364 270.381 45.4519 270.339 45.5491C270.297 45.6462 270.275 45.7507 270.274 45.8564C270.274 45.9621 270.294 46.067 270.334 46.1648C270.374 46.2627 270.433 46.3516 270.508 46.4264C270.582 46.5011 270.671 46.5603 270.769 46.6003C270.867 46.6403 270.972 46.6605 271.078 46.6596C271.183 46.6586 271.288 46.6367 271.385 46.5949C271.482 46.5532 271.57 46.4925 271.643 46.4165L274.458 43.6017L277.274 46.4165C277.347 46.4925 277.435 46.5532 277.532 46.5949C277.629 46.6367 277.734 46.6586 277.84 46.6596C277.945 46.6605 278.05 46.6403 278.148 46.6003C278.246 46.5603 278.335 46.5011 278.41 46.4264C278.484 46.3516 278.543 46.2627 278.583 46.1648C278.623 46.067 278.644 45.9621 278.643 45.8564C278.642 45.7507 278.62 45.6462 278.578 45.5491C278.536 45.4519 278.476 45.364 278.4 45.2906L275.585 42.475V42.4758Z" fill="#94A3B8"/>
    <path d="M289.504 318.121V314.936C289.504 314.767 289.437 314.605 289.317 314.485C289.198 314.366 289.036 314.299 288.867 314.299C288.698 314.299 288.536 314.366 288.416 314.485C288.297 314.605 288.23 314.767 288.23 314.936V318.121H285.045C284.876 318.121 284.714 318.188 284.594 318.307C284.475 318.427 284.408 318.589 284.408 318.758C284.408 318.927 284.475 319.089 284.594 319.208C284.714 319.328 284.876 319.395 285.045 319.395H288.23V322.58C288.23 322.749 288.297 322.911 288.416 323.03C288.536 323.15 288.698 323.217 288.867 323.217C289.036 323.217 289.198 323.15 289.317 323.03C289.437 322.911 289.504 322.749 289.504 322.58V319.395H292.689C292.858 319.395 293.02 319.328 293.139 319.208C293.259 319.089 293.326 318.927 293.326 318.758C293.326 318.589 293.259 318.427 293.139 318.307C293.02 318.188 292.858 318.121 292.689 318.121H289.504Z" fill="#94A3B8"/>
    <path d="M7.11316 266.052V263.398C7.11316 263.257 7.05723 263.122 6.95768 263.022C6.85813 262.923 6.72311 262.867 6.58232 262.867C6.44153 262.867 6.30651 262.923 6.20696 263.022C6.10741 263.122 6.05148 263.257 6.05148 263.398V266.052H3.39729C3.25651 266.052 3.12149 266.108 3.02193 266.207C2.92238 266.307 2.86646 266.442 2.86646 266.583C2.86646 266.723 2.92238 266.858 3.02193 266.958C3.12149 267.057 3.25651 267.113 3.39729 267.113H6.05148V269.768C6.05148 269.908 6.10741 270.043 6.20696 270.143C6.30651 270.243 6.44153 270.298 6.58232 270.298C6.72311 270.298 6.85813 270.243 6.95768 270.143C7.05723 270.043 7.11316 269.908 7.11316 269.768V267.113H9.76735C9.90814 267.113 10.0432 267.057 10.1427 266.958C10.2423 266.858 10.2982 266.723 10.2982 266.583C10.2982 266.442 10.2423 266.307 10.1427 266.207C10.0432 266.108 9.90814 266.052 9.76735 266.052H7.11316Z" fill="#94A3B8"/>
    <path d="M291.656 214.054L293.157 212.552C293.198 212.513 293.23 212.466 293.252 212.414C293.275 212.362 293.286 212.307 293.287 212.25C293.287 212.194 293.277 212.138 293.255 212.086C293.234 212.033 293.202 211.986 293.162 211.946C293.123 211.906 293.075 211.875 293.023 211.853C292.971 211.832 292.915 211.821 292.858 211.822C292.802 211.822 292.746 211.834 292.695 211.856C292.643 211.879 292.596 211.911 292.557 211.951L291.055 213.453L289.554 211.951C289.515 211.911 289.468 211.879 289.416 211.856C289.364 211.834 289.308 211.822 289.252 211.822C289.196 211.821 289.14 211.832 289.088 211.853C289.035 211.875 288.988 211.906 288.948 211.946C288.908 211.986 288.877 212.033 288.855 212.086C288.834 212.138 288.823 212.194 288.824 212.25C288.824 212.307 288.836 212.362 288.858 212.414C288.88 212.466 288.913 212.513 288.953 212.552L290.455 214.053L288.953 215.555C288.913 215.594 288.88 215.641 288.858 215.693C288.836 215.744 288.824 215.8 288.824 215.857C288.823 215.913 288.834 215.969 288.855 216.021C288.877 216.073 288.908 216.121 288.948 216.161C288.988 216.2 289.035 216.232 289.088 216.253C289.14 216.275 289.196 216.285 289.252 216.285C289.308 216.284 289.364 216.273 289.416 216.25C289.468 216.228 289.515 216.196 289.554 216.155L291.055 214.654L292.557 216.155C292.596 216.196 292.643 216.228 292.695 216.25C292.746 216.273 292.802 216.284 292.858 216.285C292.915 216.285 292.971 216.275 293.023 216.253C293.075 216.232 293.123 216.2 293.162 216.161C293.202 216.121 293.234 216.073 293.255 216.021C293.277 215.969 293.287 215.913 293.287 215.857C293.286 215.8 293.275 215.744 293.252 215.693C293.23 215.641 293.198 215.594 293.157 215.555L291.656 214.053V214.054Z" fill="#94A3B8"/>
    <defs>
    <filter id="filter0_f_229_26287" x="133.207" y="443.679" width="278.754" height="382.492" filterUnits="userSpaceOnUse" color-interpolation-filters="sRGB">
    <feFlood flood-opacity="0" result="BackgroundImageFix"/>
    <feBlend mode="normal" in="SourceGraphic" in2="BackgroundImageFix" result="shape"/>
    <feGaussianBlur stdDeviation="2" result="effect1_foregroundBlur_229_26287"/>
    </filter>
    <linearGradient id="paint0_linear_229_26287" x1="165.724" y1="565.881" x2="422.48" y2="716.899" gradientUnits="userSpaceOnUse">
    <stop stop-color="#FACC15"/>
    <stop offset="1" stop-color="#FACC15" stop-opacity="0"/>
    </linearGradient>
    <clipPath id="clip0_229_26287">
    <rect width="6" height="6" fill="white" transform="translate(293.002 404)"/>
    </clipPath>
    <clipPath id="clip1_229_26287">
    <rect width="6" height="6" fill="white" transform="translate(187.983 190)"/>
    </clipPath>
    <clipPath id="clip2_229_26287">
    <rect width="5.09605" height="5.09605" fill="white" transform="translate(198.432 126.401)"/>
    </clipPath>
    <clipPath id="clip3_229_26287">
    <rect width="8.91808" height="8.91808" fill="white" transform="translate(239.002 164)"/>
    </clipPath>
    <clipPath id="clip4_229_26287">
    <rect width="7.64407" height="7.64407" fill="white" transform="translate(101.332 234.418)"/>
    </clipPath>
    <clipPath id="clip5_229_26287">
    <rect width="7.64407" height="7.64407" fill="white" transform="translate(299.002 85)"/>
    </clipPath>
    </defs>
    </svg>
    