<?xml version="1.0" standalone="no"?>
<!DOCTYPE svg PUBLIC "-//W3C//DTD SVG 20010904//EN"
 "http://www.w3.org/TR/2001/REC-SVG-20010904/DTD/svg10.dtd">
<svg version="1.0" xmlns="http://www.w3.org/2000/svg"
 width="512.000000pt" height="512.000000pt" viewBox="0 0 512.000000 512.000000"
 preserveAspectRatio="xMidYMid meet">

<g transform="translate(0.000000,512.000000) scale(0.100000,-0.100000)"
fill="#000000" stroke="none">
<path d="M1615 5026 c-41 -18 -83 -69 -90 -109 -3 -18 -5 -406 -3 -863 l3
-831 28 -36 c15 -20 38 -42 50 -49 16 -10 118 -14 381 -18 l359 -5 74 -220
c76 -231 90 -255 143 -255 53 0 67 24 143 255 l74 220 361 5 c344 5 362 6 388
26 15 11 37 33 48 48 21 27 21 37 24 872 3 935 6 887 -64 940 l-37 29 -926 2
c-755 2 -932 0 -956 -11z m1825 -946 l0 -800 -373 0 c-316 0 -376 -2 -394 -15
-15 -10 -35 -56 -65 -145 -23 -72 -45 -130 -48 -130 -3 0 -25 58 -48 130 -30
89 -50 135 -65 145 -18 13 -78 15 -394 15 l-373 0 0 800 0 800 880 0 880 0 0
-800z"/>
<path d="M2723 4629 c-48 -14 -98 -70 -122 -136 -84 -227 -93 -241 -156 -250
-37 -5 -41 -3 -52 26 -6 18 -22 35 -38 41 -14 5 -103 10 -196 10 -177 0 -218
-8 -233 -45 -3 -9 -6 -172 -6 -361 l0 -345 25 -24 c24 -25 26 -25 215 -25 172
0 192 2 209 19 10 10 21 25 23 32 3 10 18 5 55 -19 l51 -33 265 3 265 3 44 30
c72 51 84 84 108 301 24 217 21 249 -33 311 -43 49 -98 73 -173 73 l-62 0 24
93 c28 111 29 149 5 202 -39 85 -123 121 -218 94z m73 -163 c3 -7 -11 -77 -31
-156 -23 -91 -34 -153 -30 -172 10 -45 48 -58 173 -58 84 0 112 -3 122 -15 15
-18 -16 -329 -37 -362 -13 -23 -16 -23 -229 -23 l-215 0 -66 40 c-37 22 -70
40 -75 40 -4 0 -8 72 -8 160 l0 160 38 0 c76 1 164 48 208 111 14 20 45 89 70
154 24 64 46 121 50 126 8 13 24 11 30 -5z m-556 -546 l0 -240 -80 0 -80 0 0
240 0 240 80 0 80 0 0 -240z"/>
<path d="M175 4466 c-41 -18 -83 -69 -90 -109 -3 -18 -5 -370 -3 -783 l3 -751
28 -36 c15 -20 38 -42 50 -49 16 -9 105 -14 316 -18 l294 -5 61 -144 c34 -79
70 -149 81 -157 24 -18 66 -18 90 0 11 8 47 78 81 157 l61 144 266 3 267 2 0
80 0 80 -301 0 c-198 0 -307 -4 -321 -11 -11 -6 -38 -49 -60 -97 l-39 -85 -35
79 c-52 122 -26 114 -380 114 l-304 0 0 720 0 720 520 0 520 0 0 80 0 80 -537
0 c-425 -1 -544 -4 -568 -14z"/>
<path d="M3840 4400 l0 -80 520 0 520 0 0 -720 0 -720 -301 0 c-198 0 -307 -4
-321 -11 -11 -6 -38 -49 -60 -97 l-39 -85 -35 79 c-52 122 -26 114 -380 114
l-304 0 0 -80 0 -80 267 -2 266 -3 61 -144 c34 -79 70 -149 81 -157 24 -18 66
-18 90 0 11 8 47 78 81 157 l61 144 296 5 c279 5 297 6 323 26 15 11 37 33 48
48 21 27 21 38 24 792 3 847 6 807 -64 860 l-37 29 -549 3 -548 2 0 -80z"/>
<path d="M4003 3984 c-88 -32 -161 -133 -170 -235 -10 -103 24 -185 130 -312
37 -44 225 -199 275 -226 37 -20 59 -12 144 50 172 126 302 281 328 389 30
126 -31 263 -144 323 -80 42 -226 22 -275 -37 -12 -14 -17 -13 -47 10 -69 53
-158 67 -241 38z m135 -160 c13 -9 40 -34 61 -57 31 -33 45 -41 74 -41 30 0
46 9 96 57 65 62 87 68 137 38 37 -23 59 -77 51 -128 -11 -64 -105 -178 -226
-271 l-53 -42 -46 33 c-128 91 -231 217 -239 290 -10 96 77 169 145 121z"/>
<path d="M520 3880 l0 -80 80 0 80 0 0 80 0 80 -80 0 -80 0 0 -80z"/>
<path d="M920 3880 l0 -80 80 0 80 0 0 80 0 80 -80 0 -80 0 0 -80z"/>
<path d="M404 3588 c9 -71 55 -167 107 -222 26 -29 70 -60 117 -84 72 -35 81
-37 172 -37 91 0 100 2 172 37 47 24 91 55 117 84 52 55 98 151 107 222 l7 52
-82 0 c-68 0 -81 -3 -81 -16 0 -108 -125 -224 -240 -224 -115 0 -240 116 -240
224 0 13 -13 16 -81 16 l-82 0 7 -52z"/>
<path d="M2441 2304 c-253 -68 -410 -331 -346 -579 24 -92 72 -170 142 -235
l64 -58 -69 -21 c-119 -36 -248 -136 -310 -240 -14 -24 -37 -73 -51 -110 l-26
-66 -3 -432 -3 -433 25 -25 25 -25 671 0 671 0 25 25 25 25 -3 433 -3 432 -26
66 c-37 97 -71 149 -139 217 -66 65 -144 111 -231 136 l-56 17 67 67 c73 72
112 139 135 229 89 342 -242 669 -584 577z m250 -173 c69 -33 112 -74 150
-143 31 -58 34 -70 34 -148 0 -78 -3 -90 -34 -148 -38 -70 -70 -100 -145 -140
-43 -22 -64 -26 -136 -26 -78 -1 -90 2 -148 33 -69 37 -109 80 -144 151 -32
66 -31 196 2 265 42 86 123 152 215 176 49 13 158 2 206 -20z m201 -893 c91
-45 147 -103 191 -196 l32 -67 3 -367 3 -368 -561 0 -561 0 3 368 3 367 32 67
c17 37 50 87 72 111 44 48 134 101 197 116 22 5 145 9 275 8 l235 -2 76 -37z"/>
<path d="M850 2104 c-309 -83 -412 -477 -184 -700 l53 -52 -34 -6 c-109 -21
-254 -135 -309 -244 -53 -104 -56 -136 -56 -530 l0 -363 25 -24 24 -25 591 0
591 0 24 25 25 24 0 363 c0 394 -3 426 -56 530 -55 109 -200 223 -309 244
l-33 6 53 53 c228 229 123 619 -190 700 -73 19 -143 18 -215 -1z m225 -172
c47 -24 95 -73 121 -122 26 -49 26 -171 0 -220 -26 -49 -74 -98 -121 -123 -31
-17 -58 -22 -115 -22 -85 0 -133 20 -186 77 -54 57 -69 95 -69 178 0 83 15
121 69 178 31 34 70 58 116 73 41 14 142 3 185 -19z m175 -760 c71 -35 114
-75 151 -144 l34 -63 3 -322 3 -323 -481 0 -481 0 3 323 c3 320 3 322 28 372
42 86 124 153 215 176 17 4 131 7 255 6 211 -2 228 -4 270 -25z"/>
<path d="M4050 2104 c-309 -83 -412 -477 -184 -700 l53 -52 -34 -6 c-109 -21
-254 -135 -309 -244 -53 -104 -56 -136 -56 -530 l0 -363 25 -24 24 -25 591 0
591 0 24 25 25 24 0 363 c0 394 -3 426 -56 530 -55 109 -200 223 -309 244
l-33 6 53 53 c228 229 123 619 -190 700 -73 19 -143 18 -215 -1z m225 -172
c47 -24 95 -73 121 -122 13 -25 19 -56 19 -110 0 -83 -15 -121 -69 -178 -53
-57 -101 -77 -186 -77 -85 0 -133 20 -186 77 -54 57 -69 95 -69 178 0 83 15
121 69 178 31 34 70 58 116 73 41 14 142 3 185 -19z m175 -760 c71 -35 114
-75 151 -144 l34 -63 3 -322 3 -323 -481 0 -481 0 3 323 c3 320 3 322 28 372
42 86 124 153 215 176 17 4 131 7 255 6 211 -2 228 -4 270 -25z"/>
</g>
</svg>
