<svg xmlns="http://www.w3.org/2000/svg" width="41" height="40" viewBox="0 0 41 40" fill="none">
    <path d="M16.6667 39.7778C7.22222 38.1111 0 29.8889 0 20C0 9 9 0 20 0C31 0 40 9 40 20C40 29.8889 32.7778 38.1111 23.3333 39.7778L22.2222 38.8889H17.7778L16.6667 39.7778Z" fill="url(#paint0_linear_908_17138)"/>
    <path d="M27.7781 25.5571L28.667 20.0015H23.3337V16.1126C23.3337 14.5571 23.8892 13.3349 26.3337 13.3349H28.8892V8.22374C27.4448 8.00152 25.8892 7.7793 24.4448 7.7793C19.8892 7.7793 16.667 10.5571 16.667 15.5571V20.0015H11.667V25.5571H16.667V39.6682C17.7781 39.8904 18.8892 40.0015 20.0003 40.0015C21.1114 40.0015 22.2225 39.8904 23.3337 39.6682V25.5571H27.7781Z" fill="white"/>
    <defs>
    <linearGradient id="paint0_linear_908_17138" x1="20" y1="38.6156" x2="20" y2="0" gradientUnits="userSpaceOnUse">
    <stop stop-color="#0062E0"/>
    <stop offset="1" stop-color="#19AFFF"/>
    </linearGradient>
    </defs>
    </svg>