<svg width="41" height="40" viewBox="0 0 41 40" fill="none" xmlns="http://www.w3.org/2000/svg">
    <path d="M40.3884 11.7534C40.2924 9.6237 39.9483 8.16653 39.4602 6.89352C38.9481 5.58047 38.268 4.45957 37.1557 3.35468C36.0435 2.2498 34.9313 1.55324 33.619 1.04884C32.3468 0.552442 30.8905 0.216173 28.7621 0.120096C26.6256 0.0240192 25.9455 0 20.5204 0C15.0873 0 14.4072 0.0240192 12.2788 0.120096C10.1503 0.216173 8.69405 0.560448 7.42179 1.04884C6.10153 1.56125 4.98131 2.24179 3.87708 3.35468C2.77286 4.46757 2.07672 5.58047 1.57262 6.89352C1.08453 8.16653 0.740457 9.6237 0.644438 11.7534C0.548419 13.8911 0.524414 14.5717 0.524414 20C0.524414 25.4364 0.548419 26.1169 0.644438 28.2466C0.740457 30.3763 1.08453 31.8335 1.57262 33.1065C2.08473 34.4195 2.76486 35.5404 3.87708 36.6453C4.98131 37.7582 6.10153 38.4468 7.41379 38.9512C8.68605 39.4476 10.1423 39.7838 12.2708 39.8799C14.4072 39.976 15.0873 40 20.5124 40C25.9455 40 26.6256 39.976 28.7541 39.8799C30.8825 39.7838 32.3388 39.4396 33.611 38.9512C34.9233 38.4388 36.0435 37.7582 37.1477 36.6453C38.252 35.5324 38.9481 34.4195 39.4522 33.1065C39.9483 31.8335 40.2844 30.3763 40.3804 28.2466C40.4764 26.1089 40.5004 25.4283 40.5004 20C40.5004 14.5717 40.4844 13.8831 40.3884 11.7534ZM36.7957 28.0865C36.7077 30.04 36.3796 31.1049 36.1075 31.8014C35.7475 32.7302 35.3074 33.4027 34.6032 34.1073C33.8991 34.8119 33.235 35.2362 32.2988 35.6125C31.5946 35.8847 30.5304 36.213 28.586 36.301C26.4816 36.3971 25.8495 36.4211 20.5044 36.4211C15.1593 36.4211 14.5272 36.3971 12.4228 36.301C10.4704 36.213 9.40619 35.8847 8.71005 35.6125C7.78187 35.2522 7.10973 34.8119 6.40559 34.1073C5.70145 33.4027 5.27736 32.7382 4.90129 31.8014C4.62923 31.0969 4.30117 30.032 4.21315 28.0865C4.11713 25.9808 4.09313 25.3483 4.09313 20C4.09313 14.6517 4.11713 14.0192 4.21315 11.9135C4.30117 9.95997 4.62923 8.89512 4.90129 8.19856C5.26136 7.26982 5.70145 6.59728 6.40559 5.89271C7.10973 5.18815 7.77386 4.76381 8.71005 4.38751C9.41419 4.11529 10.4784 3.78703 12.4228 3.69896C14.5272 3.60288 15.1593 3.57886 20.5044 3.57886C25.8495 3.57886 26.4816 3.60288 28.586 3.69896C30.5384 3.78703 31.6026 4.11529 32.2988 4.38751C33.227 4.7478 33.8991 5.18815 34.6032 5.89271C35.3074 6.59728 35.7315 7.26181 36.1075 8.19856C36.3796 8.90312 36.7077 9.96798 36.7957 11.9135C36.8917 14.0192 36.9157 14.6517 36.9157 20C36.9157 25.3483 36.8837 25.9808 36.7957 28.0865Z" fill="url(#paint0_linear_730_51250)"/>
    <path d="M20.5035 9.7207C14.8224 9.7207 10.2295 14.3244 10.2295 20.0009C10.2295 25.6855 14.8304 30.2812 20.5035 30.2812C26.1767 30.2812 30.7776 25.6695 30.7776 20.0009C30.7776 14.3164 26.1847 9.7207 20.5035 9.7207ZM20.5035 26.6703C16.8228 26.6703 13.8382 23.6839 13.8382 20.0009C13.8382 16.318 16.8228 13.3316 20.5035 13.3316C24.1843 13.3316 27.1689 16.318 27.1689 20.0009C27.1689 23.6839 24.1843 26.6703 20.5035 26.6703Z" fill="url(#paint1_linear_730_51250)"/>
    <path d="M31.1788 11.7218C32.5045 11.7218 33.5793 10.6464 33.5793 9.31989C33.5793 7.99335 32.5045 6.91797 31.1788 6.91797C29.8531 6.91797 28.7783 7.99335 28.7783 9.31989C28.7783 10.6464 29.8531 11.7218 31.1788 11.7218Z" fill="#BC30A0"/>
    <path d="M0.5 20C0.5 25.4364 0.524005 26.1169 0.620024 28.2466C0.716043 30.3763 1.06011 31.8335 1.54821 33.1065C2.06031 34.4195 2.74045 35.5404 3.85267 36.6453C4.95689 37.7502 6.07712 38.4468 7.38938 38.9512C8.66163 39.4476 10.1179 39.7838 12.2463 39.8799C14.3828 39.976 15.0629 40 20.488 40C25.9211 40 26.6012 39.976 28.7296 39.8799C30.8581 39.7838 32.3144 39.4396 33.5866 38.9512C34.8989 38.4388 36.0191 37.7582 37.1233 36.6453C38.2275 35.5404 38.9237 34.4195 39.4278 33.1065C39.9239 31.8335 40.26 30.3763 40.356 28.2466C40.452 26.1089 40.476 25.4283 40.476 20C40.476 14.5637 40.452 13.8831 40.356 11.7534C40.26 9.6237 39.9159 8.16653 39.4278 6.89352C38.9157 5.58047 38.2355 4.45957 37.1233 3.35468C36.0271 2.24179 34.9069 1.55324 33.5946 1.04884C32.3224 0.552442 30.8661 0.216173 28.7376 0.120096C26.6012 0.0240192 25.9211 0 20.496 0C15.0629 0 14.3828 0.0240192 12.2544 0.120096C10.1259 0.216173 8.66963 0.560448 7.39738 1.04884C6.08512 1.56125 4.96489 2.24179 3.86067 3.35468C2.75645 4.46757 2.06031 5.58047 1.55621 6.89352C1.06011 8.16653 0.716043 9.6237 0.620024 11.7534C0.524005 13.8831 0.5 14.5637 0.5 20ZM4.10872 20C4.10872 14.6597 4.13273 14.0192 4.22875 11.9135C4.31676 9.95997 4.64483 8.89512 4.91688 8.19856C5.27696 7.26982 5.71704 6.59728 6.42118 5.89271C7.12533 5.18815 7.78946 4.76381 8.72565 4.38751C9.42979 4.11529 10.494 3.78703 12.4384 3.69896C14.5428 3.60288 15.1749 3.57886 20.52 3.57886C25.8651 3.57886 26.4972 3.60288 28.6016 3.69896C30.554 3.78703 31.6182 4.11529 32.3144 4.38751C33.2425 4.7478 33.9147 5.18815 34.6188 5.89271C35.323 6.59728 35.7471 7.26181 36.1231 8.19856C36.3952 8.90312 36.7232 9.96798 36.8113 11.9135C36.9073 14.0192 36.9313 14.6517 36.9313 20C36.9313 25.3483 36.9073 25.9808 36.8113 28.0865C36.7232 30.04 36.3952 31.1049 36.1231 31.8014C35.7631 32.7302 35.323 33.4027 34.6188 34.1073C33.9147 34.8119 33.2505 35.2362 32.3144 35.6125C31.6102 35.8847 30.546 36.213 28.6016 36.301C26.4972 36.3971 25.8651 36.4211 20.52 36.4211C15.1749 36.4211 14.5428 36.3971 12.4384 36.301C10.486 36.213 9.42178 35.8847 8.72565 35.6125C7.79746 35.2522 7.12533 34.8119 6.42118 34.1073C5.71704 33.4027 5.29296 32.7382 4.91688 31.8014C4.64483 31.0969 4.31676 30.032 4.22875 28.0865C4.12472 25.9808 4.10872 25.3403 4.10872 20Z" fill="url(#paint2_linear_730_51250)"/>
    <defs>
    <linearGradient id="paint0_linear_730_51250" x1="34.3262" y1="3.05867" x2="5.38881" y2="38.5127" gradientUnits="userSpaceOnUse">
    <stop stop-color="#AE3DAE"/>
    <stop offset="0.0468721" stop-color="#B23BA6"/>
    <stop offset="0.1216" stop-color="#BD368E"/>
    <stop offset="0.2148" stop-color="#CE2E69"/>
    <stop offset="0.3216" stop-color="#E62335"/>
    <stop offset="0.418" stop-color="#FF1800"/>
    </linearGradient>
    <linearGradient id="paint1_linear_730_51250" x1="25.4033" y1="11.7557" x2="14.891" y2="29.4199" gradientUnits="userSpaceOnUse">
    <stop stop-color="#E12F6A"/>
    <stop offset="0.1705" stop-color="#EA3751"/>
    <stop offset="0.3563" stop-color="#F13D3E"/>
    <stop offset="0.5467" stop-color="#F64133"/>
    <stop offset="0.7469" stop-color="#F7422F"/>
    <stop offset="0.7946" stop-color="#F74C2F"/>
    <stop offset="0.8743" stop-color="#F7652F"/>
    <stop offset="0.9757" stop-color="#F78F2E"/>
    <stop offset="1" stop-color="#F79A2E"/>
    </linearGradient>
    <linearGradient id="paint2_linear_730_51250" x1="29.5635" y1="-1.64672" x2="11.8565" y2="40.5605" gradientUnits="userSpaceOnUse">
    <stop offset="0.2341" stop-color="#9E35A5" stop-opacity="0"/>
    <stop offset="0.4512" stop-color="#D42F7F" stop-opacity="0.5"/>
    <stop offset="0.7524" stop-color="#F7772E"/>
    <stop offset="0.9624" stop-color="#FEF780"/>
    </linearGradient>
    </defs>
    </svg>
    