<svg width="41" height="40" viewBox="0 0 41 40" fill="none" xmlns="http://www.w3.org/2000/svg">
    <g clip-path="url(#clip0_911_949)">
    <path d="M0.5 5.33664C0.5 4.04961 0.950463 2.98784 1.85135 2.15131C2.75224 1.31475 3.92344 0.896484 5.36486 0.896484C6.78058 0.896484 7.92598 1.3083 8.80116 2.13201C9.70205 2.98143 10.1525 4.08822 10.1525 5.45247C10.1525 6.68799 9.71494 7.71757 8.83977 8.54127C7.93888 9.39069 6.75483 9.8154 5.28765 9.8154H5.24903C3.83332 9.8154 2.68792 9.39069 1.81274 8.54127C0.937568 7.69185 0.5 6.62363 0.5 5.33664ZM1.00193 39.1204V13.3289H9.57336V39.1204H1.00193ZM14.3224 39.1204H22.8938V24.7189C22.8938 23.818 22.9968 23.123 23.2027 22.6339C23.5631 21.7588 24.11 21.0187 24.8436 20.4139C25.5772 19.809 26.4974 19.5065 27.6042 19.5065C30.4871 19.5065 31.9286 21.4499 31.9286 25.3366V39.1204H40.5V24.3328C40.5 20.5232 39.5991 17.6339 37.7973 15.6648C35.9955 13.6957 33.6146 12.7112 30.6544 12.7112C27.334 12.7112 24.7471 14.1397 22.8938 16.9969V17.0741H22.8552L22.8938 16.9969V13.3289H14.3224C14.3739 14.1526 14.3996 16.7137 14.3996 21.0123C14.3996 25.3109 14.3739 31.3469 14.3224 39.1204Z" fill="#0A66C2"/>
    </g>
    <defs>
    <clipPath id="clip0_911_949">
    <rect width="40" height="40" fill="white" transform="translate(0.5)"/>
    </clipPath>
    </defs>
    </svg>
    