<svg width="41" height="40" viewBox="0 0 41 40" fill="none" xmlns="http://www.w3.org/2000/svg">
    <path d="M29.1534 14.4388C31.7256 16.2841 34.8768 17.3698 38.2801 17.3698V10.7974C37.6361 10.7975 36.9936 10.7301 36.3635 10.5961V15.7696C32.9604 15.7696 29.8096 14.6838 27.2367 12.8387V26.2511C27.2367 32.9607 21.8169 38.3995 15.1315 38.3995C12.6371 38.3995 10.3186 37.6427 8.39258 36.3447C10.5908 38.6004 13.6563 39.9996 17.0478 39.9996C23.7335 39.9996 29.1537 34.5608 29.1537 27.851V14.4388H29.1534ZM31.5178 7.808C30.2033 6.36672 29.3402 4.50413 29.1534 2.44497V1.59961H27.3371C27.7943 4.21681 29.3537 6.45279 31.5178 7.808ZM12.6211 31.196C11.8866 30.2296 11.4897 29.0473 11.4915 27.8317C11.4915 24.763 13.9705 22.2749 17.0289 22.2749C17.5989 22.2747 18.1655 22.3623 18.7087 22.5353V15.816C18.0739 15.7286 17.4332 15.6916 16.7928 15.7052V20.9352C16.2492 20.7622 15.6824 20.6744 15.1122 20.6749C12.0538 20.6749 9.57493 23.1628 9.57493 26.2319C9.57493 28.402 10.814 30.2808 12.6211 31.196Z" fill="#FF004F"/>
    <path d="M27.2357 12.8385C29.8086 14.6837 32.9593 15.7694 36.3624 15.7694V10.596C34.4628 10.1899 32.7812 9.19368 31.5168 7.808C29.3525 6.45265 27.7932 4.21667 27.336 1.59961H22.565V27.8507C22.5542 30.911 20.0795 33.389 17.0276 33.389C15.2292 33.389 13.6315 32.5287 12.6196 31.196C10.8127 30.2808 9.57362 28.4019 9.57362 26.232C9.57362 23.1632 12.0525 20.675 15.1109 20.675C15.6969 20.675 16.2617 20.7666 16.7915 20.9353V15.7053C10.2236 15.8415 4.94141 21.2272 4.94141 27.8508C4.94141 31.1573 6.25679 34.1548 8.39167 36.3449C10.3177 37.6427 12.6362 38.3997 15.1306 38.3997C21.8161 38.3997 27.2358 32.9606 27.2358 26.2511V12.8385H27.2357Z" fill="black"/>
    <path d="M36.3629 10.5963V9.19747C34.65 9.20008 32.9706 8.71865 31.5173 7.80822C32.8038 9.22177 34.4979 10.1964 36.3629 10.5963ZM27.3365 1.59997C27.2929 1.34985 27.2594 1.09808 27.2362 0.845356V0H20.6487V26.2514C20.6382 29.3113 18.1636 31.7893 15.1114 31.7893C14.2154 31.7893 13.3694 31.5758 12.6201 31.1965C13.632 32.5291 15.2297 33.3892 17.0281 33.3892C20.0797 33.3892 22.5549 30.9115 22.5656 27.8512V1.59997H27.3365ZM16.7923 15.7057V14.2165C16.2418 14.141 15.6869 14.1031 15.1313 14.1034C8.44525 14.1032 3.02539 19.5423 3.02539 26.2514C3.02539 30.4575 5.15549 34.1645 8.39234 36.345C6.25745 34.155 4.94207 31.1574 4.94207 27.851C4.94207 21.2275 10.2241 15.8419 16.7923 15.7057Z" fill="#00F2EA"/>
    </svg>
    