<svg xmlns="http://www.w3.org/2000/svg" width="22" height="22" viewBox="0 0 22 22" fill="none">
    <path fill-rule="evenodd" clip-rule="evenodd" d="M3.50146 3.36217C3.50146 2.88601 3.88747 2.5 4.36363 2.5H18.1584C18.6345 2.5 19.0205 2.88601 19.0205 3.36217V18.8812C19.0205 19.2255 18.8157 19.5368 18.4995 19.673C18.1833 19.8093 17.8164 19.7443 17.5662 19.5079L11.261 13.5495L4.95581 19.5079C4.70558 19.7443 4.33865 19.8093 4.02247 19.673C3.70629 19.5368 3.50146 19.2255 3.50146 18.8812V3.36217ZM5.2258 4.22434V16.8802L10.6688 11.7366C11.0011 11.4225 11.5208 11.4225 11.8532 11.7366L17.2962 16.8802V4.22434H5.2258Z" fill="black"/>
    </svg>