<svg width="100" height="22" viewBox="0 0 100 22" fill="none" xmlns="http://www.w3.org/2000/svg">
    <g clip-path="url(#clip0_730_46822)">
    <path d="M14.8705 4.14107C16.0038 4.20372 17.0664 4.71174 17.8267 5.55443C18.587 6.39711 18.9835 7.50616 18.9296 8.63987C18.9296 11.2885 16.6432 12.9154 14.4489 14.8665C12.2832 16.8003 11.1167 17.8573 10.739 18.1013C10.3278 17.8349 8.89139 16.5296 7.02911 14.8665C4.8254 12.9076 2.54841 11.2652 2.54841 8.63987C2.49458 7.50616 2.89102 6.39711 3.65135 5.55443C4.41167 4.71174 5.47424 4.20372 6.6075 4.14107C7.23529 4.12204 7.85727 4.26624 8.41264 4.55957C8.96801 4.85289 9.43777 5.28531 9.77598 5.81454C10.5002 6.82759 10.6209 7.33455 10.7416 7.33455C10.8623 7.33455 10.9813 6.82759 11.6986 5.81196C12.0349 5.28027 12.5048 4.84615 13.0615 4.55294C13.6181 4.25973 14.2419 4.11771 14.8705 4.14107ZM14.8705 2.41673C14.0876 2.39166 13.3092 2.54354 12.5931 2.86105C11.877 3.17856 11.2418 3.65352 10.7347 4.25057C10.2281 3.65526 9.59416 3.18139 8.8798 2.86398C8.16543 2.54657 7.38888 2.39372 6.6075 2.41673C5.01669 2.47894 3.51523 3.16853 2.43145 4.33471C1.34766 5.50089 0.769746 7.04877 0.824067 8.63987C0.824067 11.7523 3.0226 13.6637 5.14785 15.5114C5.39184 15.7235 5.63843 15.9373 5.88328 16.1554L6.76873 16.9469C7.7344 17.8658 8.74678 18.7343 9.80185 19.5489C10.081 19.7297 10.4065 19.8258 10.739 19.8258C11.0716 19.8258 11.397 19.7297 11.6762 19.5489C12.7649 18.7094 13.8084 17.8129 14.8024 16.8633L15.5974 16.1528C15.85 15.9287 16.106 15.7054 16.3604 15.4855C18.3727 13.7396 20.654 11.7609 20.654 8.63987C20.7083 7.04877 20.1304 5.50089 19.0466 4.33471C17.9628 3.16853 16.4614 2.47894 14.8705 2.41673Z" fill="black"/>
    </g>
    <path fill-rule="evenodd" clip-rule="evenodd" d="M49.185 1.6703C51.4824 1.51404 53.7581 2.19951 55.587 3.59865C57.4159 4.9978 58.6729 7.01491 59.1231 9.27316C59.5495 11.4119 59.2247 13.6283 58.2101 15.5504L59.2784 19.5182C59.3589 19.8173 59.2728 20.1367 59.0527 20.3548C58.8327 20.5728 58.5125 20.656 58.2141 20.5728L54.303 19.4812C52.3897 20.506 50.1785 20.8448 48.0396 20.4338C45.7783 19.9993 43.7525 18.7563 42.3407 16.9372C40.9289 15.1181 40.2277 12.8472 40.368 10.5488C40.5083 8.25036 41.4805 6.08163 43.1031 4.44774C44.7257 2.81385 46.8877 1.82655 49.185 1.6703ZM54.5393 4.96819C53.0431 3.82359 51.1815 3.26283 49.3021 3.39066C47.4226 3.51849 45.654 4.32616 44.3266 5.66279C42.9993 6.99942 42.2039 8.77359 42.0891 10.6538C41.9743 12.5341 42.548 14.3918 43.7029 15.88C44.8579 17.3682 46.5151 18.385 48.365 18.7405C50.2149 19.096 52.131 18.7658 53.7552 17.8117C53.957 17.6932 54.1983 17.6618 54.4237 17.7247L57.2199 18.5051L56.4546 15.6625C56.395 15.4412 56.426 15.2053 56.5407 15.0069C57.4835 13.376 57.8004 11.4577 57.432 9.61031C57.0637 7.7629 56.0354 6.11278 54.5393 4.96819Z" fill="black"/>
    <path fill-rule="evenodd" clip-rule="evenodd" d="M80.2874 2.50086L97.5308 2.5C97.8408 2.49998 98.127 2.66637 98.2803 2.93579C98.4335 3.20521 98.4304 3.53619 98.272 3.80266L89.39 18.7475C89.2109 19.0489 88.8671 19.2118 88.5205 19.1596C88.1738 19.1074 87.8933 18.8505 87.8108 18.5098L85.7307 9.91151L79.6837 3.97845C79.4337 3.73319 79.3569 3.36109 79.4894 3.03691C79.6218 2.71273 79.9372 2.50088 80.2874 2.50086ZM87.5031 9.90466L88.9891 16.047L95.1619 5.66059L87.5031 9.90466ZM94.1959 4.22451L82.3972 4.2251L86.6553 8.40304L94.1959 4.22451Z" fill="black"/>
    <defs>
    <clipPath id="clip0_730_46822">
    <rect width="20.6921" height="20.6921" fill="white" transform="translate(0.393066 0.775391)"/>
    </clipPath>
    </defs>
    </svg>
    