<svg width="118" height="118" viewBox="0 0 118 118" fill="none" xmlns="http://www.w3.org/2000/svg">
    <path opacity="0.4" d="M58.8525 108.167C86.0065 108.167 108.019 86.1539 108.019 58.9999C108.019 31.8459 86.0065 9.83325 58.8525 9.83325C31.6985 9.83325 9.68579 31.8459 9.68579 58.9999C9.68579 86.1539 31.6985 108.167 58.8525 108.167Z" fill="white"/>
    <path d="M73.603 50.2982L59.3447 42.0873C55.8047 40.0223 51.5272 40.0223 47.9872 42.0873C44.4472 44.1523 42.333 47.7907 42.333 51.9207V68.3915C42.333 72.4723 44.4472 76.1598 47.9872 78.2248C49.7572 79.2573 51.7238 79.749 53.6413 79.749C55.608 79.749 57.5255 79.2573 59.2955 78.2248L73.5538 70.014C77.0938 67.949 79.208 64.3107 79.208 60.1807C79.3063 56.0507 77.1922 52.3632 73.603 50.2982Z" fill="white"/>
    </svg>
    