<svg height="50" id="Layer_1" inkscape:version="0.91 r13725" sodipodi:docname="YouTube_full-color_icon (2017).svg" version="1.1" viewBox="0 0 71.412065 50" width="71.412064" x="0px" xml:space="preserve" xmlns="http://www.w3.org/2000/svg" xmlns:cc="http://creativecommons.org/ns#" xmlns:dc="http://purl.org/dc/elements/1.1/" xmlns:inkscape="http://www.inkscape.org/namespaces/inkscape" xmlns:rdf="http://www.w3.org/1999/02/22-rdf-syntax-ns#" xmlns:sodipodi="http://sodipodi.sourceforge.net/DTD/sodipodi-0.dtd" xmlns:svg="http://www.w3.org/2000/svg" y="0px"><metadata id="metadata33"><rdf:rdf><cc:work rdf:about=""><dc:format>image/svg+xml</dc:format><dc:type rdf:resource="http://purl.org/dc/dcmitype/StillImage"></dc:type><dc:title></dc:title></cc:work></rdf:rdf></metadata><defs id="defs31"></defs><sodipodi:namedview bordercolor="#666666" borderopacity="1" fit-margin-bottom="0" fit-margin-left="0" fit-margin-right="0" fit-margin-top="0" gridtolerance="10" guidetolerance="10" id="namedview29" inkscape:current-layer="Layer_1" inkscape:cx="-71.668263" inkscape:cy="39.237696" inkscape:pageopacity="0" inkscape:pageshadow="2" inkscape:window-height="715" inkscape:window-maximized="1" inkscape:window-width="1366" inkscape:window-x="-8" inkscape:window-y="-8" inkscape:zoom="1.3588925" objecttolerance="10" pagecolor="#ffffff" showgrid="false"></sodipodi:namedview><style id="style3" type="text/css">
	.st0{fill:#FF0000;}
	.st1{fill:#FFFFFF;}
	.st2{fill:#282828;}
</style><g id="g5" transform="scale(0.58823529,0.58823529)"><path class="st0" d="M 118.9,13.3 C 117.5,8.1 113.4,4 108.2,2.6 98.7,0 60.7,0 60.7,0 60.7,0 22.7,0 13.2,2.5 8.1,3.9 3.9,8.1 2.5,13.3 0,22.8 0,42.5 0,42.5 0,42.5 0,62.3 2.5,71.7 3.9,76.9 8,81 13.2,82.4 22.8,85 60.7,85 60.7,85 c 0,0 38,0 47.5,-2.5 5.2,-1.4 9.3,-5.5 10.7,-10.7 2.5,-9.5 2.5,-29.2 2.5,-29.2 0,0 0.1,-19.8 -2.5,-29.3 z" id="path7" inkscape:connector-curvature="0" style="fill:#ff0000"></path><polygon class="st1" id="polygon9" points="80.2,42.5 48.6,24.3 48.6,60.7 " style="fill:#ffffff"></polygon></g></svg>